<svg width="50" height="50" viewBox="0 0 50 50" fill="none" xmlns="http://www.w3.org/2000/svg">
<ellipse cx="25" cy="24.9552" rx="25" ry="24.9552" fill="#027ABF"/>
<ellipse cx="25.0449" cy="32.3479" rx="17.5943" ry="17.5627" fill="#098BD6"/>
<path d="M39.7721 44.6974V48.4709C39.7721 48.8933 39.4294 49.2355 39.0061 49.2355H11.0469C10.6237 49.2355 10.2809 48.8933 10.2809 48.4709V44.6974C10.2809 40.7557 13.5115 37.6293 17.4603 37.5911C18.766 37.5772 19.9492 36.9356 20.6746 35.9022C21.4676 34.7713 21.388 33.7527 21.388 32.987L21.4023 32.9517C17.9649 31.5314 15.5472 28.1507 15.5472 24.2062C15.5472 24.2062 15.5472 24.0981 15.5472 23.907C14.7373 23.907 14.0446 23.5308 13.6111 22.9455C13.6111 22.9445 13.6101 22.9445 13.6101 22.9435C13.3518 22.6177 13.1534 22.0985 13.1534 21.5615V12.2463C13.1534 10.8212 14.311 9.66566 15.7387 9.66566C16.8934 6.78566 19.6874 4.88669 22.8099 4.88669C27.3663 4.88669 30.2946 4.85266 30.5389 4.97462C30.5963 4.98332 31.1244 5.07718 31.1661 5.09792C31.9234 5.27168 32.7613 5.65715 32.7996 5.69529C35.2881 6.94547 36.9954 9.51847 36.9954 12.4891V21.4219C36.9954 22.7944 35.8808 23.907 34.5058 23.907V24.2062C34.5058 28.1507 32.0881 31.5314 28.6507 32.9517L28.665 32.987C28.665 33.7308 28.579 34.7622 29.3784 35.9022C30.1018 36.9328 31.2833 37.5772 32.5927 37.5911C36.5415 37.6293 39.7721 40.7557 39.7721 44.6974Z" fill="#FFDFBA"/>
<path d="M36.9955 12.4891V21.4219C36.9955 22.7944 35.881 23.907 34.506 23.907V18.6148C34.506 18.2105 34.191 17.8759 33.7869 17.852C29.2973 17.5848 24.8018 16.2213 20.7533 13.6676C20.3129 13.3894 19.7336 13.6188 19.5995 14.1216C19.3994 14.8776 18.9494 15.8458 17.9411 16.4518C17.0138 17.009 16.2959 16.8989 16.0261 17.01C15.7436 17.1228 15.5473 17.398 15.5473 17.7173V23.907C14.7375 23.907 14.0447 23.5308 13.6113 22.9455C13.6113 22.9445 13.6103 22.9445 13.6103 22.9435C13.4386 22.7271 13.2673 22.3711 13.1967 22.0069C13.1352 21.6943 13.1536 22.3996 13.1536 12.2463C13.1536 10.8212 14.3112 9.66566 15.7388 9.66566C16.8877 6.80047 19.6734 4.88669 22.8101 4.88669C27.3665 4.88669 30.2948 4.85266 30.5391 4.97462C31.282 5.08702 32.0143 5.32062 32.5987 5.5978C32.6101 5.60344 32.7923 5.68784 32.7997 5.69529C35.2883 6.94547 36.9955 9.51847 36.9955 12.4891Z" fill="#42434D"/>
<path d="M39.7721 44.6976V48.471C39.7721 48.8935 39.4294 49.2357 39.0061 49.2357H11.0469C10.6237 49.2357 10.2809 48.8935 10.2809 48.471V44.6976C10.2809 40.7559 13.5115 37.6295 17.4603 37.5912C18.766 37.5774 19.9492 36.9357 20.6746 35.9023C24.0031 39.5946 23.2374 38.7451 24.4568 40.0983C24.7613 40.4357 25.2917 40.4357 25.5962 40.0983C26.6896 38.8848 25.797 39.875 29.3784 35.9023C30.1018 36.933 31.2833 37.5774 32.5927 37.5912C36.5415 37.6295 39.7721 40.7559 39.7721 44.6976Z" fill="#6FBD44"/>
<path d="M31.0666 37.2721C31.0547 37.2973 30.1097 41.5888 30.1157 41.5615C29.991 42.1261 29.2752 42.3079 28.8954 41.8714C26.3812 38.9814 26.7242 39.3583 26.4696 39.1291L29.3785 35.9023C29.7998 36.5027 30.3839 36.9796 31.0666 37.2721Z" fill="#7DCA53"/>
<path d="M20.6748 35.9023L23.5148 39.0526L21.159 41.8393C20.7825 42.2847 20.0579 42.1061 19.9322 41.5369C19.9262 41.5097 18.9987 37.2971 18.9867 37.2719C19.6694 36.9795 20.2535 36.5026 20.6748 35.9023Z" fill="#7DCA53"/>
<path d="M34.506 24.2062C34.506 29.434 30.2597 33.6686 25.0267 33.6686C19.7939 33.6686 15.5474 29.4342 15.5474 24.2062C15.5474 24.0532 15.5474 17.5345 15.5474 17.7177C15.5474 17.3111 15.8657 16.9775 16.2724 16.9544C17.8236 16.8662 19.1297 15.8962 19.5999 14.1213C19.7331 13.6186 20.3129 13.3896 20.7533 13.6673C24.6714 16.138 29.1355 17.5749 33.7869 17.852C34.1913 17.8761 34.506 18.2106 34.506 18.615V24.2062Z" fill="#FFEBD2"/>
<path d="M32.2932 7.75412H25.6825C22.7573 7.75412 20.1069 9.42485 18.8382 12.0227C18.6937 12.319 18.4141 12.5197 18.0904 12.5857C16.9127 12.8265 16.026 13.8664 16.026 15.1137V17.01C15.7436 17.1228 15.5473 17.3981 15.5473 17.7173V22.2564C15.5473 23.3302 14.1451 23.7513 13.5672 22.8853C13.4356 22.7104 13.2673 22.3508 13.2158 22.0939C13.1293 21.7229 13.1535 22.4407 13.1535 12.2463C13.1535 10.8213 14.3111 9.6657 15.7388 9.6657C16.8982 6.77414 19.7016 4.88674 22.81 4.88674C27.3357 4.88674 30.2944 4.85252 30.539 4.97467C31.4575 5.11364 32.3002 5.45132 32.4234 5.51947C32.4534 5.53209 32.7854 5.6811 32.7997 5.69534C33.8309 6.21529 33.4508 7.75985 32.2932 7.75412Z" fill="#4D4E59"/>
<path d="M28.7734 34.5564C26.4144 35.5421 23.8219 35.6186 21.2799 34.5564C21.4097 34.0187 21.3881 33.6704 21.3881 32.987L21.4025 32.9517C23.7083 33.9071 26.3404 33.909 28.6508 32.9517L28.6652 32.987C28.6652 33.6707 28.6436 34.0189 28.7734 34.5564Z" fill="#FFD6A6"/>
<path d="M19.4845 39.5104C15.6946 39.6825 12.6747 42.8051 12.6747 46.6301V49.2356H11.0469C10.6239 49.2356 10.2809 48.8933 10.2809 48.471V44.7035C10.2809 40.7604 13.5128 37.6316 17.4628 37.591C18.0029 37.5855 18.5179 37.4723 18.9866 37.272C18.9985 37.2972 19.4785 39.4832 19.4845 39.5104Z" fill="#7DCA53"/>
<path d="M30.5687 39.5104C34.3585 39.6825 37.3785 42.8051 37.3785 46.6301V49.2356H39.0063C39.4293 49.2356 39.7723 48.8933 39.7723 48.471V44.7035C39.7723 40.7604 36.5404 37.6316 32.5904 37.591C32.0503 37.5855 31.5352 37.4723 31.0666 37.272C31.0548 37.2972 30.5748 39.4832 30.5687 39.5104Z" fill="#64B13A"/>
<path d="M20.7351 39.9167C20.8778 40.5637 21.03 41.2529 21.1593 41.8388C20.7828 42.2843 20.0581 42.1063 19.9325 41.537C19.5644 39.868 18.9947 37.289 18.9867 37.272C19.6694 36.9795 20.2535 36.5026 20.6748 35.9023L21.4925 36.8103C20.7897 37.6839 20.4919 38.8166 20.7351 39.9167Z" fill="#8BD861"/>
<path d="M22.9359 15.7718C22.7676 17.1265 22.1724 18.3418 21.1796 19.0782C19.4121 20.3897 18.4199 22.4997 18.4199 24.6981V27.0739C18.4199 28.4911 16.6127 28.7482 16.1633 27.5686C15.7654 26.5238 15.5474 25.3905 15.5474 24.2065V17.718C15.5474 17.3114 15.8657 16.9778 16.2724 16.9547C17.828 16.8662 19.1309 15.8924 19.6 14.1215C19.7331 13.6191 20.312 13.3896 20.7522 13.6671C21.2363 13.9723 21.763 14.2832 22.332 14.5906C22.7588 14.8214 22.9956 15.291 22.9359 15.7718Z" fill="#FFF3E4"/>
<path d="M26.4695 39.1292L27.8991 49.2358H22.1541L23.5147 39.0527L24.4572 40.0979C24.7615 40.4353 25.2915 40.4353 25.5958 40.0979L26.4695 39.1292Z" fill="#FE4F60"/>
<path d="M24.5153 40.1624L23.3031 49.2358H22.1541L23.5147 39.0527L24.5153 40.1624Z" fill="#E84857"/>
<path d="M32.6321 36.8267C31.504 36.8267 30.4804 36.2532 29.8942 35.2925C29.6741 34.9318 29.2027 34.8175 28.8415 35.0372C28.4803 35.2569 28.3657 35.7274 28.5859 36.088C28.9936 36.7561 29.5455 37.2956 30.188 37.6816L29.3941 41.278L27.4801 39.078C27.8276 38.6793 27.7437 38.2134 27.4444 37.9536C27.1254 37.6766 26.6414 37.7102 26.3638 38.0289L25.0169 39.5749L21.6243 35.8121C21.913 35.2587 22.088 34.6512 22.138 34.0181C28.704 35.9474 35.2722 31.0007 35.2722 24.2057V17.8855C35.2722 17.4632 34.9293 17.1209 34.5062 17.1209C34.0832 17.1209 33.7402 17.4632 33.7402 17.8855V24.2057C33.7402 29.0016 29.8315 32.9034 25.0269 32.9034C20.2223 32.9034 16.3136 29.0017 16.3136 24.2057V17.7165C18.181 17.6107 19.7694 16.4403 20.3355 14.3192C23.5249 16.3581 27.1001 17.6791 30.852 18.2034C31.2725 18.2619 31.6584 17.9691 31.7168 17.5521C31.7754 17.134 31.4834 16.7474 31.0645 16.6888C27.244 16.155 23.5159 14.7277 20.2032 12.3868C19.6967 12.0288 18.9915 12.393 18.9946 13.0158C18.9947 13.0348 18.9875 14.9312 17.5465 15.7966C16.6352 16.3439 15.7135 16.1672 15.5549 16.1655C15.1634 16.1617 14.8316 16.455 14.787 16.8418C14.7786 16.9158 14.7816 16.6639 14.7816 22.9604C14.2699 22.6954 13.9198 22.1682 13.9198 21.5615V12.2463C13.9198 11.2449 14.7359 10.4303 15.7391 10.4303C16.0523 10.4303 16.334 10.2399 16.4503 9.94964C17.4967 7.33851 19.9931 5.65134 22.8105 5.65134H29.3796C33.1569 5.65134 36.2297 8.71877 36.2297 12.4892V21.5615C36.2297 21.9838 36.5727 22.3261 36.9958 22.3261C37.4188 22.3261 37.7618 21.9838 37.7618 21.5615V12.4892C37.7618 7.87557 34.0016 4.12207 29.3796 4.12207H22.8105C19.5243 4.12207 16.5946 5.99829 15.2188 8.94128C13.6171 9.1916 12.3878 10.5784 12.3878 12.2463V21.5615C12.3878 23.0243 13.4131 24.2538 14.7893 24.5838C14.9323 28.4891 17.2788 31.8424 20.6224 33.4382V33.6398C20.6224 34.4917 20.2895 35.2921 19.6852 35.8937C18.6135 36.9605 17.2629 36.8267 17.4215 36.8267C13.0518 36.8267 9.51526 40.3564 9.51526 44.7187V49.2355C9.51526 49.6578 9.85824 50.0002 10.2813 50.0002C10.7043 50.0002 11.0473 49.6578 11.0473 49.2355V44.7187C11.0473 41.2019 13.8983 38.3558 17.4217 38.3559C17.7569 38.3559 18.0916 38.3204 18.4225 38.2497L19.4913 43.0918C19.6266 43.7049 20.4059 43.9019 20.8178 43.4286L22.3269 41.694L21.3944 49.1407C21.3419 49.5597 21.6398 49.9419 22.0595 49.9942C22.48 50.0465 22.8622 49.7488 22.9146 49.3304L23.9923 40.7243C24.041 40.7783 24.4668 41.2549 24.5214 41.303C24.8376 41.58 25.3192 41.5519 25.6003 41.2354C25.7518 41.0624 25.36 41.5119 26.0598 40.7086L27.1394 49.3303C27.1917 49.7487 27.5738 50.0465 27.9945 49.9942C28.4143 49.9418 28.7121 49.5596 28.6596 49.1406L27.7271 41.6939L29.2362 43.4285C29.6487 43.9027 30.4275 43.7038 30.5626 43.0917L31.6315 38.2495C31.956 38.3183 32.2906 38.3557 32.6322 38.3557C36.1553 38.3558 39.0065 41.2016 39.0065 44.7187V49.2355C39.0065 49.6578 39.3495 50.0002 39.7725 50.0002C40.1956 50.0002 40.5385 49.6578 40.5385 49.2355V44.7187C40.5385 40.3568 37.0024 36.8265 32.6321 36.8267ZM20.6597 41.278L19.8656 37.6806C20.1577 37.5045 20.4316 37.2949 20.6841 37.0552L22.5413 39.1151L20.6597 41.278Z" fill="black"/>
</svg>
