<svg width="259" height="250" viewBox="0 0 259 250" fill="none" xmlns="http://www.w3.org/2000/svg">
<circle cx="129.246" cy="124.528" r="117.925" fill="#D8E9CE"/>
<path d="M170.174 97.1072H163.42V83.5993C163.42 64.9583 148.291 49.8293 129.65 49.8293C111.009 49.8293 95.8801 64.9583 95.8801 83.5993V97.1072H89.1261C81.6967 97.1072 75.6182 103.186 75.6182 110.615V178.155C75.6182 185.584 81.6967 191.663 89.1261 191.663H170.174C177.603 191.663 183.682 185.584 183.682 178.155V110.615C183.682 103.186 177.603 97.1072 170.174 97.1072ZM109.388 83.5993C109.388 72.3876 118.438 63.3373 129.65 63.3373C140.862 63.3373 149.912 72.3876 149.912 83.5993V97.1072H109.388V83.5993ZM170.174 178.155H89.1261V110.615H170.174V178.155ZM129.65 157.893C137.079 157.893 143.158 151.814 143.158 144.385C143.158 136.956 137.079 130.877 129.65 130.877C122.221 130.877 116.142 136.956 116.142 144.385C116.142 151.814 122.221 157.893 129.65 157.893Z" fill="#6FBD44"/>
<circle cx="199.999" cy="79.2453" r="8.49057" fill="#6FBD44" fill-opacity="0.55"/>
<circle cx="227.358" cy="109.434" r="7.54717" fill="#6FBD44" fill-opacity="0.55"/>
<circle cx="103.774" cy="219.811" r="7.54717" fill="#6FBD44" fill-opacity="0.55"/>
<circle cx="7.54717" cy="116.038" r="7.54717" fill="#6FBD44" fill-opacity="0.55"/>
<circle cx="250.944" cy="80.1887" r="7.54717" fill="#6FBD44" fill-opacity="0.55"/>
<circle cx="31.1321" cy="86.7924" r="7.54717" fill="#6FBD44" fill-opacity="0.55"/>
<circle cx="224.528" cy="155.66" r="3.77359" fill="#6FBD44" fill-opacity="0.55"/>
<circle cx="228.302" cy="22.6415" r="22.6415" fill="#6FBD44" fill-opacity="0.55"/>
<circle cx="204.717" cy="227.358" r="22.6415" fill="#6FBD44" fill-opacity="0.55"/>
<circle cx="22.6415" cy="182.075" r="22.6415" fill="#6FBD44" fill-opacity="0.55"/>
</svg>
