<svg width="19" height="13" viewBox="0 0 19 13" fill="none" xmlns="http://www.w3.org/2000/svg">
<path d="M9.50001 1.91667C11.0323 1.91157 12.5349 2.33899 13.8351 3.14977C15.1353 3.96056 16.1803 5.1218 16.85 6.5C15.475 9.30833 12.6667 11.0833 9.50001 11.0833C6.33334 11.0833 3.52501 9.30833 2.15001 6.5C2.81969 5.1218 3.8647 3.96056 5.16491 3.14977C6.46512 2.33899 7.96773 1.91157 9.50001 1.91667ZM9.50001 0.25C5.33334 0.25 1.77501 2.84167 0.333344 6.5C1.77501 10.1583 5.33334 12.75 9.50001 12.75C13.6667 12.75 17.225 10.1583 18.6667 6.5C17.225 2.84167 13.6667 0.25 9.50001 0.25ZM9.50001 4.41667C10.0525 4.41667 10.5824 4.63616 10.9732 5.02686C11.3639 5.41756 11.5833 5.94747 11.5833 6.5C11.5833 7.05253 11.3639 7.58244 10.9732 7.97314C10.5824 8.36384 10.0525 8.58333 9.50001 8.58333C8.94748 8.58333 8.41757 8.36384 8.02687 7.97314C7.63617 7.58244 7.41668 7.05253 7.41668 6.5C7.41668 5.94747 7.63617 5.41756 8.02687 5.02686C8.41757 4.63616 8.94748 4.41667 9.50001 4.41667ZM9.50001 2.75C7.43334 2.75 5.75001 4.43333 5.75001 6.5C5.75001 8.56667 7.43334 10.25 9.50001 10.25C11.5667 10.25 13.25 8.56667 13.25 6.5C13.25 4.43333 11.5667 2.75 9.50001 2.75Z" fill="#3D3F40"/>
</svg>
