<svg width="45" height="45" viewBox="0 0 45 45" fill="none" xmlns="http://www.w3.org/2000/svg">
<path d="M7.6665 0H37.9998C39.8563 0 41.6368 0.737498 42.9496 2.05025C44.2623 3.36301 44.9998 5.14348 44.9998 7V37.3333C44.9998 39.1898 44.2623 40.9703 42.9496 42.2831C41.6368 43.5958 39.8563 44.3333 37.9998 44.3333H7.6665C5.80999 44.3333 4.02951 43.5958 2.71676 42.2831C1.404 40.9703 0.666504 39.1898 0.666504 37.3333V7C0.666504 5.14348 1.404 3.36301 2.71676 2.05025C4.02951 0.737498 5.80999 0 7.6665 0ZM7.6665 2.33333C6.42883 2.33333 5.24184 2.825 4.36667 3.70017C3.4915 4.57534 2.99984 5.76232 2.99984 7V34.034L13.0168 24.017L18.8502 29.8503L30.5168 18.1837L42.6665 30.3333V7C42.6665 5.76232 42.1748 4.57534 41.2997 3.70017C40.4245 2.825 39.2375 2.33333 37.9998 2.33333H7.6665ZM18.8502 33.1497L13.0168 27.3163L2.99984 37.3333C2.99984 38.571 3.4915 39.758 4.36667 40.6332C5.24184 41.5083 6.42883 42 7.6665 42H37.9998C39.2375 42 40.4245 41.5083 41.2997 40.6332C42.1748 39.758 42.6665 38.571 42.6665 37.3333V33.6327L30.5168 21.483L18.8502 33.1497ZM13.4998 7C15.0469 7 16.5307 7.61458 17.6246 8.70854C18.7186 9.80251 19.3332 11.2862 19.3332 12.8333C19.3332 14.3804 18.7186 15.8642 17.6246 16.9581C16.5307 18.0521 15.0469 18.6667 13.4998 18.6667C11.9527 18.6667 10.469 18.0521 9.37505 16.9581C8.28109 15.8642 7.6665 14.3804 7.6665 12.8333C7.6665 11.2862 8.28109 9.80251 9.37505 8.70854C10.469 7.61458 11.9527 7 13.4998 7ZM13.4998 9.33333C12.5716 9.33333 11.6813 9.70208 11.025 10.3585C10.3686 11.0148 9.99984 11.9051 9.99984 12.8333C9.99984 13.7616 10.3686 14.6518 11.025 15.3082C11.6813 15.9646 12.5716 16.3333 13.4998 16.3333C14.4281 16.3333 15.3183 15.9646 15.9747 15.3082C16.6311 14.6518 16.9998 13.7616 16.9998 12.8333C16.9998 11.9051 16.6311 11.0148 15.9747 10.3585C15.3183 9.70208 14.4281 9.33333 13.4998 9.33333Z" fill="#1253FA"/>
</svg>
