<svg width="100" height="100" viewBox="0 0 100 100" fill="none" xmlns="http://www.w3.org/2000/svg">
<circle cx="50" cy="50" r="50" fill="#FD6D5D" fill-opacity="0.3"/>
<path d="M32.5 35.4173H29.5833V73.334C29.5833 74.8811 30.1979 76.3648 31.2919 77.4588C32.3858 78.5527 33.8696 79.1673 35.4167 79.1673H64.5833C66.1304 79.1673 67.6142 78.5527 68.7081 77.4588C69.8021 76.3648 70.4167 74.8811 70.4167 73.334V35.4173H32.5ZM44.1667 70.4173H38.3333V44.1673H44.1667V70.4173ZM61.6667 70.4173H55.8333V44.1673H61.6667V70.4173ZM63.4692 26.6673L58.75 20.834H41.25L36.5308 26.6673H23.75V32.5007H76.25V26.6673H63.4692Z" fill="#FD6D5D"/>
</svg>
