<svg width="24" height="24" viewBox="0 0 24 24" fill="none" xmlns="http://www.w3.org/2000/svg">
<path d="M20.1417 13.7143V11.8671C20.6147 11.5686 21.0469 11.2099 21.4275 10.8V19.5C21.4275 20.2388 21.134 20.9473 20.6115 21.4698C20.0891 21.9922 19.3806 22.2857 18.6417 22.2857H5.35603C4.61721 22.2857 3.90865 21.9922 3.38623 21.4698C2.86381 20.9473 2.57031 20.2388 2.57031 19.5V6.21426C2.57031 5.47544 2.86381 4.76688 3.38623 4.24446C3.90865 3.72204 4.61721 3.42855 5.35603 3.42854H11.026C10.81 3.83739 10.639 4.26849 10.516 4.71426H5.35603C4.9582 4.71426 4.57667 4.87229 4.29537 5.1536C4.01406 5.4349 3.85603 5.81643 3.85603 6.21426V13.7143H8.99888C9.15423 13.7143 9.30432 13.7705 9.4214 13.8726C9.53847 13.9747 9.61461 14.1158 9.63574 14.2697L9.64174 14.3571C9.64174 14.9823 9.89008 15.5818 10.3321 16.0239C10.7742 16.4659 11.3737 16.7143 11.9989 16.7143C12.624 16.7143 13.2236 16.4659 13.6656 16.0239C14.1077 15.5818 14.356 14.9823 14.356 14.3571C14.356 14.2018 14.4123 14.0517 14.5144 13.9346C14.6165 13.8175 14.7576 13.7414 14.9115 13.7203L14.9989 13.7143H20.1417ZM3.85603 19.5C3.85603 20.328 4.52803 21 5.35603 21H18.6417C19.0396 21 19.4211 20.8419 19.7024 20.5606C19.9837 20.2793 20.1417 19.8978 20.1417 19.5V15H15.5852C15.4397 15.8101 15.0243 16.5471 14.4066 17.0911C13.7888 17.635 13.0052 17.9539 12.1832 17.9957L11.9989 18C11.1749 17.9998 10.3753 17.7203 9.73051 17.2072C9.08574 16.6942 8.63386 15.9777 8.4486 15.1748L8.4126 15H3.85603V19.5ZM16.7132 12C18.1908 12 19.6079 11.413 20.6528 10.3681C21.6976 9.32329 22.2846 7.90618 22.2846 6.42854C22.2846 4.95091 21.6976 3.5338 20.6528 2.48895C19.6079 1.4441 18.1908 0.857117 16.7132 0.857117C15.2355 0.857117 13.8184 1.4441 12.7736 2.48895C11.7287 3.5338 11.1417 4.95091 11.1417 6.42854C11.1417 7.90618 11.7287 9.32329 12.7736 10.3681C13.8184 11.413 15.2355 12 16.7132 12ZM20.0166 4.58912L15.7309 8.87483C15.6911 8.91474 15.6438 8.94641 15.5917 8.96801C15.5396 8.98962 15.4838 9.00074 15.4275 9.00074C15.3711 9.00074 15.3153 8.98962 15.2632 8.96801C15.2111 8.94641 15.1638 8.91474 15.124 8.87483L13.4097 7.16054C13.3293 7.08007 13.2841 6.97092 13.2841 6.85712C13.2841 6.74331 13.3293 6.63416 13.4097 6.55369C13.4902 6.47321 13.5994 6.428 13.7132 6.428C13.827 6.428 13.9361 6.47321 14.0166 6.55369L15.4275 7.9654L19.4097 3.98226C19.4902 3.90179 19.5994 3.85658 19.7132 3.85658C19.827 3.85658 19.9361 3.90179 20.0166 3.98226C20.0971 4.06273 20.1423 4.17188 20.1423 4.28569C20.1423 4.3995 20.0971 4.50864 20.0166 4.58912Z" fill="#6FBD44"/>
</svg>
