<svg width="100" height="100" viewBox="0 0 100 100" fill="none" xmlns="http://www.w3.org/2000/svg">
<circle cx="50" cy="50" r="50" fill="#FD6D5D" fill-opacity="0.3"/>
<path fill-rule="evenodd" clip-rule="evenodd" d="M50.0002 13.334C29.7502 13.334 13.3335 29.7507 13.3335 50.0006C13.3335 70.2506 29.7502 86.6673 50.0002 86.6673C70.2502 86.6673 86.6668 70.2506 86.6668 50.0006C86.6668 29.7507 70.2502 13.334 50.0002 13.334ZM62.3568 42.3573C62.964 41.7286 63.3 40.8866 63.2924 40.0126C63.2848 39.1387 62.9342 38.3026 62.3162 37.6846C61.6982 37.0666 60.8622 36.716 59.9882 36.7084C59.1142 36.7008 58.2722 37.0368 57.6435 37.644L50.0002 45.2873L42.3568 37.644C42.0493 37.3256 41.6815 37.0717 41.2748 36.897C40.8682 36.7223 40.4308 36.6303 39.9882 36.6265C39.5456 36.6226 39.1066 36.707 38.697 36.8746C38.2873 37.0422 37.9152 37.2897 37.6022 37.6027C37.2892 37.9156 37.0417 38.2878 36.8741 38.6975C36.7065 39.1071 36.6221 39.5461 36.626 39.9887C36.6298 40.4312 36.7218 40.8687 36.8965 41.2753C37.0712 41.682 37.3251 42.0498 37.6435 42.3573L45.2868 50.0006L37.6435 57.644C37.3251 57.9515 37.0712 58.3193 36.8965 58.726C36.7218 59.1326 36.6298 59.57 36.626 60.0126C36.6221 60.4552 36.7065 60.8942 36.8741 61.3038C37.0417 61.7135 37.2892 62.0857 37.6022 62.3986C37.9152 62.7116 38.2873 62.9591 38.697 63.1267C39.1066 63.2943 39.5456 63.3787 39.9882 63.3748C40.4308 63.371 40.8682 63.279 41.2748 63.1043C41.6815 62.9296 42.0493 62.6757 42.3568 62.3573L50.0002 54.714L57.6435 62.3573C58.2722 62.9645 59.1142 63.3005 59.9882 63.2929C60.8622 63.2853 61.6982 62.9347 62.3162 62.3167C62.9342 61.6987 63.2848 60.8626 63.2924 59.9887C63.3 59.1147 62.964 58.2727 62.3568 57.644L54.7135 50.0006L62.3568 42.3573Z" fill="#FD6D5D"/>
</svg>
