<svg width="24" height="24" viewBox="0 0 24 24" fill="none" xmlns="http://www.w3.org/2000/svg">
<path fill-rule="evenodd" clip-rule="evenodd" d="M8.17114 2.063C9.29082 2.01145 9.64782 2 12.5 2C15.3522 2 15.7092 2.01241 16.8279 2.063C17.9466 2.11359 18.7103 2.29209 19.3785 2.55077C20.0781 2.81518 20.7129 3.2285 21.2379 3.76305C21.7725 4.28709 22.1848 4.92091 22.4483 5.62155C22.7079 6.28973 22.8855 7.05336 22.937 8.17018C22.9885 9.29177 23 9.64877 23 12.5C23 15.3522 22.9876 15.7092 22.937 16.8289C22.8864 17.9457 22.7079 18.7093 22.4483 19.3775C22.1848 20.0782 21.7718 20.7131 21.2379 21.2379C20.7129 21.7725 20.0781 22.1848 19.3785 22.4483C18.7103 22.7079 17.9466 22.8855 16.8298 22.937C15.7092 22.9885 15.3522 23 12.5 23C9.64782 23 9.29082 22.9876 8.17114 22.937C7.05432 22.8864 6.29068 22.7079 5.6225 22.4483C4.92179 22.1848 4.28692 21.7717 3.76209 21.2379C3.22791 20.7135 2.81453 20.079 2.55077 19.3785C2.29209 18.7103 2.11455 17.9466 2.063 16.8298C2.01145 15.7082 2 15.3512 2 12.5C2 9.64782 2.01241 9.29082 2.063 8.17209C2.11359 7.05336 2.29209 6.28973 2.55077 5.62155C2.81492 4.92099 3.22861 4.28644 3.76305 3.76209C4.28713 3.22802 4.92136 2.81465 5.62155 2.55077C6.28973 2.29209 7.05336 2.11455 8.17018 2.063H8.17114ZM16.743 3.953C15.6357 3.90241 15.3035 3.89191 12.5 3.89191C9.6965 3.89191 9.36432 3.90241 8.25705 3.953C7.23282 3.99977 6.67727 4.17064 6.30691 4.31477C5.81723 4.50568 5.46691 4.73191 5.09941 5.09941C4.75104 5.43832 4.48294 5.85091 4.31477 6.30691C4.17064 6.67727 3.99977 7.23282 3.953 8.25705C3.90241 9.36432 3.89191 9.6965 3.89191 12.5C3.89191 15.3035 3.90241 15.6357 3.953 16.743C3.99977 17.7672 4.17064 18.3227 4.31477 18.6931C4.48277 19.1484 4.751 19.5617 5.09941 19.9006C5.43827 20.249 5.85159 20.5172 6.30691 20.6852C6.67727 20.8294 7.23282 21.0002 8.25705 21.047C9.36432 21.0976 9.69555 21.1081 12.5 21.1081C15.3045 21.1081 15.6357 21.0976 16.743 21.047C17.7672 21.0002 18.3227 20.8294 18.6931 20.6852C19.1828 20.4943 19.5331 20.2681 19.9006 19.9006C20.249 19.5617 20.5172 19.1484 20.6852 18.6931C20.8294 18.3227 21.0002 17.7672 21.047 16.743C21.0976 15.6357 21.1081 15.3035 21.1081 12.5C21.1081 9.6965 21.0976 9.36432 21.047 8.25705C21.0002 7.23282 20.8294 6.67727 20.6852 6.30691C20.4943 5.81723 20.2681 5.46691 19.9006 5.09941C19.5617 4.75107 19.1491 4.48297 18.6931 4.31477C18.3227 4.17064 17.7672 3.99977 16.743 3.953ZM11.1589 15.7369C11.9079 16.0486 12.7419 16.0907 13.5184 15.8559C14.295 15.6211 14.966 15.124 15.4167 14.4494C15.8675 13.7749 16.0701 12.9647 15.9899 12.1574C15.9097 11.3501 15.5517 10.5957 14.977 10.023C14.6107 9.65686 14.1678 9.37655 13.6801 9.20219C13.1925 9.02782 12.6722 8.96375 12.1568 9.01459C11.6414 9.06542 11.1437 9.2299 10.6995 9.49617C10.2553 9.76244 9.87571 10.1239 9.58797 10.5545C9.30023 10.9851 9.11154 11.4741 9.03549 11.9864C8.95944 12.4987 8.99792 13.0215 9.14815 13.5171C9.29839 14.0127 9.55664 14.4689 9.90432 14.8527C10.252 15.2365 10.6805 15.5385 11.1589 15.7369ZM8.68373 8.68373C9.18489 8.18257 9.77985 7.78503 10.4346 7.5138C11.0894 7.24257 11.7913 7.10297 12.5 7.10297C13.2087 7.10297 13.9106 7.24257 14.5654 7.5138C15.2201 7.78503 15.8151 8.18257 16.3163 8.68373C16.8174 9.18489 17.215 9.77985 17.4862 10.4346C17.7574 11.0894 17.897 11.7913 17.897 12.5C17.897 13.2087 17.7574 13.9106 17.4862 14.5654C17.215 15.2201 16.8174 15.8151 16.3163 16.3163C15.3041 17.3284 13.9314 17.897 12.5 17.897C11.0686 17.897 9.69587 17.3284 8.68373 16.3163C7.67159 15.3041 7.10298 13.9314 7.10298 12.5C7.10298 11.0686 7.67159 9.69587 8.68373 8.68373ZM19.094 7.90673C19.2182 7.78958 19.3176 7.6487 19.3864 7.49243C19.4551 7.33616 19.4919 7.16769 19.4944 6.99698C19.4968 6.82627 19.4651 6.6568 19.4009 6.49859C19.3367 6.34039 19.2414 6.19667 19.1207 6.07595C19 5.95522 18.8562 5.85995 18.698 5.79577C18.5398 5.73158 18.3704 5.6998 18.1997 5.70228C18.0289 5.70477 17.8605 5.74149 17.7042 5.81026C17.5479 5.87902 17.4071 5.97845 17.2899 6.10264C17.0621 6.34416 16.9373 6.66498 16.9422 6.99698C16.947 7.32898 17.081 7.64602 17.3158 7.8808C17.5506 8.11559 17.8677 8.24963 18.1997 8.25447C18.5317 8.25931 18.8525 8.13457 19.094 7.90673Z" fill="white"/>
</svg>
