<svg width="50" height="50" viewBox="0 0 50 50" fill="none" xmlns="http://www.w3.org/2000/svg">
<circle cx="25" cy="25" r="25" fill="#027ABF"/>
<circle cx="25.0449" cy="32.4058" r="17.5943" fill="#098BD6"/>
<path d="M39.7688 42.6447V46.4035C39.7688 46.8267 39.426 47.1695 39.0028 47.1695H11.0464C10.6233 47.1695 10.2805 46.8267 10.2805 46.4035V42.6447C10.2805 38.7012 13.4773 35.5063 17.4218 35.5053C18.8158 35.5044 20.0432 34.7873 20.7498 33.6996C21.4596 32.6088 21.3865 31.6602 21.3865 30.8935L21.4008 30.8581C17.9637 29.4353 15.5463 26.049 15.5463 22.0977V21.7981C14.1815 21.7981 13.1528 20.7196 13.1528 19.4486V15.4696C13.1221 14.0842 13.1853 9.19855 16.7143 5.79687C20.8178 1.84181 27.3205 2.16541 32.031 4.28129C32.1842 4.35022 32.1794 4.56947 32.0243 4.63362L30.7959 5.13913C30.6121 5.21477 30.6514 5.48571 30.8486 5.50678L31.445 5.57092C34.6543 5.91368 37.3245 7.82946 38.6563 10.0995C38.6687 10.1215 38.6649 10.1502 38.6467 10.1694C37.5859 11.2512 36.9923 12.7075 36.9923 14.224V19.3098C36.9923 20.6817 35.8807 21.7981 34.503 21.7981V22.0977C34.503 26.049 32.0856 29.4353 28.6484 30.8581L28.6628 30.8935C28.6628 31.6384 28.5837 32.5997 29.2995 33.6996C30.0061 34.7873 31.2335 35.5044 32.6274 35.5053C36.572 35.5063 39.7688 38.7012 39.7688 42.6447Z" fill="#FFD6A6"/>
<path d="M38.6561 10.0993C38.6688 10.1211 38.665 10.1502 38.6464 10.1691C37.5863 11.2514 36.9925 12.7078 36.9925 14.2239V19.3097C36.9925 20.6816 35.8812 21.798 34.5032 21.798C34.5032 18.9008 34.5049 17.3868 34.5043 16.573C34.5039 16.0591 34.0075 15.6898 33.5164 15.8409C31.9729 16.3158 30.1724 16.5605 28.2802 16.1493C24.9503 15.4255 24.0072 14.1205 21.2911 13.4685C18.2561 12.7409 15.5035 15.0655 15.5227 18.0392C15.5284 19.0167 15.5447 20.2384 15.5466 21.798C14.1818 21.798 13.1531 20.7195 13.1531 19.4485V15.4695C13.1224 14.0842 13.1856 9.1985 16.7146 5.79682C20.8177 1.84166 27.3211 2.16545 32.0308 4.28152C32.1841 4.35036 32.18 4.5697 32.0246 4.63366L30.7961 5.13936C30.6125 5.215 30.6512 5.48566 30.8486 5.50682L31.4453 5.57087C34.6548 5.914 37.3248 7.82911 38.6561 10.0993Z" fill="#42434D"/>
<path d="M33.5162 15.8413C34.0072 15.6902 34.5037 16.0591 34.504 16.5729C34.5047 17.4149 34.503 19.0057 34.503 22.0981C34.503 26.0493 32.0855 29.4357 28.6484 30.8584C22.4332 33.4383 15.5463 28.8551 15.5463 22.0981C15.5463 20.3507 15.5286 19.1093 15.5223 18.0396C15.5032 15.0659 18.2557 12.7413 21.2907 13.469C24.0069 14.121 24.9499 15.4259 28.2798 16.1497C30.1721 16.5609 31.9727 16.3162 33.5162 15.8413Z" fill="#FFDFBA"/>
<path d="M39.7688 42.6448V46.4036C39.7688 46.8266 39.4258 47.1695 39.0028 47.1695H11.0464C10.6235 47.1695 10.2805 46.8266 10.2805 46.4036V42.6448C10.2805 38.7012 13.4778 35.5068 17.4214 35.5054C18.8157 35.5049 20.0434 34.7869 20.7498 33.6997C23.2155 35.8062 26.8323 35.8074 29.2995 33.6997C30.0058 34.7869 31.2336 35.5049 32.6279 35.5054C36.5715 35.5068 39.7688 38.7012 39.7688 42.6448Z" fill="#6FBD44"/>
<path d="M21.2794 37.8182C20.9254 37.9296 20.5457 37.9909 20.1386 37.9945C16.1849 38.0293 12.9613 41.1555 12.9613 45.1095V45.8291C12.9613 46.5694 12.3612 47.1695 11.6209 47.1695H11.0464C10.6235 47.1695 10.2805 46.8266 10.2805 46.4036V42.6448C10.2805 38.7011 13.4778 35.5068 17.4214 35.5054C18.8157 35.5049 20.0434 34.7869 20.7498 33.6997C21.0345 33.9429 21.3394 34.1615 21.6605 34.3529C23.073 35.1945 22.8479 37.325 21.2794 37.8182Z" fill="#66B53A"/>
<path d="M28.77 37.8182C29.1241 37.9296 29.5038 37.9909 29.9109 37.9945C33.8646 38.0293 37.0882 41.1555 37.0882 45.1095V45.8291C37.0882 46.5694 37.6883 47.1695 38.4286 47.1695H39.003C39.426 47.1695 39.7689 46.8266 39.7689 46.4036V42.6448C39.7689 38.7011 36.5717 35.5068 32.6281 35.5054C31.2337 35.5049 30.006 34.7869 29.2996 33.6997C29.0149 33.9429 28.7101 34.1615 28.389 34.3529C26.9766 35.1945 27.2017 37.325 28.77 37.8182Z" fill="#66B53A"/>
<path d="M28.7711 32.4659C26.4124 33.4533 23.8202 33.5299 21.2784 32.4659C21.4083 31.9273 21.3866 31.5784 21.3866 30.8938L21.401 30.8584C23.7066 31.8154 26.3385 31.8173 28.6486 30.8584L28.663 30.8938C28.663 31.5787 28.6414 31.9274 28.7711 32.4659Z" fill="#F7C388"/>
<path d="M32.0244 4.63362C31.1217 5.00481 30.9219 5.13559 30.5073 5.06733C22.9106 3.81676 16.9287 7.78886 16.1103 15.5509C16.0959 15.6871 16.061 15.8209 16.0005 15.9438C15.418 17.1298 15.5216 18.0076 15.5339 19.4669C15.5468 21.0021 13.2333 21.1004 13.1558 19.5671C13.1509 19.4714 13.1528 19.7238 13.1528 15.4696C13.1222 14.0842 13.1854 9.19855 16.7144 5.79687C20.8179 1.84181 27.3206 2.16541 32.031 4.28129C32.1842 4.35022 32.1795 4.56947 32.0244 4.63362Z" fill="#4D4E59"/>
<path d="M22.8799 28.2194C24.4377 29.1936 23.2083 31.5841 21.5031 30.8999C18.0012 29.4945 15.5465 26.0803 15.5465 22.0979C15.5465 20.3484 15.5289 19.1133 15.5226 18.0395C15.5165 17.0781 15.7998 16.1848 16.2887 15.4405C16.9031 14.505 18.3866 14.9127 18.3948 16.1246C18.4011 17.2021 18.4187 18.4318 18.4187 20.1831C18.4186 23.6774 20.2557 26.5783 22.8799 28.2194Z" fill="#FFEBD2"/>
<path d="M40.5352 42.6452V47.1696C40.5352 47.5926 40.1922 47.9356 39.7692 47.9356C39.3462 47.9356 39.0033 47.5926 39.0033 47.1696V42.6452C39.0033 39.1224 36.1526 36.2716 32.6295 36.2716C30.9626 36.2716 29.4501 35.4224 28.5837 33.9998C28.3636 33.6386 28.4781 33.1673 28.8394 32.9473C29.2005 32.727 29.6718 32.8416 29.8919 33.203C30.478 34.1653 31.5015 34.7398 32.6295 34.7398C36.999 34.7396 40.5352 38.2755 40.5352 42.6452ZM26.2578 34.3822C24.6544 34.7316 23.027 34.377 21.7359 33.4905C21.9574 33.0005 22.0934 32.4733 22.1366 31.927C28.7018 33.8595 35.2694 28.9044 35.2694 22.0979C35.2694 15.6019 35.2773 15.7053 35.251 15.4389C35.1502 14.3832 33.6248 14.5268 33.7265 15.5892C33.7437 15.7628 33.7375 15.9148 33.7375 22.0978C33.7375 26.9019 29.8292 30.8103 25.0251 30.8103C20.221 30.8103 16.3127 26.9019 16.3127 22.0978C16.3127 20.3724 16.2943 19.0362 16.2882 18.0343C16.2727 15.5206 18.5972 13.6106 21.1126 14.2136C24.6602 15.0642 26.09 17.277 30.6372 17.0652C31.0597 17.0454 31.3861 16.6868 31.3663 16.2642C31.3465 15.8417 30.9901 15.5174 30.5653 15.5351C26.4661 15.7278 25.3298 13.6497 21.4698 12.724C17.9799 11.8869 14.735 14.5421 14.7564 18.0438C14.7616 18.8581 14.7723 19.7501 14.7776 20.8486C14.2677 20.5827 13.919 20.0554 13.919 19.4488C13.919 19.4312 13.9191 15.4703 13.9188 15.4529C13.8805 13.7168 14.1278 9.3546 17.2462 6.34852C20.7303 2.99011 26.1816 2.98887 30.42 4.46625L29.8077 4.71824C29.0768 5.01896 29.2296 6.10361 30.0177 6.18806L31.364 6.33224C33.9552 6.6097 36.2466 7.96089 37.7147 10.0605C36.7512 11.2313 36.2267 12.6887 36.2267 14.2241V19.4487C36.2267 19.8717 36.5697 20.2146 36.9926 20.2146C37.4156 20.2146 37.7586 19.8717 37.7586 19.4487V14.2241C37.7586 12.893 38.2726 11.6384 39.206 10.6916C39.4658 10.4283 39.4977 10.0034 39.3165 9.71094C37.7894 7.26198 35.5171 5.68513 32.9237 5.05266C33.3433 4.69478 33.2607 4.02986 32.7751 3.78428C30.5485 2.65961 27.3722 1.87013 24.3495 1.98646C16.7024 2.28287 12.226 7.99383 12.3874 15.4783V19.4489C12.3874 20.9142 13.4126 22.1456 14.7887 22.4763C14.9314 26.3884 17.2778 29.7475 20.6211 31.3461V31.5477C20.6211 33.3135 19.1903 34.7399 17.4208 34.7399C13.0422 34.7399 9.51514 38.2843 9.51514 42.6453V47.1697C9.51514 47.5927 9.85808 47.9357 10.2811 47.9357C10.704 47.9357 11.047 47.5927 11.047 47.1697V42.6453C11.047 39.1227 13.8977 36.2717 17.4208 36.2717C18.725 36.2717 19.9671 35.749 20.8858 34.7644C22.5187 35.8789 24.5689 36.3182 26.584 35.879C26.9973 35.789 27.2593 35.3809 27.1692 34.9675C27.0791 34.5541 26.6708 34.2918 26.2578 34.3822ZM32.7801 44.0102H30.4823C30.0594 44.0102 29.7164 44.3531 29.7164 44.7761C29.7164 45.1991 30.0594 45.542 30.4823 45.542H32.7801C33.2031 45.542 33.5461 45.1991 33.5461 44.7761C33.5461 44.3531 33.2031 44.0102 32.7801 44.0102Z" fill="black"/>
</svg>
