<svg width="50" height="50" viewBox="0 0 50 50" fill="none" xmlns="http://www.w3.org/2000/svg">
<circle cx="25" cy="25" r="25" fill="#027ABF"/>
<circle cx="24.7757" cy="32.4058" r="17.5943" fill="#098BD6"/>
<path d="M26.949 18.2241L31.6194 19.7612C33.1072 20.2509 34.1127 21.6403 34.1127 23.2065V28.2895H25.0448H15.9769V23.2065C15.9769 21.6402 16.9824 20.2509 18.4702 19.7612L23.1406 18.2241H26.949Z" fill="#9BD069"/>
<path d="M17.9718 27.1107V24.209C17.9718 22.9355 17.5838 21.7512 16.9197 20.7676C16.3271 21.4201 15.9769 22.2825 15.9769 23.2066V28.2896H17.8575C17.9318 27.9077 17.9718 27.5139 17.9718 27.1107Z" fill="#7DBE3B"/>
<path d="M32.1177 27.1107V24.209C32.1177 22.9355 32.5057 21.7512 33.1697 20.7676C33.7624 21.4201 34.1126 22.2825 34.1126 23.2066V28.2896H32.2319C32.1577 27.9077 32.1177 27.5139 32.1177 27.1107Z" fill="#7DBE3B"/>
<path d="M25.0447 28.2895H31.2109V27.8361C31.2109 24.4361 28.4447 21.6699 25.0447 21.6699C21.6447 21.6699 18.8785 24.4361 18.8785 27.8361V28.2895H25.0447Z" fill="#7DBE3B"/>
<path d="M25.0447 20.1281C23.993 20.1281 23.1405 19.2755 23.1405 18.2239V15.8662H26.949V18.2238C26.9489 19.2755 26.0964 20.1281 25.0447 20.1281Z" fill="#AA7A63"/>
<path d="M29.3972 9.06549C29.3972 6.66163 27.4485 4.71289 25.0446 4.71289C22.6408 4.71289 20.692 6.66163 20.692 9.06549V11.9672C20.692 14.3711 22.6408 16.3198 25.0446 16.3198C27.4485 16.3198 29.3972 14.3711 29.3972 11.9672V9.06549Z" fill="#B78B7A"/>
<path d="M25.0447 4.71289C24.7014 4.71289 24.3677 4.75391 24.0472 4.82905C25.9701 5.28013 27.4024 7.00499 27.4024 9.0654V11.9671C27.4024 14.0276 25.9701 15.7524 24.0472 16.2035C24.3677 16.2786 24.7013 16.3196 25.0447 16.3196C27.4486 16.3196 29.3973 14.3709 29.3973 11.967V9.06549C29.3973 6.66163 27.4486 4.71289 25.0447 4.71289Z" fill="#AA7A63"/>
<path d="M40.1886 33.3672L44.859 34.9043C46.3468 35.3939 47.3522 36.7833 47.3522 38.3496V43.4325H38.2844H29.2164V38.3496C29.2164 36.7833 30.2219 35.3939 31.7097 34.9043L36.3801 33.3672H40.1886Z" fill="#CBE2FF"/>
<path d="M35.9268 41.9765C35.9268 39.6216 34.4238 37.5448 32.1869 36.8085L30.0061 36.0908C29.507 36.718 29.2166 37.5081 29.2166 38.3494V43.4324H35.9268V41.9765Z" fill="#BED8FB"/>
<path d="M44.8591 34.9044L44.632 34.8296V43.4326H47.3523V38.3497C47.3523 36.7834 46.3469 35.394 44.8591 34.9044Z" fill="#BED8FB"/>
<path d="M38.2845 35.2716C37.2328 35.2716 36.3802 34.419 36.3802 33.3674V31.0098H40.1888V33.3674C40.1887 34.419 39.3362 35.2716 38.2845 35.2716Z" fill="#F1B986"/>
<path d="M42.637 24.2086C42.637 21.8047 40.6882 19.856 38.2844 19.856C35.8805 19.856 33.9318 21.8047 33.9318 24.2086V27.1103C33.9318 29.5141 35.8805 31.4629 38.2844 31.4629C40.6882 31.4629 42.637 29.5141 42.637 27.1103V24.2086Z" fill="#F1D0A5"/>
<path d="M38.2844 19.856C37.941 19.856 37.6073 19.897 37.2869 19.9721C39.2098 20.4232 40.642 22.1481 40.642 24.2085V27.1102C40.642 29.1707 39.2098 30.8955 37.2869 31.3465C37.6073 31.4217 37.9409 31.4627 38.2844 31.4627C40.6882 31.4627 42.637 29.5139 42.637 27.1101V24.2084C42.637 21.8047 40.6882 19.856 38.2844 19.856Z" fill="#F1B986"/>
<path d="M13.7101 33.3672L18.3805 34.9043C19.8683 35.3939 20.8737 36.7833 20.8737 38.3496V43.4325H11.8058H2.73792V38.3496C2.73792 36.7833 3.7433 35.3939 5.23118 34.9043L9.90156 33.3672H13.7101Z" fill="#FFE07D"/>
<path d="M18.3803 34.9043L18.1533 34.8296V36.4634C18.1533 36.6204 18.0525 36.7597 17.9034 36.8088C15.6716 37.5432 14.1635 39.6273 14.1635 41.9769V43.4326H20.8737V38.3497C20.8737 36.7834 19.8682 35.394 18.3803 34.9043Z" fill="#FFD064"/>
<path d="M11.8057 35.2716C10.754 35.2716 9.90149 34.419 9.90149 33.3674V31.0098H13.71V33.3674C13.71 34.419 12.8574 35.2716 11.8057 35.2716Z" fill="#F1B986"/>
<path d="M16.1583 24.2086C16.1583 21.8047 14.2096 19.856 11.8057 19.856C9.40187 19.856 7.45312 21.8047 7.45312 24.2086V27.1103C7.45312 29.5141 9.40187 31.4629 11.8057 31.4629C14.2096 31.4629 16.1583 29.5141 16.1583 27.1103V24.2086Z" fill="#F1D0A5"/>
<path d="M11.8057 19.856C11.4624 19.856 11.1287 19.897 10.8082 19.9721C12.7311 20.4232 14.1633 22.1481 14.1633 24.2085V27.1102C14.1633 29.1707 12.7311 30.8955 10.8082 31.3465C11.1287 31.4217 11.4623 31.4627 11.8057 31.4627C14.2096 31.4627 16.1583 29.5139 16.1583 27.1101V24.2084C16.1583 21.8047 14.2096 19.856 11.8057 19.856Z" fill="#F1B986"/>
<path d="M26.949 36.9946L31.6194 38.5317C33.1072 39.0214 34.1127 40.4108 34.1127 41.977V49.3269H25.0448H15.9769V41.977C15.9769 40.4107 16.9824 39.0214 18.4702 38.5317L23.1406 36.9946H26.949Z" fill="#027ABF"/>
<path d="M31.6196 38.5318L31.3925 38.457V49.3271H34.1128V41.9771C34.1127 40.4109 33.1074 39.0215 31.6196 38.5318Z" fill="#0171B0"/>
<path d="M25.0447 38.8991C23.993 38.8991 23.1405 38.0465 23.1405 36.9948V34.6372H26.949V36.9948C26.9489 38.0465 26.0964 38.8991 25.0447 38.8991Z" fill="#AA7A63"/>
<path d="M29.3972 27.836C29.3972 25.4321 27.4485 23.4834 25.0446 23.4834C22.6408 23.4834 20.692 25.4321 20.692 27.836V30.7377C20.692 33.1416 22.6408 35.0903 25.0446 35.0903C27.4485 35.0903 29.3972 33.1416 29.3972 30.7377V27.836Z" fill="#B78B7A"/>
<path d="M25.0447 23.4834C24.7014 23.4834 24.3677 23.5244 24.0472 23.5996C25.9701 24.0506 27.4024 25.7755 27.4024 27.8359V30.7376C27.4024 32.7981 25.9701 34.5229 24.0472 34.974C24.3677 35.0491 24.7013 35.0901 25.0447 35.0901C27.4486 35.0901 29.3973 33.1414 29.3973 30.7375V27.8358C29.3973 25.4321 27.4486 23.4834 25.0447 23.4834Z" fill="#AA7A63"/>
<path d="M47.352 40.0552C47.7239 40.0552 48.0252 39.7537 48.0252 39.3819V38.3501C48.0252 36.4889 46.8376 34.8471 45.0695 34.2645L40.8616 32.8799V31.423C42.3268 30.5439 43.3098 28.9401 43.3098 27.1106V24.2089C43.3098 21.4376 41.0553 19.183 38.284 19.183C36.6517 19.183 35.1992 19.9658 34.2805 21.175C33.772 20.2207 32.9096 19.4764 31.83 19.1219L27.6224 17.7366V16.2797C29.0877 15.4006 30.0707 13.7967 30.0707 11.9672V9.0654C30.0708 6.29413 27.8162 4.03955 25.0449 4.03955C22.2737 4.03955 20.0191 6.29413 20.0191 9.0654V11.9671C20.0191 13.7966 21.0021 15.4005 22.4674 16.2796V17.7365L18.2603 19.1217C17.1804 19.4764 16.3179 20.2207 15.8094 21.175C14.8907 19.9657 13.4382 19.183 11.8059 19.183C9.03463 19.183 6.78005 21.4376 6.78005 24.2089V27.1106C6.78005 28.9401 7.76308 30.5439 9.22834 31.423V32.8799L5.01999 34.2646C3.25231 34.8471 2.0647 36.4889 2.0647 38.3501V39.3819C2.0647 39.7537 2.36604 40.0552 2.73795 40.0552C3.10985 40.0552 3.4112 39.7537 3.4112 39.3819V38.3501C3.4112 37.0715 4.22708 35.9436 5.44109 35.5435L9.38283 34.2465C9.74306 35.2361 10.6932 35.9448 11.8058 35.9448C12.9184 35.9448 13.8685 35.236 14.2287 34.2465L18.1699 35.5433C19.0338 35.8281 19.7032 36.4839 20.0128 37.315L18.2598 37.892C16.4917 38.4738 15.3037 40.1155 15.3037 41.9768V42.7593H7.21972V41.0748C7.21972 40.703 6.91838 40.4016 6.54647 40.4016C6.17457 40.4016 5.87322 40.703 5.87322 41.0748V42.7593H3.4112V42.5268C3.4112 42.155 3.10985 41.8536 2.73795 41.8536C2.36604 41.8536 2.0647 42.155 2.0647 42.5268V43.4325C2.0647 43.8044 2.36604 44.1058 2.73795 44.1058H15.3037V49.3266C15.3037 49.6984 15.6051 49.9999 15.977 49.9999H34.1128C34.4847 49.9999 34.7861 49.6984 34.7861 49.3266V48.4273C34.7861 48.0555 34.4847 47.7541 34.1128 47.7541C33.7409 47.7541 33.4396 48.0555 33.4396 48.4273V48.6536H30.9776V44.7022C30.9776 44.3304 30.6763 44.029 30.3044 44.029C29.9325 44.029 29.6311 44.3304 29.6311 44.7022V48.6536H20.4588V44.7022C20.4588 44.3304 20.1574 44.029 19.7855 44.029C19.4136 44.029 19.1123 44.3304 19.1123 44.7022V48.6536H16.6502V41.977C16.6502 40.6984 17.4662 39.5708 18.6808 39.1712L22.6221 37.874C22.9824 38.8635 23.9324 39.5721 25.0449 39.5721C26.1575 39.5721 27.1075 38.8636 27.4678 37.874L31.4091 39.1712C32.6237 39.5709 33.4397 40.6984 33.4397 41.977V45.2842C33.4397 45.656 33.741 45.9574 34.1129 45.9574C34.4848 45.9574 34.7862 45.656 34.7862 45.2842V44.106H47.352C47.7239 44.106 48.0252 43.8045 48.0252 43.4327V42.527C48.0252 42.1552 47.7239 41.8537 47.352 41.8537C46.98 41.8537 46.6787 42.1552 46.6787 42.527V42.7595H44.2167V41.075C44.2167 40.7032 43.9153 40.4018 43.5434 40.4018C43.1715 40.4018 42.8702 40.7032 42.8702 41.075V42.7595H34.7861V41.977C34.7861 40.1156 33.5981 38.474 31.83 37.8922L30.077 37.3152C30.3866 36.4842 31.0559 35.8283 31.9195 35.5436L35.8611 34.2466C36.2213 35.2362 37.1714 35.9449 38.284 35.9449C39.3967 35.9449 40.3467 35.2362 40.707 34.2466L44.6484 35.5436C45.8628 35.9436 46.6787 37.0715 46.6787 38.3501V39.3819C46.6787 39.7537 46.98 40.0552 47.352 40.0552ZM38.284 20.5294C40.3128 20.5294 41.9634 22.1799 41.9634 24.2088V27.1105C41.9634 29.1393 40.3127 30.7898 38.284 30.7898C36.2553 30.7898 34.6047 29.1393 34.6047 27.1105V24.2088C34.6047 22.1799 36.2553 20.5294 38.284 20.5294ZM21.3656 11.9671V9.0654C21.3656 7.03659 23.0161 5.38605 25.0449 5.38605C27.0738 5.38605 28.7243 7.03659 28.7243 9.0654V11.9671C28.7243 13.9959 27.0737 15.6465 25.0449 15.6465C23.0162 15.6465 21.3656 13.9959 21.3656 11.9671ZM25.0449 16.993C25.4695 16.993 25.8818 16.9396 26.276 16.8399V18.2059C26.2758 18.2123 26.2759 18.2185 26.276 18.2248C26.2755 18.9032 25.7235 19.4549 25.045 19.4549C24.3666 19.4549 23.8145 18.9032 23.8141 18.2248C23.8141 18.2185 23.8142 18.2122 23.8141 18.2059V16.8399C24.2081 16.9395 24.6204 16.993 25.0449 16.993ZM18.6809 20.4008L22.622 19.1032C22.9822 20.0928 23.9323 20.8014 25.0449 20.8014C26.1574 20.8014 27.1075 20.0928 27.4677 19.1032L31.4092 20.4009C32.5346 20.7705 33.3151 21.7561 33.4241 22.9277C33.3161 23.3369 33.2581 23.7661 33.2581 24.2088V27.1105C33.2581 27.281 33.2668 27.4496 33.2835 27.6159H30.0651C29.9494 24.9464 27.7423 22.81 25.0448 22.81C22.3473 22.81 20.1401 24.9464 20.0245 27.6159H16.8061C16.8228 27.4496 16.8315 27.281 16.8315 27.1105V24.2088C16.8315 23.7661 16.7734 23.3369 16.6654 22.9277C16.7747 21.7562 17.5552 20.7706 18.6809 20.4008ZM25.0449 34.4169C23.0161 34.4169 21.3656 32.7664 21.3656 30.7376V27.8359C21.3656 25.8071 23.0162 24.1565 25.0449 24.1565C27.0737 24.1565 28.7243 25.8071 28.7243 27.8359V30.7376C28.7243 32.7664 27.0738 34.4169 25.0449 34.4169ZM8.12646 27.1105V24.2088C8.12646 22.1799 9.77708 20.5294 11.8058 20.5294C13.8345 20.5294 15.4851 22.1799 15.4851 24.2088V27.1105C15.4851 29.1393 13.8345 30.7898 11.8058 30.7898C9.77708 30.7898 8.12646 29.1393 8.12646 27.1105ZM13.0368 33.3673C13.0368 34.0461 12.4846 34.5983 11.8058 34.5983C11.127 34.5983 10.5748 34.046 10.5748 33.3673V31.9833C10.9688 32.0829 11.3811 32.1363 11.8058 32.1363C12.2304 32.1363 12.6427 32.0829 13.0368 31.9833V33.3673ZM18.5911 34.2645L14.3834 32.8799V31.4229C15.3249 30.858 16.0663 29.9935 16.4766 28.9624H20.0191V30.7376C20.0191 32.5671 21.0021 34.171 22.4674 35.0501V36.5072L21.2915 36.8942C20.8493 35.6606 19.8662 34.6848 18.5911 34.2645ZM25.0449 38.2255C24.3661 38.2255 23.8139 37.6733 23.8139 36.9945V36.9863C23.8139 36.985 23.8139 36.9836 23.8139 36.9824V35.6105C24.208 35.7101 24.6203 35.7635 25.0449 35.7635C25.4696 35.7635 25.8818 35.7101 26.276 35.6105V36.9824V36.9863V36.9945C26.276 37.6733 25.7238 38.2255 25.0449 38.2255ZM31.4985 34.2646C30.2237 34.6848 29.2406 35.6606 28.7984 36.8943L27.6225 36.5073V35.0501C29.0878 34.1711 30.0708 32.5672 30.0708 30.7377V28.9624H33.6133C34.0236 29.9936 34.765 30.8581 35.7065 31.4229V32.8799L31.4985 34.2646ZM38.284 34.5983C37.6052 34.5983 37.053 34.0461 37.053 33.3674V31.9834C37.4471 32.083 37.8594 32.1364 38.284 32.1364C38.7086 32.1364 39.1209 32.083 39.5151 31.9834V33.3674C39.5151 34.0461 38.9628 34.5983 38.284 34.5983Z" fill="black"/>
</svg>
