<svg width="100" height="100" viewBox="0 0 100 100" fill="none" xmlns="http://www.w3.org/2000/svg">
<circle cx="50" cy="50" r="50" fill="#FFA658" fill-opacity="0.34"/>
<path d="M50.0002 20.834C33.9002 20.834 20.8335 33.9007 20.8335 50.0007C20.8335 66.1007 33.9002 79.1673 50.0002 79.1673C66.1002 79.1673 79.1668 66.1007 79.1668 50.0007C79.1668 33.9007 66.1002 20.834 50.0002 20.834ZM52.9168 70.4173H47.0835V64.584H52.9168V70.4173ZM58.9543 47.8132L56.3293 50.4965C54.2293 52.6257 52.9168 54.3757 52.9168 58.7507H47.0835V57.2923C47.0835 54.084 48.396 51.1673 50.496 49.0382L54.1127 45.3632C55.1918 44.3132 55.8335 42.8548 55.8335 41.2507C55.8335 38.0423 53.2085 35.4173 50.0002 35.4173C46.7918 35.4173 44.1668 38.0423 44.1668 41.2507H38.3335C38.3335 34.8048 43.5543 29.584 50.0002 29.584C56.446 29.584 61.6668 34.8048 61.6668 41.2507C61.6668 43.8173 60.6168 46.1507 58.9543 47.8132Z" fill="#FFA658"/>
</svg>
