<svg width="100" height="100" viewBox="0 0 100 100" fill="none" xmlns="http://www.w3.org/2000/svg">
<circle cx="50" cy="50" r="50" fill="#0083E2" fill-opacity="0.3"/>
<path fill-rule="evenodd" clip-rule="evenodd" d="M50.0002 13.334C29.7502 13.334 13.3335 29.7507 13.3335 50.0006C13.3335 70.2506 29.7502 86.6673 50.0002 86.6673C70.2502 86.6673 86.6668 70.2506 86.6668 50.0006C86.6668 29.7507 70.2502 13.334 50.0002 13.334ZM65.8935 43.8006C66.1861 43.4661 66.4089 43.0764 66.5488 42.6545C66.6886 42.2326 66.7427 41.787 66.7077 41.3439C66.6728 40.9008 66.5496 40.4692 66.3454 40.0744C66.1412 39.6796 65.8601 39.3297 65.5187 39.0451C65.1772 38.7606 64.7823 38.5472 64.3572 38.4175C63.932 38.2879 63.4852 38.2445 63.0431 38.2901C62.601 38.3356 62.1724 38.4691 61.7826 38.6828C61.3929 38.8964 61.0498 39.1858 60.7735 39.534L46.4402 56.7306L39.0235 49.3106C38.3948 48.7035 37.5528 48.3675 36.6788 48.3751C35.8048 48.3827 34.9688 48.7332 34.3508 49.3513C33.7327 49.9693 33.3822 50.8053 33.3746 51.6793C33.367 52.5533 33.703 53.3953 34.3102 54.024L44.3102 64.024C44.6377 64.3513 45.0298 64.6068 45.4615 64.7742C45.8933 64.9416 46.3552 65.0172 46.8177 64.9961C47.2803 64.9751 47.7334 64.858 48.1482 64.6521C48.563 64.4463 48.9303 64.1563 49.2268 63.8006L65.8935 43.8006Z" fill="#0083E2"/>
</svg>
