<svg width="50" height="50" viewBox="0 0 50 50" fill="none" xmlns="http://www.w3.org/2000/svg">
<circle cx="25" cy="25" r="25" fill="#027ABF"/>
<circle cx="25.0449" cy="32.4058" r="17.5943" fill="#098BD6"/>
<path d="M39.7722 42.6439V46.4031C39.7722 46.8263 39.4294 47.1691 39.0062 47.1691H11.047C10.6237 47.1691 10.2809 46.8263 10.2809 46.4031V42.6439C10.2809 40.3009 11.4098 38.2212 13.1535 36.919V12.2679C13.1535 7.00642 17.4192 2.74072 22.6807 2.74072H27.4682C32.7297 2.74072 36.9954 7.00642 36.9954 12.2679V36.9927C38.6845 38.2978 39.7722 40.344 39.7722 42.6439Z" fill="#FFDFBA"/>
<path d="M39.7722 42.644V46.4032C39.7722 46.8264 39.4294 47.1692 39.0062 47.1692H11.047C10.6237 47.1692 10.2809 46.8264 10.2809 46.4032V42.644C10.2809 38.7051 13.4737 35.5038 17.4211 35.5038C18.2972 35.5038 19.1073 35.2204 19.7641 34.7397L19.9365 35.8552L24.5574 39.4335C24.8341 39.647 25.219 39.647 25.4958 39.4335L30.1167 35.8552L30.289 34.7397C30.9459 35.2204 31.7559 35.5038 32.6321 35.5038C36.5655 35.5038 39.7722 38.6927 39.7722 42.644Z" fill="#71C643"/>
<path d="M30.1168 35.855L28.3741 47.1689H21.6792L19.9365 35.855L24.5577 39.433C24.8337 39.6468 25.2195 39.6468 25.4955 39.433L30.1168 35.855Z" fill="#7BCF4C"/>
<path d="M34.506 22.0945V17.3728C34.506 17.0509 34.3055 16.7629 34.0027 16.6534C32.3366 16.0508 30.9299 14.89 30.0256 13.3391C29.7617 12.8866 29.134 12.8204 28.7912 13.2164C25.6353 16.8629 21.2844 19.2734 16.2222 19.8891C15.8371 19.9359 15.5473 20.2614 15.5473 20.6493V22.0944C15.5473 26.046 17.965 29.4327 21.4025 30.8556L21.3881 30.891V31.545C21.3881 33.7373 19.6067 35.5033 17.4212 35.5033C15.8212 35.5033 14.3447 36.0299 13.1536 36.9185C13.1536 36.1541 13.1536 11.5419 13.1536 12.2674C13.1536 7.00574 17.4191 2.74023 22.6808 2.74023H27.4683C32.73 2.74023 36.9955 7.00574 36.9955 12.2674V36.9922C35.7891 36.0587 34.2752 35.5033 32.6322 35.5033C30.449 35.5033 28.6652 33.7396 28.6652 31.545V30.8912L28.6508 30.8558C32.0883 29.4329 34.506 26.0462 34.506 22.0945Z" fill="#C79A83"/>
<path d="M34.0028 16.6537C34.3055 16.7631 34.506 17.051 34.506 17.3731V22.0948C34.506 26.0465 32.0883 29.4332 28.6509 30.856C22.435 33.4362 15.5474 28.8525 15.5474 22.0948V20.6497C15.5474 20.2618 15.8371 19.9364 16.2222 19.8896C21.2816 19.2743 25.6334 16.8655 28.7912 13.2169C29.134 12.8208 29.7618 12.887 30.0257 13.3396C30.9293 14.889 32.3353 16.0506 34.0028 16.6537Z" fill="#FFEBD2"/>
<path d="M28.7733 32.4636C26.4143 33.4511 23.8218 33.5277 21.2798 32.4636C21.4097 31.9249 21.388 31.576 21.388 30.8914L21.4024 30.856C23.7083 31.8131 26.3404 31.815 28.6507 30.856L28.6651 30.8914C28.6651 31.5763 28.6435 31.9251 28.7733 32.4636Z" fill="#FFD6A6"/>
<path d="M31.0562 3.43942C32.2232 3.91425 31.8366 5.64676 30.577 5.61612C30.3838 5.61143 25.457 5.61325 25.5531 5.61325C20.2914 5.61325 16.0259 9.87876 16.0259 15.1405V19.3915C16.0259 20.0896 15.5472 20.1086 15.5472 20.65C15.5472 22.1808 15.4756 23.3199 15.9715 24.9085C16.0066 25.0207 16.0259 25.1373 16.0259 25.2549V34.7584C16.0259 35.2491 15.7145 35.6915 15.2471 35.8409C14.4858 36.0842 13.7804 36.4515 13.1534 36.9191V12.2679C13.1534 7.00623 17.4189 2.74072 22.6806 2.74072H27.4681C28.7376 2.74072 29.9489 2.98891 31.0562 3.43942Z" fill="#E0B7A3"/>
<path d="M22.9192 28.1523C24.517 29.1468 23.255 31.5996 21.5082 30.8992C17.9626 29.4775 15.5474 26.0362 15.5474 22.0948V20.6499C15.5474 20.2626 15.8359 19.9365 16.2204 19.8899C16.5833 19.8459 16.9583 19.7904 17.3434 19.7221C17.8967 19.6237 18.4173 20.0192 18.4658 20.5791C18.7687 24.0826 20.543 26.6735 22.9192 28.1523Z" fill="#FFF3E4"/>
<path d="M20.3099 38.2787C15.8201 38.394 13.0577 41.7745 13.0577 45.4208V47.1692H11.047C10.6239 47.1692 10.2809 46.8262 10.2809 46.4032V42.644C10.2809 38.7051 13.4737 35.5038 17.4211 35.5038C18.2972 35.5038 19.1073 35.2204 19.7641 34.7397C19.9818 36.1492 19.8673 35.4067 20.3099 38.2787Z" fill="#7BCF4C"/>
<path d="M29.7433 38.2787C34.2331 38.394 36.9955 41.7745 36.9955 45.4208V47.1692H39.0063C39.4293 47.1692 39.7723 46.8262 39.7723 46.4032V42.644C39.7723 38.7051 36.5796 35.5038 32.6322 35.5038C31.756 35.5038 30.946 35.2204 30.2891 34.7397C30.0713 36.1492 30.1858 35.4067 29.7433 38.2787Z" fill="#6FBD44"/>
<path d="M23.5942 47.1689H21.6792L19.9365 35.855L22.111 37.5383L23.5942 47.1689Z" fill="#6FBD44"/>
<path d="M40.5387 42.6441V47.169C40.5387 47.592 40.1957 47.935 39.7727 47.935C39.3496 47.935 39.0067 47.592 39.0067 47.169V42.6441C39.0067 39.1211 36.1557 36.2698 32.6322 36.2699C32.0189 36.2699 31.4269 36.154 30.8798 35.9379L29.1314 47.2857C29.067 47.7041 28.6756 47.9906 28.2578 47.9261C27.8396 47.8617 27.5529 47.4705 27.6174 47.0524L29.4654 35.0582C29.1286 34.7541 28.8307 34.3998 28.586 33.9979C28.3659 33.6366 28.4803 33.1654 28.8416 32.9452C29.2028 32.725 29.6742 32.8396 29.8943 33.2009C30.4745 34.1532 31.4992 34.7378 32.6322 34.7378C37.0019 34.7378 40.5387 38.2739 40.5387 42.6441ZM27.8861 37.5827C27.627 37.2483 27.146 37.1869 26.8114 37.446L25.0269 38.8275L20.6469 35.4365L20.5884 35.057C21.4692 34.2636 22.0401 33.1669 22.1381 31.9242C28.6775 33.8494 35.2195 28.9419 35.2719 22.1745C35.2724 22.1575 35.2722 16.833 35.2722 16.816C35.2722 16.5287 35.1072 16.255 34.8364 16.1256C34.6693 16.0455 31.5672 15.379 30.239 12.0331C30.0205 11.4824 29.2804 11.3763 28.9181 11.8511C26.115 15.5254 22.1344 17.9797 17.6727 18.864C17.2577 18.9463 16.9881 19.3494 17.0702 19.7644C17.1426 20.1291 17.4627 20.3816 17.8208 20.3816C18.0133 20.3816 24.4617 19.4283 29.3668 13.7296C30.3869 15.4741 31.9487 16.723 33.7402 17.3723V22.0944C33.7402 26.8989 29.8314 30.8077 25.0268 30.8077C20.53 30.8077 16.3135 27.3125 16.3135 21.7951C16.3135 21.3721 15.9705 21.0291 15.5475 21.0291C15.1245 21.0291 14.7815 21.3721 14.7815 21.7951C14.7815 21.8348 14.7807 22.2181 14.7827 22.2562C14.8452 26.261 17.2171 29.7155 20.6223 31.3437V31.5454C20.6223 32.3989 20.2895 33.2007 19.6852 33.8033C18.6097 34.8757 17.222 34.738 17.4214 34.738C16.1863 34.738 14.9952 35.0213 13.9197 35.5537V12.2678C13.9197 7.43691 17.85 3.50662 22.6809 3.50662H27.4685C32.2994 3.50662 36.2297 7.43691 36.2297 12.2678V32.9979C36.2297 33.4209 36.5727 33.7639 36.9957 33.7639C37.4187 33.7639 37.7617 33.4209 37.7617 32.9979V12.2678C37.7617 6.5921 33.1441 1.97461 27.4685 1.97461H22.6809C17.0053 1.97461 12.3877 6.5921 12.3877 12.2678V36.5474C10.5547 38.0664 9.5152 40.2713 9.5152 42.6441V47.169C9.5152 47.592 9.85818 47.935 10.2812 47.935C10.7042 47.935 11.0472 47.592 11.0472 47.169V42.6441C11.0472 40.9415 11.7103 39.3407 12.9143 38.1367C15.0422 36.0088 17.7472 36.2698 17.4217 36.2698C18.0317 36.2698 18.6236 36.1544 19.1738 35.9358L20.9225 47.2855C20.9807 47.6641 21.307 47.935 21.6785 47.935C22.1499 47.935 22.5078 47.5154 22.4365 47.0523L20.9858 37.6362L24.5579 40.4018C24.8346 40.6159 25.2203 40.6152 25.4958 40.4018L27.7492 38.6572C28.0838 38.3983 28.1451 37.9172 27.8861 37.5827Z" fill="black"/>
</svg>
