<svg width="24" height="24" viewBox="0 0 24 24" fill="none" xmlns="http://www.w3.org/2000/svg">
<path d="M22.5 11.935C22.5 11.8834 22.5 11.8248 22.4977 11.7568C22.4953 11.567 22.4906 11.3537 22.4859 11.1264C22.4672 10.4725 22.4344 9.8209 22.3828 9.20684C22.3125 8.36074 22.2094 7.65527 22.0687 7.12559C21.9204 6.57281 21.6295 6.06867 21.2252 5.66355C20.8209 5.25842 20.3173 4.96651 19.7648 4.81699C19.1016 4.63887 17.8031 4.52871 15.975 4.46074C15.1055 4.42793 14.175 4.40684 13.2445 4.39512C12.9187 4.39043 12.6164 4.38809 12.3445 4.38574H11.6555C11.3836 4.38809 11.0813 4.39043 10.7555 4.39512C9.825 4.40684 8.89453 4.42793 8.025 4.46074C6.19687 4.53105 4.89609 4.64121 4.23516 4.81699C3.6825 4.96615 3.17876 5.25793 2.7744 5.66311C2.37004 6.06829 2.07928 6.57263 1.93125 7.12559C1.78828 7.65527 1.6875 8.36074 1.61719 9.20684C1.56562 9.8209 1.53281 10.4725 1.51406 11.1264C1.50703 11.3537 1.50469 11.567 1.50234 11.7568C1.50234 11.8248 1.5 11.8834 1.5 11.935V12.0662C1.5 12.1178 1.5 12.1764 1.50234 12.2443C1.50469 12.4342 1.50937 12.6475 1.51406 12.8748C1.53281 13.5287 1.56562 14.1803 1.61719 14.7943C1.6875 15.6404 1.79063 16.3459 1.93125 16.8756C2.23125 17.9982 3.1125 18.8842 4.23516 19.1842C4.89609 19.3623 6.19687 19.4725 8.025 19.5404C8.89453 19.5732 9.825 19.5943 10.7555 19.6061C11.0813 19.6107 11.3836 19.6131 11.6555 19.6154H12.3445C12.6164 19.6131 12.9187 19.6107 13.2445 19.6061C14.175 19.5943 15.1055 19.5732 15.975 19.5404C17.8031 19.4701 19.1039 19.36 19.7648 19.1842C20.8875 18.8842 21.7687 18.0006 22.0687 16.8756C22.2117 16.3459 22.3125 15.6404 22.3828 14.7943C22.4344 14.1803 22.4672 13.5287 22.4859 12.8748C22.493 12.6475 22.4953 12.4342 22.4977 12.2443C22.4977 12.1764 22.5 12.1178 22.5 12.0662V11.935ZM20.8125 12.0568C20.8125 12.1061 20.8125 12.16 20.8102 12.2232C20.8078 12.4061 20.8031 12.6076 20.7984 12.8256C20.782 13.449 20.7492 14.0725 20.7 14.6514C20.6367 15.4061 20.5477 16.0248 20.4375 16.4396C20.2922 16.9811 19.8656 17.41 19.3266 17.5529C18.8344 17.6842 17.5945 17.7896 15.9094 17.8529C15.0562 17.8857 14.1375 17.9068 13.2211 17.9186C12.9 17.9232 12.6023 17.9256 12.3352 17.9256H11.6648L10.7789 17.9186C9.8625 17.9068 8.94609 17.8857 8.09063 17.8529C6.40547 17.7873 5.16328 17.6842 4.67344 17.5529C4.13437 17.4076 3.70781 16.9811 3.5625 16.4396C3.45234 16.0248 3.36328 15.4061 3.3 14.6514C3.25078 14.0725 3.22031 13.449 3.20156 12.8256C3.19453 12.6076 3.19219 12.4037 3.18984 12.2232C3.18984 12.16 3.1875 12.1037 3.1875 12.0568V11.9443C3.1875 11.8951 3.1875 11.8412 3.18984 11.7779C3.19219 11.5951 3.19688 11.3936 3.20156 11.1756C3.21797 10.5521 3.25078 9.92871 3.3 9.3498C3.36328 8.59512 3.45234 7.97637 3.5625 7.56152C3.70781 7.02012 4.13437 6.59121 4.67344 6.44824C5.16562 6.31699 6.40547 6.21152 8.09063 6.14824C8.94375 6.11543 9.8625 6.09434 10.7789 6.08262C11.1 6.07793 11.3977 6.07559 11.6648 6.07559H12.3352L13.2211 6.08262C14.1375 6.09434 15.0539 6.11543 15.9094 6.14824C17.5945 6.21387 18.8367 6.31699 19.3266 6.44824C19.8656 6.59355 20.2922 7.02012 20.4375 7.56152C20.5477 7.97637 20.6367 8.59512 20.7 9.3498C20.7492 9.92871 20.7797 10.5521 20.7984 11.1756C20.8055 11.3936 20.8078 11.5975 20.8102 11.7779C20.8102 11.8412 20.8125 11.8975 20.8125 11.9443V12.0568ZM9.91406 15.1412L15.3516 11.9771L9.91406 8.85996V15.1412Z" fill="white"/>
</svg>
