<svg width="13" height="13" viewBox="0 0 13 13" fill="none" xmlns="http://www.w3.org/2000/svg">
<path d="M12.125 6.49972C11.9592 6.49972 11.8003 6.56557 11.6831 6.68278C11.5658 6.79999 11.5 6.95896 11.5 7.12472V10.8747C11.5 11.0405 11.4342 11.1994 11.3169 11.3167C11.1997 11.4339 11.0408 11.4997 10.875 11.4997H2.125C1.95924 11.4997 1.80027 11.4339 1.68306 11.3167C1.56585 11.1994 1.5 11.0405 1.5 10.8747V2.12472C1.5 1.95896 1.56585 1.79999 1.68306 1.68278C1.80027 1.56557 1.95924 1.49972 2.125 1.49972H5.875C6.04076 1.49972 6.19973 1.43387 6.31694 1.31666C6.43415 1.19945 6.5 1.04048 6.5 0.874718C6.5 0.708957 6.43415 0.549986 6.31694 0.432776C6.19973 0.315566 6.04076 0.249718 5.875 0.249718H2.125C1.62772 0.249718 1.15081 0.447262 0.799175 0.798893C0.447544 1.15052 0.25 1.62744 0.25 2.12472V10.8747C0.25 11.372 0.447544 11.8489 0.799175 12.2005C1.15081 12.5522 1.62772 12.7497 2.125 12.7497H10.875C11.3723 12.7497 11.8492 12.5522 12.2008 12.2005C12.5525 11.8489 12.75 11.372 12.75 10.8747V7.12472C12.75 6.95896 12.6842 6.79999 12.5669 6.68278C12.4497 6.56557 12.2908 6.49972 12.125 6.49972ZM2.75 6.97472V9.62472C2.75 9.79048 2.81585 9.94945 2.93306 10.0667C3.05027 10.1839 3.20924 10.2497 3.375 10.2497H6.025C6.10725 10.2502 6.18879 10.2344 6.26494 10.2033C6.34109 10.1722 6.41035 10.1264 6.46875 10.0685L10.7938 5.73722L12.5687 3.99972C12.6273 3.94162 12.6738 3.87249 12.7056 3.79633C12.7373 3.72017 12.7536 3.63848 12.7536 3.55597C12.7536 3.47346 12.7373 3.39177 12.7056 3.31561C12.6738 3.23945 12.6273 3.17032 12.5687 3.11222L9.91875 0.430968C9.86065 0.372387 9.79152 0.325891 9.71536 0.294161C9.6392 0.26243 9.55751 0.246094 9.475 0.246094C9.39249 0.246094 9.3108 0.26243 9.23464 0.294161C9.15848 0.325891 9.08935 0.372387 9.03125 0.430968L7.26875 2.19972L2.93125 6.53097C2.87332 6.58937 2.8275 6.65863 2.79639 6.73478C2.76529 6.81093 2.74952 6.89246 2.75 6.97472ZM9.475 1.75597L11.2437 3.52472L10.3562 4.41222L8.5875 2.64347L9.475 1.75597ZM4 7.23097L7.70625 3.52472L9.475 5.29347L5.76875 8.99972H4V7.23097Z" fill="#1253FA"/>
</svg>
