<svg width="10" height="20" viewBox="0 0 10 20" fill="none" xmlns="http://www.w3.org/2000/svg">
<path d="M4.78248 19.3846C4.47735 19.3846 4.2214 19.2812 4.01464 19.0745C3.80858 18.8684 3.70556 18.6128 3.70556 18.3077V17.0692C2.89787 16.8897 2.18889 16.5756 1.57863 16.1269C0.968379 15.6782 0.474789 15.05 0.0978658 14.2423C-0.0277752 13.991 -0.0324419 13.7265 0.0838658 13.4486C0.200891 13.1701 0.411968 12.9679 0.717096 12.8423C0.968378 12.7346 1.22864 12.7393 1.49787 12.8563C1.7671 12.9726 1.97351 13.1654 2.1171 13.4346C2.42222 13.9731 2.80812 14.3816 3.27479 14.6602C3.74146 14.938 4.31581 15.0769 4.99787 15.0769C5.73376 15.0769 6.35766 14.9111 6.86956 14.5794C7.38074 14.247 7.63633 13.7308 7.63633 13.0308C7.63633 12.4026 7.43889 11.9043 7.04402 11.536C6.64915 11.1684 5.73376 10.7513 4.29786 10.2846C2.75428 9.8 1.6953 9.22133 1.12094 8.54861C0.546583 7.87518 0.259404 7.05385 0.259404 6.08461C0.259404 4.91795 0.636327 4.01154 1.39017 3.36538C2.14402 2.71923 2.91581 2.35128 3.70556 2.26154V1.07692C3.70556 0.771795 3.80858 0.515846 4.01464 0.309077C4.2214 0.103026 4.47735 0 4.78248 0C5.08761 0 5.34356 0.103026 5.55033 0.309077C5.75638 0.515846 5.8594 0.771795 5.8594 1.07692V2.26154C6.54145 2.36923 7.13376 2.58928 7.63633 2.92169C8.13889 3.25338 8.55171 3.66154 8.87479 4.14615C9.03633 4.37949 9.06792 4.63974 8.96956 4.92692C8.87048 5.2141 8.66838 5.42051 8.36325 5.54615C8.11197 5.65385 7.85171 5.65815 7.58248 5.55908C7.31325 5.46072 7.06197 5.2859 6.82863 5.03462C6.5953 4.78333 6.32176 4.5902 6.00802 4.45523C5.69356 4.32097 5.30299 4.25385 4.83633 4.25385C4.04658 4.25385 3.4453 4.42903 3.03248 4.77938C2.61966 5.12903 2.41325 5.5641 2.41325 6.08461C2.41325 6.67692 2.68248 7.14359 3.22094 7.48461C3.7594 7.82564 4.69274 8.18462 6.02094 8.56154C7.2594 8.92051 8.1974 9.4902 8.83494 10.2706C9.47176 11.0517 9.79017 11.9538 9.79017 12.9769C9.79017 14.2513 9.41325 15.2205 8.6594 15.8846C7.90556 16.5487 6.97222 16.9615 5.8594 17.1231V18.3077C5.8594 18.6128 5.75638 18.8684 5.55033 19.0745C5.34356 19.2812 5.08761 19.3846 4.78248 19.3846Z" fill="#1253FA"/>
</svg>
