<svg width="26" height="26" viewBox="0 0 26 26" fill="none" xmlns="http://www.w3.org/2000/svg">
<g clip-path="url(#clip0_844_2417)">
<path d="M18.5716 3.25H2.78585C1.76018 3.25 0.928711 4.08147 0.928711 5.10714V16.25C0.928711 17.2757 1.76018 18.1071 2.78585 18.1071H18.5716C19.5972 18.1071 20.4287 17.2757 20.4287 16.25V5.10714C20.4287 4.08147 19.5972 3.25 18.5716 3.25Z" stroke="#1253FA" stroke-width="2" stroke-linecap="round" stroke-linejoin="round"/>
<path d="M10.6788 13.464C12.2173 13.464 13.4645 12.2168 13.4645 10.6783C13.4645 9.13978 12.2173 7.89258 10.6788 7.89258C9.14027 7.89258 7.89307 9.13978 7.89307 10.6783C7.89307 12.2168 9.14027 13.464 10.6788 13.464Z" stroke="#1253FA" stroke-width="2" stroke-linecap="round" stroke-linejoin="round"/>
<path d="M6.5 22.7503H23.2143C23.7068 22.7503 24.1792 22.5546 24.5275 22.2063C24.8758 21.8581 25.0714 21.3857 25.0714 20.8931V11.6074" stroke="#1253FA" stroke-width="2" stroke-linecap="round" stroke-linejoin="round"/>
</g>
<defs>
<clipPath id="clip0_844_2417">
<rect width="26" height="26" fill="white"/>
</clipPath>
</defs>
</svg>
