<svg width="388" height="388" viewBox="0 0 388 388" fill="none" xmlns="http://www.w3.org/2000/svg">
<path d="M42.8901 63.9221C47.865 58.4354 53.7902 53.8925 60.3801 50.5121C79.2001 41.0021 102.31 42.5121 121.56 51.1321C140.81 59.7521 156.63 74.6521 169.76 91.1321C180.23 104.262 190.08 119.232 205.57 125.732C226.18 134.392 251.1 124.432 265.33 107.182C281.04 88.1221 298.76 56.5921 328.27 71.1821C375.72 94.6521 341.27 180.302 318.2 208.182C294.93 236.282 260.89 254.772 224.94 260.982C188.99 267.192 151.37 261.402 118.05 246.542C72.3201 226.132 33.2401 185.812 24.9301 136.432C22.1801 120.072 22.9301 102.912 28.6601 87.3621C31.8611 78.7109 36.6917 70.7538 42.8901 63.9221V63.9221Z" fill="#92E3A9"/>
<path opacity="0.9" d="M42.8901 63.9221C47.865 58.4354 53.7902 53.8925 60.3801 50.5121C79.2001 41.0021 102.31 42.5121 121.56 51.1321C140.81 59.7521 156.63 74.6521 169.76 91.1321C180.23 104.262 190.08 119.232 205.57 125.732C226.18 134.392 251.1 124.432 265.33 107.182C281.04 88.1221 298.76 56.5921 328.27 71.1821C375.72 94.6521 341.27 180.302 318.2 208.182C294.93 236.282 260.89 254.772 224.94 260.982C188.99 267.192 151.37 261.402 118.05 246.542C72.3201 226.132 33.2401 185.812 24.9301 136.432C22.1801 120.072 22.9301 102.912 28.6601 87.3621C31.8611 78.7109 36.6917 70.7538 42.8901 63.9221V63.9221Z" fill="white"/>
<path d="M193.89 344.922C300.972 344.922 387.78 339.854 387.78 333.602C387.78 327.35 300.972 322.282 193.89 322.282C86.8075 322.282 0 327.35 0 333.602C0 339.854 86.8075 344.922 193.89 344.922Z" fill="#F5F5F5"/>
<path d="M203.39 209.672C202.902 209.674 202.426 209.531 202.02 209.262L176.26 192.262C175.78 191.942 175.216 191.771 174.64 191.772H126.89L143.84 205.252C144.111 205.451 144.34 205.703 144.512 205.992C144.684 206.282 144.796 206.603 144.84 206.937C144.885 207.27 144.862 207.61 144.773 207.934C144.683 208.259 144.529 208.562 144.319 208.825C144.11 209.089 143.849 209.307 143.553 209.468C143.257 209.628 142.931 209.727 142.596 209.758C142.261 209.79 141.923 209.753 141.602 209.651C141.281 209.548 140.984 209.382 140.73 209.162L118.18 191.232C117.772 190.909 117.475 190.468 117.33 189.968C117.186 189.469 117.2 188.937 117.372 188.447C117.543 187.956 117.864 187.531 118.288 187.231C118.712 186.931 119.22 186.77 119.74 186.772H174.65C176.208 186.767 177.733 187.227 179.03 188.092L204.78 205.092C205.225 205.389 205.564 205.822 205.745 206.326C205.927 206.831 205.941 207.38 205.786 207.893C205.632 208.406 205.316 208.856 204.887 209.177C204.457 209.497 203.936 209.671 203.4 209.672H203.39Z" fill="#92E3A9"/>
<g opacity="0.3">
<path opacity="0.3" d="M203.39 209.672C202.902 209.674 202.426 209.531 202.02 209.262L176.26 192.262C175.78 191.942 175.216 191.771 174.64 191.772H126.89L143.84 205.252C144.111 205.451 144.34 205.703 144.512 205.992C144.684 206.282 144.796 206.603 144.84 206.937C144.885 207.27 144.862 207.61 144.773 207.934C144.683 208.259 144.529 208.562 144.319 208.825C144.11 209.089 143.849 209.307 143.553 209.468C143.257 209.628 142.931 209.727 142.596 209.758C142.261 209.79 141.923 209.753 141.602 209.651C141.281 209.548 140.984 209.382 140.73 209.162L118.18 191.232C117.772 190.909 117.475 190.468 117.33 189.968C117.186 189.469 117.2 188.937 117.372 188.447C117.543 187.956 117.864 187.531 118.288 187.231C118.712 186.931 119.22 186.77 119.74 186.772H174.65C176.208 186.767 177.733 187.227 179.03 188.092L204.78 205.092C205.225 205.389 205.564 205.822 205.745 206.326C205.927 206.831 205.941 207.38 205.786 207.893C205.632 208.406 205.316 208.856 204.887 209.177C204.457 209.497 203.936 209.671 203.4 209.672H203.39Z" fill="#464646"/>
</g>
<path d="M281.4 324.532C279.66 321.532 275.21 320.832 271.47 322.992C267.73 325.152 266.1 329.362 267.89 332.362C269.68 335.362 274.07 336.062 277.81 333.892C281.55 331.722 283.13 327.542 281.4 324.532Z" fill="#464646"/>
<path d="M187.47 322.992C183.73 325.162 182.1 329.352 183.84 332.362C185.58 335.372 190.02 336.062 193.76 333.892C197.5 331.722 199.13 327.542 197.4 324.532C195.67 321.522 191.21 320.832 187.47 322.992Z" fill="#464646"/>
<path d="M270.4 326.092H188.89C188.227 326.092 187.591 325.829 187.122 325.36C186.653 324.891 186.39 324.255 186.39 323.592C186.39 322.929 186.653 322.293 187.122 321.824C187.591 321.355 188.227 321.092 188.89 321.092H270.4C270.803 321.092 271.189 320.932 271.474 320.647C271.76 320.362 271.92 319.975 271.92 319.572V313.082C271.916 312.736 271.796 312.401 271.578 312.132C271.36 311.864 271.058 311.677 270.72 311.602L203.32 297.022C200.376 296.381 197.738 294.756 195.842 292.414C193.946 290.073 192.905 287.155 192.89 284.142V271.462C192.89 270.799 193.153 270.163 193.622 269.694C194.091 269.225 194.727 268.962 195.39 268.962C196.053 268.962 196.689 269.225 197.157 269.694C197.626 270.163 197.89 270.799 197.89 271.462V284.142C197.895 286.009 198.536 287.818 199.707 289.272C200.877 290.726 202.507 291.738 204.33 292.142L271.74 306.722C273.192 307.044 274.491 307.85 275.425 309.007C276.359 310.164 276.872 311.605 276.88 313.092V319.582C276.874 321.302 276.191 322.95 274.978 324.169C273.764 325.388 272.119 326.079 270.4 326.092V326.092Z" fill="#92E3A9"/>
<g opacity="0.3">
<path opacity="0.3" d="M270.4 326.092H188.89C188.227 326.092 187.591 325.829 187.122 325.36C186.653 324.891 186.39 324.255 186.39 323.592C186.39 322.929 186.653 322.293 187.122 321.824C187.591 321.355 188.227 321.092 188.89 321.092H270.4C270.803 321.092 271.189 320.932 271.474 320.647C271.76 320.362 271.92 319.975 271.92 319.572V313.082C271.916 312.736 271.796 312.401 271.578 312.132C271.36 311.864 271.058 311.677 270.72 311.602L203.32 297.022C200.376 296.381 197.738 294.756 195.842 292.414C193.946 290.073 192.905 287.155 192.89 284.142V271.462C192.89 270.799 193.153 270.163 193.622 269.694C194.091 269.225 194.727 268.962 195.39 268.962C196.053 268.962 196.689 269.225 197.157 269.694C197.626 270.163 197.89 270.799 197.89 271.462V284.142C197.895 286.009 198.536 287.818 199.707 289.272C200.877 290.726 202.507 291.738 204.33 292.142L271.74 306.722C273.192 307.044 274.491 307.85 275.425 309.007C276.359 310.164 276.872 311.605 276.88 313.092V319.582C276.874 321.302 276.191 322.95 274.978 324.169C273.764 325.388 272.119 326.079 270.4 326.092V326.092Z" fill="#464646"/>
</g>
<path d="M270.33 239.922V239.752L273.25 223.612L276.25 207.042C276.312 206.683 276.295 206.314 276.201 205.961C276.106 205.609 275.936 205.281 275.702 205.001C275.468 204.721 275.175 204.496 274.845 204.341C274.515 204.185 274.154 204.104 273.79 204.102H242.04C241.377 204.102 240.741 204.365 240.272 204.834C239.803 205.303 239.54 205.939 239.54 206.602C239.54 207.265 239.803 207.901 240.272 208.37C240.741 208.839 241.377 209.102 242.04 209.102H251.14L249.54 220.622H181.06C180.397 220.622 179.761 220.885 179.292 221.354C178.823 221.823 178.56 222.459 178.56 223.122C178.56 223.785 178.823 224.421 179.292 224.89C179.761 225.359 180.397 225.622 181.06 225.622H248.89L247.32 236.872H185.21C184.547 236.872 183.911 237.135 183.442 237.604C182.973 238.073 182.71 238.709 182.71 239.372C182.71 240.035 182.973 240.671 183.442 241.14C183.911 241.609 184.547 241.872 185.21 241.872H246.57L244.95 253.482H189.21C188.547 253.482 187.911 253.745 187.442 254.214C186.973 254.683 186.71 255.319 186.71 255.982C186.71 256.645 186.973 257.281 187.442 257.75C187.911 258.219 188.547 258.482 189.21 258.482H244.21L242.75 268.982H236.28C235.617 268.982 234.981 269.245 234.512 269.714C234.043 270.183 233.78 270.819 233.78 271.482C233.78 272.145 234.043 272.781 234.512 273.25C234.981 273.719 235.617 273.982 236.28 273.982H262.09C262.676 273.98 263.242 273.773 263.692 273.396C264.141 273.02 264.445 272.499 264.55 271.922L267.34 256.492L270.33 239.922ZM265.8 236.852H262.32L264.32 225.602H267.89L265.8 236.852ZM264.9 241.852L262.8 253.462H259.4L261.4 241.852H264.9ZM268.74 220.602H265.17L267.17 209.082H270.8L268.74 220.602ZM256.19 209.082H262.12L260.12 220.602H254.61L256.19 209.082ZM253.89 225.602H259.22L257.22 236.852H252.3L253.89 225.602ZM251.62 241.852H256.36L254.36 253.462H250.03L251.62 241.852ZM249.3 258.462H253.45L251.61 268.962H247.89L249.3 258.462ZM256.68 268.962L258.53 258.462H261.89L259.99 268.962H256.68Z" fill="#92E3A9"/>
<g opacity="0.3">
<path opacity="0.3" d="M270.33 239.922V239.752L273.25 223.612L276.25 207.042C276.312 206.683 276.295 206.314 276.201 205.961C276.106 205.609 275.936 205.281 275.702 205.001C275.468 204.721 275.175 204.496 274.845 204.341C274.515 204.185 274.154 204.104 273.79 204.102H242.04C241.377 204.102 240.741 204.365 240.272 204.834C239.803 205.303 239.54 205.939 239.54 206.602C239.54 207.265 239.803 207.901 240.272 208.37C240.741 208.839 241.377 209.102 242.04 209.102H251.14L249.54 220.622H181.06C180.397 220.622 179.761 220.885 179.292 221.354C178.823 221.823 178.56 222.459 178.56 223.122C178.56 223.785 178.823 224.421 179.292 224.89C179.761 225.359 180.397 225.622 181.06 225.622H248.89L247.32 236.872H185.21C184.547 236.872 183.911 237.135 183.442 237.604C182.973 238.073 182.71 238.709 182.71 239.372C182.71 240.035 182.973 240.671 183.442 241.14C183.911 241.609 184.547 241.872 185.21 241.872H246.57L244.95 253.482H189.21C188.547 253.482 187.911 253.745 187.442 254.214C186.973 254.683 186.71 255.319 186.71 255.982C186.71 256.645 186.973 257.281 187.442 257.75C187.911 258.219 188.547 258.482 189.21 258.482H244.21L242.75 268.982H236.28C235.617 268.982 234.981 269.245 234.512 269.714C234.043 270.183 233.78 270.819 233.78 271.482C233.78 272.145 234.043 272.781 234.512 273.25C234.981 273.719 235.617 273.982 236.28 273.982H262.09C262.676 273.98 263.242 273.773 263.692 273.396C264.141 273.02 264.445 272.499 264.55 271.922L267.34 256.492L270.33 239.922ZM265.8 236.852H262.32L264.32 225.602H267.89L265.8 236.852ZM264.9 241.852L262.8 253.462H259.4L261.4 241.852H264.9ZM268.74 220.602H265.17L267.17 209.082H270.8L268.74 220.602ZM256.19 209.082H262.12L260.12 220.602H254.61L256.19 209.082ZM253.89 225.602H259.22L257.22 236.852H252.3L253.89 225.602ZM251.62 241.852H256.36L254.36 253.462H250.03L251.62 241.852ZM249.3 258.462H253.45L251.61 268.962H247.89L249.3 258.462ZM256.68 268.962L258.53 258.462H261.89L259.99 268.962H256.68Z" fill="#464646"/>
</g>
<path d="M243.89 204.892C243.657 204.636 243.373 204.432 243.056 204.292C242.739 204.153 242.396 204.081 242.05 204.082H140.3C139.917 204.077 139.539 204.159 139.192 204.322C138.846 204.485 138.541 204.724 138.3 205.022C138.067 205.315 137.903 205.657 137.82 206.022C137.737 206.388 137.737 206.767 137.82 207.132L141.57 223.602L152.57 272.002C152.685 272.565 152.99 273.071 153.435 273.435C153.879 273.8 154.436 274 155.01 274.002H236.27C236.894 274 237.495 273.765 237.956 273.343C238.416 272.922 238.703 272.344 238.76 271.722L244.48 206.842C244.525 206.494 244.495 206.14 244.394 205.804C244.292 205.468 244.12 205.157 243.89 204.892V204.892ZM235.39 253.462H223.79L224.3 241.862H236.42L235.39 253.462ZM171.01 268.962L169.65 258.462H182.14L182.9 268.962H171.01ZM185.59 236.862L184.77 225.602H201.24V236.862H185.59ZM201.24 241.862V253.462H186.79L185.95 241.862H201.24ZM206.24 225.602H220.01L219.52 236.862H206.24V225.602ZM206.24 220.602V209.082H220.74L220.23 220.602H206.24ZM201.24 220.602H184.41L183.58 209.082H201.24V220.602ZM179.4 220.602H164.76L163.27 209.082H178.56L179.4 220.602ZM179.76 225.602L180.57 236.862H166.89L165.43 225.602H179.76ZM161.82 236.862H149.75L147.19 225.602H160.36L161.82 236.862ZM150.89 241.862H162.46L163.96 253.462H153.53L150.89 241.862ZM167.51 241.862H180.94L181.78 253.462H169.01L167.51 241.862ZM187.15 258.462H201.24V268.962H187.89L187.15 258.462ZM206.24 258.462H218.56L218.1 268.962H206.24V258.462ZM206.24 253.462V241.862H219.3L218.79 253.462H206.24ZM224.52 236.862L225.02 225.602H237.89L236.89 236.862H224.52ZM238.29 220.602H225.29L225.8 209.082H239.36L238.29 220.602ZM158.23 209.082L159.72 220.602H146.05L143.43 209.082H158.23ZM154.66 258.462H164.61L165.97 268.962H157.05L154.66 258.462ZM223.11 268.962L223.57 258.462H234.95L234.03 268.962H223.11Z" fill="#92E3A9"/>
<path d="M230.4 326.092H148.89C148.227 326.092 147.591 325.829 147.122 325.36C146.653 324.891 146.39 324.255 146.39 323.592C146.39 322.929 146.653 322.293 147.122 321.824C147.591 321.355 148.227 321.092 148.89 321.092H230.4C230.803 321.092 231.189 320.932 231.474 320.647C231.76 320.362 231.92 319.975 231.92 319.572V313.082C231.916 312.736 231.796 312.401 231.578 312.132C231.36 311.864 231.058 311.677 230.72 311.602L163.32 297.022C160.376 296.381 157.738 294.756 155.842 292.414C153.946 290.073 152.905 287.155 152.89 284.142V271.462C152.89 270.799 153.153 270.163 153.622 269.694C154.091 269.225 154.727 268.962 155.39 268.962C156.053 268.962 156.689 269.225 157.157 269.694C157.626 270.163 157.89 270.799 157.89 271.462V284.142C157.895 286.009 158.536 287.818 159.707 289.272C160.877 290.726 162.507 291.738 164.33 292.142L231.74 306.722C233.192 307.044 234.491 307.85 235.425 309.007C236.359 310.164 236.872 311.605 236.88 313.092V319.582C236.874 321.302 236.191 322.95 234.978 324.169C233.764 325.388 232.119 326.079 230.4 326.092Z" fill="#92E3A9"/>
<path d="M233.76 333.89C237.505 331.728 239.133 327.536 237.396 324.528C235.659 321.519 231.215 320.833 227.47 322.996C223.725 325.158 222.098 329.349 223.834 332.358C225.571 335.366 230.015 336.052 233.76 333.89Z" fill="#464646"/>
<path d="M232.489 326.302C233.349 327.782 232.549 329.832 230.709 330.892C228.869 331.952 226.709 331.622 225.839 330.142C224.969 328.662 225.779 326.612 227.619 325.542C229.459 324.472 231.639 324.822 232.489 326.302Z" fill="#92E3A9"/>
<path d="M149.764 333.89C153.509 331.728 155.137 327.536 153.4 324.528C151.663 321.519 147.219 320.833 143.474 322.996C139.729 325.158 138.101 329.349 139.838 332.358C141.575 335.366 146.019 336.052 149.764 333.89Z" fill="#464646"/>
<path d="M148.489 326.302C149.349 327.782 148.549 329.832 146.709 330.892C144.869 331.952 142.709 331.622 141.839 330.142C140.969 328.662 141.779 326.612 143.619 325.542C145.459 324.472 147.639 324.822 148.489 326.302Z" fill="#92E3A9"/>
</svg>
