<svg width="1440" height="374" viewBox="0 0 1440 374" fill="none" xmlns="http://www.w3.org/2000/svg">
<path fill-rule="evenodd" clip-rule="evenodd" d="M1440 367.581V374H0V367.581C154.193 256.978 419.09 184 720 184C1020.91 184 1285.81 256.978 1440 367.581Z" fill="#027ABF"/>
<g clip-path="url(#clip0_3008_54338)">
<path opacity="0.5" d="M521.773 266.994C530.822 258.123 559.743 226.185 533.483 198.684C502.783 166.569 482.738 182.715 477.77 164.44C472.625 146.165 427.912 133.39 412.121 161.424C396.33 189.635 409.814 207.733 390.297 215.895C370.78 224.057 366.167 202.588 348.246 227.605C330.325 252.622 345.762 269.478 345.762 269.478H350.907C294.13 273.559 256.515 280.478 256.515 288.463C256.515 295.028 309.566 304.609 302.115 304.609C272.307 304.609 247.999 307.27 247.999 310.464C247.999 313.658 272.307 316.319 302.115 316.319C331.923 316.319 356.231 313.658 356.231 310.464C356.231 309.222 352.331 307.98 345.94 306.915C378.587 309.399 417.976 310.815 460.382 310.815C572.872 310.815 664.071 300.702 664.071 288.281C664.071 278.529 604.278 270.012 521.773 266.994Z" fill="#3498DB"/>
<path opacity="0.5" d="M607.472 278.528C609.601 277.109 612.085 275.689 614.747 274.27C614.924 274.093 615.102 274.093 615.279 273.915C590.794 270.721 558.502 268.415 521.774 266.995C530.823 258.124 559.744 226.186 533.484 198.685C524.258 188.926 515.919 183.604 508.644 180.41C509.824 186.042 511.486 191.563 513.612 196.91C526.032 228.847 498.353 221.573 490.191 242.864C484.513 257.236 486.642 268.764 493.207 278.35H607.472V278.528Z" fill="#2980B9"/>
<path d="M612.794 278.525H498.352C491.787 269.125 489.835 257.588 495.336 243.039C503.675 221.747 531.177 229.022 518.757 197.085C506.337 165.148 502.611 105.177 559.566 104.822C601.971 104.645 612.795 139.422 615.456 178.455C618.117 217.488 631.425 210.392 640.296 225.474C649.167 240.556 648.28 259.186 619.896 274.267C617.437 275.528 615.064 276.95 612.794 278.525V278.525Z" fill="#2980B9"/>
<path d="M564.711 278.529V164.087" stroke="#723D39" stroke-width="1.5" stroke-miterlimit="10" stroke-linecap="round"/>
<path d="M577.663 175.975L564.711 195.847" stroke="#723D39" stroke-width="1.5" stroke-miterlimit="10" stroke-linecap="round"/>
<path d="M545.726 185.911L564.711 220.51" stroke="#723D39" stroke-width="1.5" stroke-miterlimit="10" stroke-linecap="round"/>
<path d="M577.663 224.945L564.711 242.51" stroke="#723D39" stroke-width="1.5" stroke-miterlimit="10" stroke-linecap="round"/>
<path d="M380.539 259.544L420.638 241.979" stroke="#2E2044" stroke-width="1.525" stroke-miterlimit="10" stroke-linecap="round" stroke-linejoin="round"/>
<path d="M380.539 261.851C388.77 261.851 395.443 260.818 395.443 259.544C395.443 258.27 388.77 257.237 380.539 257.237C372.308 257.237 365.635 258.27 365.635 259.544C365.635 260.818 372.308 261.851 380.539 261.851Z" fill="#053E63"/>
<path d="M385.152 231.155L372.732 241.978L381.071 246.591L390.652 238.962C390.652 238.962 386.571 234.704 385.152 231.155Z" fill="#DE8370"/>
<path d="M372.91 241.979L367.587 245.35C367.587 245.35 375.039 252.27 380.362 256.883C383.023 259.012 387.991 257.77 388.701 257.77C389.588 257.77 388.878 253.512 384.443 254.221C383.024 250.495 381.249 246.769 381.249 246.769C381.249 246.769 375.394 243.398 372.91 241.979Z" fill="#2E2044"/>
<path d="M383.911 188.928C383.911 188.928 402.541 207.381 407.332 210.574C396.508 218.558 380.185 233.999 380.185 233.999L389.944 245.887C389.944 245.887 429.333 218.918 431.285 213.595C433.237 208.272 420.994 192.836 420.994 192.836C420.994 192.836 388.879 184.137 383.911 188.928Z" fill="#1D6898"/>
<path d="M472.093 154.684L509.353 246.592L343.457 250.141L383.911 186.084V249.254" stroke="#2E2044" stroke-width="2" stroke-miterlimit="10" stroke-linecap="round" stroke-linejoin="round"/>
<path d="M383.911 204.187L479.013 171.717" stroke="#2E2044" stroke-width="2" stroke-miterlimit="10" stroke-linecap="round" stroke-linejoin="round"/>
<path d="M374.33 180.411C374.33 180.411 366.346 179.701 365.459 180.943C364.572 182.185 364.04 188.043 367.411 188.75C370.782 189.282 395.622 187.508 395.622 187.508C395.622 187.508 378.411 180.411 374.33 180.411Z" fill="#053E63"/>
<path d="M456.479 147.941C456.479 147.941 466.947 145.457 469.964 146.699C472.981 147.941 475.819 153.441 469.964 156.458C469.964 153.264 463.222 153.797 462.864 156.458L462.332 159.119L456.122 156.458L456.479 147.941Z" fill="#DE8370"/>
<path d="M471.56 157.522C471.56 158.435 471.289 159.327 470.783 160.085C470.276 160.844 469.555 161.435 468.712 161.784C467.869 162.133 466.942 162.225 466.047 162.047C465.152 161.869 464.33 161.429 463.685 160.784C463.04 160.139 462.601 159.317 462.423 158.422C462.245 157.527 462.336 156.6 462.685 155.757C463.034 154.914 463.626 154.194 464.384 153.687C465.143 153.18 466.035 152.909 466.947 152.909C467.554 152.905 468.156 153.021 468.717 153.252C469.279 153.482 469.789 153.822 470.218 154.251C470.648 154.68 470.987 155.19 471.218 155.752C471.448 156.314 471.564 156.915 471.56 157.522V157.522Z" fill="#8D3646"/>
<path d="M392.959 250.139C392.959 259.929 390.056 269.499 384.617 277.639C379.178 285.78 371.447 292.124 362.402 295.871C353.357 299.617 343.404 300.597 333.802 298.688C324.2 296.778 315.38 292.063 308.457 285.14C301.535 278.218 296.82 269.398 294.91 259.796C293 250.194 293.98 240.241 297.727 231.196C301.474 222.151 307.818 214.42 315.958 208.981C324.099 203.542 333.669 200.639 343.459 200.639C356.585 200.645 369.172 205.862 378.454 215.144C387.736 224.425 392.953 237.012 392.959 250.139Z" stroke="#053E63" stroke-width="2" stroke-miterlimit="10" stroke-linecap="round" stroke-linejoin="round"/>
<path d="M343.457 293.435C367.367 293.435 386.75 274.052 386.75 250.142C386.75 226.232 367.367 206.849 343.457 206.849C319.547 206.849 300.164 226.232 300.164 250.142C300.164 274.052 319.547 293.435 343.457 293.435Z" stroke="#2E2044" stroke-width="1.525" stroke-miterlimit="10" stroke-linecap="round" stroke-linejoin="round"/>
<path d="M343.456 254.399C345.808 254.399 347.714 252.492 347.714 250.141C347.714 247.789 345.808 245.883 343.456 245.883C341.104 245.883 339.198 247.789 339.198 250.141C339.198 252.492 341.104 254.399 343.456 254.399Z" fill="#2E2044"/>
<path d="M558.855 245.879C558.855 255.669 555.952 265.239 550.513 273.38C545.074 281.52 537.343 287.864 528.298 291.611C519.253 295.357 509.3 296.338 499.698 294.428C490.096 292.518 481.276 287.803 474.353 280.881C467.431 273.958 462.716 265.138 460.806 255.536C458.896 245.934 459.876 235.981 463.623 226.936C467.37 217.891 473.714 210.16 481.854 204.721C489.995 199.282 499.565 196.379 509.355 196.379C522.481 196.385 535.068 201.602 544.35 210.884C553.632 220.166 558.849 232.753 558.855 245.879V245.879Z" stroke="#053E63" stroke-width="2" stroke-miterlimit="10" stroke-linecap="round" stroke-linejoin="round"/>
<path d="M509.353 289.175C533.263 289.175 552.646 269.792 552.646 245.882C552.646 221.972 533.263 202.589 509.353 202.589C485.443 202.589 466.06 221.972 466.06 245.882C466.06 269.792 485.443 289.175 509.353 289.175Z" stroke="#2E2044" stroke-width="1.525" stroke-miterlimit="10" stroke-linecap="round" stroke-linejoin="round"/>
<path d="M509.352 250.139C511.704 250.139 513.61 248.233 513.61 245.881C513.61 243.529 511.704 241.623 509.352 241.623C507 241.623 505.094 243.529 505.094 245.881C505.094 248.233 507 250.139 509.352 250.139Z" fill="#2E2044"/>
<path d="M436.429 243.575C436.429 247.189 435.357 250.723 433.349 253.728C431.341 256.733 428.487 259.076 425.147 260.459C421.808 261.842 418.134 262.204 414.589 261.499C411.044 260.794 407.787 259.053 405.232 256.497C402.676 253.941 400.935 250.685 400.23 247.14C399.525 243.595 399.887 239.921 401.27 236.581C402.653 233.242 404.996 230.388 408.001 228.38C411.006 226.372 414.539 225.3 418.154 225.3C420.555 225.296 422.933 225.767 425.151 226.684C427.37 227.601 429.386 228.947 431.084 230.645C432.782 232.342 434.128 234.358 435.045 236.577C435.962 238.796 436.432 241.174 436.429 243.575V243.575Z" fill="#053E63"/>
<path d="M436.429 273.915L418.154 243.575" stroke="#2E2044" stroke-width="1.525" stroke-miterlimit="10" stroke-linecap="round" stroke-linejoin="round"/>
<path d="M407.331 164.974C407.331 164.974 455.237 177.394 457.898 188.574C460.559 199.754 443.352 252.979 443.352 252.979C443.352 252.979 433.593 256.173 425.609 250.318C428.27 232.93 430.932 198.864 430.932 198.864C430.932 198.864 374.332 193.009 374.155 180.764C377.701 173.316 398.815 162.49 407.331 164.974Z" fill="#2980B9"/>
<path d="M400.234 141.022C400.234 141.022 405.202 161.422 407.334 164.975C401.479 169.411 394.027 167.636 386.397 173.846C381.581 177.67 376.022 180.449 370.074 182.008C370.074 182.008 363.509 182.363 370.606 161.959C374.83 149.773 382.543 139.097 392.785 131.259L400.234 141.022Z" fill="#2E2044"/>
<path d="M380.007 52.3072C380.007 52.3072 366.7 69.8722 387.107 74.6632C389.236 72.3562 392.962 68.4532 393.849 68.8082C394.736 69.1632 408.043 63.4852 408.043 63.4852H409.462C409.462 63.4852 416.382 66.5012 415.495 59.5852C414.608 52.8432 408.753 47.6972 398.107 44.8582C403.075 39.8902 404.672 27.4702 388.707 30.3092C383.739 29.0672 379.836 36.1642 379.836 36.1642C379.836 36.1642 378.417 34.9222 374.868 36.5192C371.135 38.1132 364.748 51.4242 380.007 52.3072Z" fill="#2E2044"/>
<path d="M409.105 58.5176C409.105 58.5176 412.654 82.1176 395.798 78.0346C394.024 86.5516 395.798 88.3256 395.798 88.3256L385.152 85.1316L387.459 73.4216C387.459 73.4216 381.426 69.3406 385.152 64.3726C389.052 59.2276 393.136 65.7916 393.136 65.7916C396.205 66.1133 399.303 65.6085 402.111 64.3295C404.919 63.0505 407.334 61.0439 409.105 58.5176Z" fill="#DE8370"/>
<path d="M417.977 135.167C417.977 135.167 404.315 87.2568 389.588 84.5988C374.861 81.9408 361.732 134.811 332.101 143.151C302.47 151.491 301.401 159.651 308.148 170.298C314.895 180.945 367.942 200.461 393.137 139.598C399.524 151.131 402.186 153.792 406.267 156.098C410.167 158.405 450.979 170.292 450.979 170.292C455.684 163.253 457.583 154.708 456.302 146.339C448.672 144.038 417.977 135.167 417.977 135.167Z" fill="#56ABE5"/>
<path opacity="0.3" d="M392.959 139.602C392.959 139.602 386.926 124.521 385.33 112.455C385.005 116.411 385.005 120.387 385.33 124.343L382.136 119.375C384.312 127.068 387.793 134.329 392.427 140.844C392.427 138.892 392.959 139.602 392.959 139.602Z" fill="#8B6562"/>
<path opacity="0.3" d="M417.98 135.166L410.88 140.666L419.929 135.698L417.98 135.166Z" fill="#8B6562"/>
<path opacity="0.3" d="M430.929 198.686L436.607 192.831L433.768 197.267C435.567 196.622 437.404 196.088 439.268 195.667C436.429 197.444 430.929 199.931 430.929 199.931V198.686Z" fill="#8B6562"/>
<path d="M332.988 118.133L326.601 121.504L327.666 123.278L332.988 118.133Z" fill="#8D3646"/>
<path d="M387.461 123.101C387.461 123.101 380.896 131.795 371.315 136.053C370.177 134.977 368.928 134.025 367.589 133.214C372.025 120.084 377.88 92.5828 381.251 88.1468C381.251 88.1468 356.234 84.0658 350.378 88.1468C347.007 90.4538 342.039 102.696 338.49 114.406C338.49 114.406 333.699 114.051 332.457 116.006C330.683 118.667 328.021 134.459 328.376 135.346C329.976 138.185 334.763 136.411 334.763 136.411C337.247 144.75 359.958 143.153 364.216 140.311C373.453 139.062 382.073 134.969 388.879 128.601L387.461 123.101Z" fill="#2E2044"/>
<path d="M338.666 114.407C338.666 114.407 334.23 132.15 335.117 136.231L334.052 136.586C334.052 136.586 335.294 119.73 337.068 114.407H338.666Z" fill="#211833"/>
<path d="M373.087 114.407C372.377 113.875 339.73 110.681 339.553 111.568L339.198 112.633C339.198 112.633 371.135 115.472 372.555 116.359L373.087 114.407Z" fill="#211833"/>
<path d="M364.749 86.373L356.232 113.165L358.893 113.697L366.522 86.55L364.749 86.373Z" fill="#211833"/>
<path d="M361.377 112.987V110.148L369.006 111.567L368.651 113.696L361.377 112.987Z" fill="white"/>
<path opacity="0.6" d="M395.798 78.0338C393.871 77.3573 392.115 76.2671 390.653 74.8398C391.363 77.3238 395.444 79.9849 395.444 79.9849L395.798 78.0338Z" fill="#DE8370"/>
<path d="M428.8 251.915L427.381 267.174L436.781 265.4L439.265 253.512C439.265 253.512 431.994 253.689 428.8 251.915Z" fill="#DE8370"/>
<path d="M427.381 267.174L425.429 273.207C425.429 273.207 447.608 274.807 449.204 273.384C450.8 271.961 436.784 265.4 436.784 265.4C436.784 265.4 430.22 266.642 427.381 267.174Z" fill="#2E2044"/>
<path d="M437.139 276.223C445.37 276.223 452.043 275.19 452.043 273.916C452.043 272.642 445.37 271.609 437.139 271.609C428.908 271.609 422.235 272.642 422.235 273.916C422.235 275.19 428.908 276.223 437.139 276.223Z" fill="#053E63"/>
<path opacity="0.5" d="M1181.7 188.221C1165.8 184.721 1171 182.521 1171 169.521C1171 156.521 1136.1 150.821 1130.1 172.321C1124.1 193.821 1110.6 184.321 1104.1 198.821C1100.9 205.921 1103.5 211.321 1107 215.021C1067.3 215.121 1035.3 218.821 1035.3 223.421C1035.3 228.021 1067.8 231.821 1107.9 231.821C1148 231.821 1180.5 228.021 1180.5 223.421C1180.5 222.321 1178.7 221.321 1175.4 220.321C1197.6 216.321 1196.9 191.521 1181.7 188.221Z" fill="#74B8E6"/>
<path opacity="0.5" d="M1192.6 237.922C1192.6 239.322 1184.7 240.422 1174.9 240.422C1165.1 240.422 1157.2 239.322 1157.2 237.922C1157.2 236.522 1165.1 235.422 1174.9 235.422C1184.7 235.422 1192.6 236.522 1192.6 237.922Z" fill="#CCE5F6"/>
<path opacity="0.5" d="M1091.5 206.321C1091.5 208.721 1076.7 210.621 1058.3 210.621C1040 210.621 1025.1 208.721 1025.1 206.321C1025.1 203.921 1039.9 202.021 1058.3 202.021C1076.6 202.021 1091.5 203.921 1091.5 206.321Z" fill="#74B8E6"/>
<path d="M1046.4 133.821C1046.4 133.821 1081.8 139.821 1082.8 90.5214C1083.8 41.2214 1046.3 42.2214 1034.3 48.7214C1022.3 55.2214 1006.8 71.7214 1011.8 101.521C1016.1 127.721 1033.3 135.021 1046.4 133.821Z" fill="#2980B9"/>
<path d="M1047.4 71.8213V206.621" stroke="#723D39" stroke-width="1.5" stroke-miterlimit="10" stroke-linecap="round"/>
<path d="M1055.2 71.8213L1047.4 90.6213" stroke="#723D39" stroke-width="1.5" stroke-miterlimit="10" stroke-linecap="round"/>
<path d="M1035.2 81.2217L1047.4 103.822" stroke="#723D39" stroke-width="1.5" stroke-miterlimit="10" stroke-linecap="round"/>
<path d="M1055.2 101.621L1047.4 117.821" stroke="#723D39" stroke-width="1.5" stroke-miterlimit="10" stroke-linecap="round"/>
<path d="M1063.1 131.221C1072.4 126.921 1082.2 116.221 1082.7 90.6211C1082.9 80.4211 1081.5 72.4211 1078.9 66.1211C1077.84 66.5591 1076.8 67.06 1075.8 67.6211C1059.3 77.1211 1072.1 109.721 1066.3 119.621C1064.42 123.215 1063.33 127.17 1063.1 131.221V131.221Z" fill="#1D6898"/>
<path d="M1091.9 152.122C1091.9 152.122 1114.9 152.122 1114.9 130.622C1114.9 109.122 1100.4 103.122 1103.4 87.3218C1106.4 71.5218 1094.4 56.0218 1077.9 65.5218C1061.4 75.0218 1074.2 107.622 1068.4 117.522C1062.6 127.522 1060.9 153.622 1091.9 152.122Z" fill="#60A5D3"/>
<path d="M1091.9 194.122V118.822" stroke="#723D39" stroke-width="1.5" stroke-miterlimit="10" stroke-linecap="round"/>
<path d="M1091.9 130.522L1097.5 117.822" stroke="#723D39" stroke-width="1.5" stroke-miterlimit="10" stroke-linecap="round"/>
<path d="M1091.5 137.422L1082.7 126.222" stroke="#723D39" stroke-width="1.5" stroke-miterlimit="10" stroke-linecap="round"/>
<path d="M1065.9 187.222H1061.5V224.222H1065.9V187.222Z" fill="#97847A"/>
<path d="M1165.9 187.222H1161.5V224.222H1165.9V187.222Z" fill="#97847A"/>
<path d="M1179 163.521H1048.4V167.921H1179V163.521Z" fill="#C0B59A"/>
<path d="M1179 157.222H1048.4V161.622H1179V157.222Z" fill="#C0B59A"/>
<path d="M1179 151.021H1048.4V155.421H1179V151.021Z" fill="#C0B59A"/>
<path d="M1185.1 186.222H1042.3V190.622H1185.1V186.222Z" fill="#C0B59A"/>
<path d="M1179 180.222H1048.4V184.622H1179V180.222Z" fill="#C0B59A"/>
<path d="M1057.1 168.722C1057.1 168.722 1055.8 179.022 1059.3 182.122C1062.8 185.222 1075.6 185.422 1075.6 185.422C1075.6 185.422 1070.8 201.922 1069.9 205.122C1070.8 208.322 1084.6 213.122 1095.5 208.822C1097.3 194.522 1100.2 175.122 1090.5 173.622C1080 169.122 1071 165.622 1071 165.622L1057.1 168.722Z" fill="#1D6898"/>
<path d="M1077.3 120.222C1077.3 120.222 1079.5 128.722 1072.1 128.522C1071.4 133.522 1071.3 135.322 1071.3 135.322C1071.3 135.322 1068.3 135.622 1067.1 134.122C1065.9 132.622 1060.9 126.622 1062.4 123.922C1063.9 121.222 1065.2 118.622 1065.9 118.422C1066.6 118.322 1077.3 120.222 1077.3 120.222Z" fill="#DE8370"/>
<path d="M1068.8 133.722C1068.3 133.522 1072.1 133.722 1074.1 140.522C1076.1 147.322 1079.3 156.522 1080.8 157.522C1082.3 158.522 1091.5 165.222 1092.1 168.022L1092.8 171.022L1090.5 174.822H1080.8C1077 174.822 1072.2 172.322 1071 168.122C1068.5 169.122 1059.7 169.922 1055.3 168.122C1054.6 167.322 1054.8 165.422 1055.1 157.822C1055.5 150.222 1059.3 141.422 1059.3 141.422L1064.1 139.722L1068.8 133.722Z" fill="#2E2044"/>
<path d="M1076 112.222C1076 112.222 1082 122.022 1071.2 125.522L1070.4 122.222C1070.4 122.222 1067.1 119.722 1064.9 121.922C1062.7 124.122 1065.8 129.522 1069.4 127.122C1070.9 133.422 1071.9 139.422 1064.1 143.222C1056.4 147.022 1056.1 151.422 1055.1 157.322C1054.1 163.222 1051.8 171.922 1047.1 173.722C1047.86 171.279 1047.86 168.665 1047.1 166.222C1047.1 166.222 1040.3 161.422 1043.3 154.722C1046.3 148.022 1056.3 139.422 1055.8 126.722C1055.3 114.022 1060.7 104.422 1076 112.222Z" fill="#221834"/>
<path d="M1071 168.222C1071 168.222 1065.9 153.822 1064.7 149.622C1065.5 155.722 1069.9 168.622 1069.9 168.622L1071 168.222Z" fill="#211833"/>
<path d="M1079.3 156.822C1079.3 156.822 1075.5 156.322 1075.6 157.822C1075.6 158.722 1079.3 156.822 1079.3 156.822Z" fill="#211833"/>
<path d="M1079.7 157.422C1079.7 157.422 1077.2 157.922 1077.3 159.022C1077.5 160.222 1079.7 157.422 1079.7 157.422Z" fill="#211833"/>
<path d="M1092.8 171.022C1092.8 171.022 1098 172.922 1097.5 174.822C1097 176.822 1095.7 177.322 1094.1 176.022C1093.07 175.232 1091.8 174.809 1090.5 174.822L1092.8 171.022Z" fill="#DE8370"/>
<path opacity="0.6" d="M1075.6 185.522L1077.1 179.722C1077.1 179.722 1072.8 185.722 1071.8 185.422C1076.5 185.322 1075.6 185.522 1075.6 185.522Z" fill="#2E2044"/>
<path d="M1084.1 210.522L1080.8 220.522L1075.2 223.122L1079.3 209.922L1084.1 210.522Z" fill="#CC6262"/>
<path d="M1080.6 220.622C1079.7 220.122 1077.3 220.822 1075.1 223.122C1075.4 226.322 1086.8 226.422 1086.9 225.622C1087.2 224.822 1080.6 220.622 1080.6 220.622Z" fill="#211833"/>
<path d="M1073.8 208.222L1070.1 224.322L1075.6 221.822L1079.3 209.922L1073.8 208.222Z" fill="#DE8370"/>
<path d="M1075.6 221.822C1074.7 221.322 1072.3 222.022 1070.1 224.322C1070.4 227.522 1081.8 227.622 1081.9 226.822C1082.1 226.022 1075.6 221.822 1075.6 221.822Z" fill="#2E2044"/>
<path opacity="0.6" d="M1072.1 128.522L1070.3 127.622L1072 129.222L1072.1 128.522Z" fill="#DE8370"/>
<path d="M1150.5 207.021L1154.2 223.121L1148.7 220.621L1145 208.721L1150.5 207.021Z" fill="#DE8370"/>
<path d="M1148.7 220.622C1149.6 220.122 1152 220.822 1154.2 223.122C1153.9 226.322 1142.5 226.422 1142.4 225.622C1142.3 224.822 1148.7 220.622 1148.7 220.622Z" fill="#2E2044"/>
<path d="M1127.4 207.122L1129.3 223.022L1123.8 220.522L1121.9 207.122H1127.4Z" fill="#DE8370"/>
<path d="M1123.8 220.522C1124.7 220.022 1127.1 220.722 1129.3 223.022C1129 226.222 1117.6 226.322 1117.5 225.522C1117.4 224.722 1123.8 220.522 1123.8 220.522Z" fill="#2E2044"/>
<path d="M1136.5 171.021C1136.5 171.021 1119 184.821 1117.7 188.621C1116.4 192.421 1119.8 216.221 1119.8 216.221C1119.8 216.221 1126.6 219.021 1131.3 215.721C1132.8 203.921 1132.4 193.421 1132.7 192.121C1133 190.821 1136.5 188.021 1136.5 188.021C1136.5 188.021 1133.4 192.821 1134.2 195.321C1135 197.821 1144.3 218.821 1144.3 218.821C1144.3 218.821 1150.8 219.321 1153.6 215.021C1152.1 204.721 1149.8 191.521 1149.8 191.521C1151.6 190.521 1164.7 189.021 1163.3 172.421C1163.2 172.621 1146.7 175.321 1136.5 171.021Z" fill="#2E2044"/>
<path d="M1154.1 123.422C1154.1 123.422 1156.1 121.022 1158.3 118.922C1160.5 116.822 1163.3 111.522 1158.3 107.522C1153.3 103.522 1137.9 98.6217 1135.3 100.522C1132.7 102.422 1134.3 105.922 1140.8 108.122C1135.5 107.322 1134 109.422 1142.7 112.922C1147.3 114.322 1153.3 116.022 1153.3 116.022C1152.67 116.549 1152.28 117.304 1152.2 118.122C1152.2 119.322 1154.1 123.422 1154.1 123.422Z" fill="#2E2044"/>
<path d="M1142.7 112.922C1142.7 112.922 1139.2 123.722 1148 123.722L1148.5 127.222C1148.91 127.605 1149.38 127.903 1149.91 128.1C1150.43 128.297 1150.98 128.389 1151.54 128.371C1152.1 128.352 1152.65 128.223 1153.16 127.992C1153.66 127.76 1154.12 127.431 1154.5 127.022L1153.7 120.022C1153.7 120.022 1157.7 118.522 1157.2 116.022C1156.7 113.522 1152.7 115.522 1152.7 115.522C1152.75 114.863 1152.61 114.205 1152.3 113.622C1149.1 114.281 1145.77 114.038 1142.7 112.922V112.922Z" fill="#DE8370"/>
<path d="M1148.5 127.222C1148.5 127.222 1139.5 129.222 1138.5 132.222C1137.5 135.222 1133 148.022 1133 148.022L1121.4 137.922C1120.46 138.212 1119.58 138.69 1118.82 139.325C1118.07 139.961 1117.45 140.742 1117 141.622C1118.8 151.122 1131 170.022 1139.5 159.422C1137.7 166.822 1135.2 169.922 1136.5 171.122C1137.8 172.322 1162.5 178.022 1165 170.522C1165.5 167.222 1165 165.822 1165 165.822C1165 165.822 1169.7 178.522 1175.5 181.322C1178.8 180.022 1179.5 178.422 1179.5 178.422C1179.5 178.422 1180 171.322 1175.2 157.722C1170.4 144.122 1165.2 129.622 1163.2 128.522C1161.2 127.322 1154.4 127.122 1154.4 127.122C1154.4 127.122 1151 130.922 1148.5 127.222Z" fill="#56ABE5"/>
<path d="M1139.5 159.321C1139.5 159.321 1141.9 147.621 1141 139.021C1140.8 148.021 1137.5 161.221 1137.5 161.221L1139.5 159.321Z" fill="#256996"/>
<path d="M1165 165.722C1165 165.722 1157.8 144.722 1157.3 140.422C1158 150.222 1162.5 167.022 1165 168.522V165.722Z" fill="#256996"/>
<path d="M1121.4 137.822C1121.4 137.822 1120 133.322 1118.6 133.622C1117.3 134.022 1118.6 135.722 1118.6 135.722C1118.6 135.722 1112.9 131.822 1111.3 134.322C1109.6 136.822 1117.7 140.422 1117.7 140.422L1121.4 137.822Z" fill="#DE8370"/>
<path d="M1179.5 178.222C1179.5 178.222 1185.5 178.722 1185.5 180.122C1185.5 181.522 1179.7 183.422 1175.5 181.122C1176.76 180.061 1178.1 179.092 1179.5 178.222V178.222Z" fill="#DE8370"/>
<path opacity="0.6" d="M1148 123.722C1148 123.722 1150 122.422 1151.9 121.222C1150.88 122.626 1149.63 123.844 1148.2 124.822L1148 123.722Z" fill="#DE8370"/>
<path d="M1136.5 188.122L1145 179.722L1143.7 176.722L1143.5 179.722L1136.5 188.122Z" fill="#211833"/>
<path d="M1132.7 192.222L1129.3 189.922L1131 192.222L1129.3 193.222H1132.6L1132.7 192.222Z" fill="#211833"/>
<path d="M1149.6 191.722L1148 188.922L1148.7 190.922L1146.5 191.522L1149.6 191.722Z" fill="#211833"/>
<path opacity="0.5" d="M744.888 185.744C738.704 179.88 740.836 169.644 748.62 167.937C759.283 165.591 755.871 164.098 755.871 155.355C755.871 146.612 779.332 142.772 783.388 157.272C787.444 171.772 796.503 165.372 800.875 175.079C803.327 180.624 800.662 184.679 797.783 187.021C823.693 188.514 840.753 191.073 840.753 193.952C840.753 198.537 797.996 202.269 745.322 202.269C692.648 202.269 649.888 198.539 649.888 193.954C649.888 189.472 692.325 185.744 744.888 185.744Z" fill="#74B8E6"/>
<path opacity="0.5" d="M668.654 205.896C668.654 207.922 657.354 209.521 643.277 209.521C629.309 209.521 617.9 207.921 617.9 205.896C617.9 203.871 629.2 202.271 643.277 202.271C657.245 202.271 668.654 203.871 668.654 205.896Z" fill="#99CBED"/>
<path d="M689.77 190.861H750.01C750.01 190.861 768.67 182.861 761.739 167.403C754.808 151.945 740.414 162.072 734.016 139.147C727.618 116.222 690.406 122.3 690.406 136.161C690.406 150.022 695.951 152.368 678.997 156.1C661.936 159.726 661.936 188.942 689.77 190.861Z" fill="#60A5D3"/>
<path d="M712.797 190.862V147.678" stroke="#723D39" stroke-width="1.5" stroke-miterlimit="10" stroke-linecap="round"/>
<path d="M721.54 154.075L712.797 166.444" stroke="#723D39" stroke-width="1.5" stroke-miterlimit="10" stroke-linecap="round"/>
<path d="M706.613 169.216L712.797 177.533" stroke="#723D39" stroke-width="1.5" stroke-miterlimit="10" stroke-linecap="round"/>
<path d="M709.705 151.41L712.797 157.914" stroke="#723D39" stroke-width="1.5" stroke-miterlimit="10" stroke-linecap="round"/>
<path d="M674.839 126.352C674.839 126.352 637.093 132.752 636.027 80.183C634.961 27.614 674.946 28.683 687.741 35.613C700.536 42.543 717.063 60.137 711.732 91.913C707.04 119.741 688.807 127.632 674.839 126.352Z" fill="#2980B9"/>
<path d="M673.773 60.2441V194.06" stroke="#723D39" stroke-width="1.5" stroke-miterlimit="10" stroke-linecap="round"/>
<path d="M665.349 60.2441L673.772 80.1831" stroke="#723D39" stroke-width="1.5" stroke-miterlimit="10" stroke-linecap="round"/>
<path d="M686.675 70.1602L673.773 94.3642" stroke="#723D39" stroke-width="1.5" stroke-miterlimit="10" stroke-linecap="round"/>
<path d="M665.349 91.9121L673.772 109.292" stroke="#723D39" stroke-width="1.5" stroke-miterlimit="10" stroke-linecap="round"/>
<path opacity="0.5" d="M940.765 185.53C972.447 185.53 998.13 182.904 998.13 179.666C998.13 176.427 972.447 173.802 940.765 173.802C909.083 173.802 883.4 176.427 883.4 179.666C883.4 182.904 909.083 185.53 940.765 185.53Z" fill="#74B8E6"/>
<path opacity="0.5" d="M1010.6 164.312C1010.6 166.338 998.343 167.937 983.205 167.937C968.067 167.937 955.805 166.337 955.805 164.312C955.805 162.287 968.067 160.687 983.205 160.687C998.236 160.687 1010.6 162.393 1010.6 164.312Z" fill="#74B8E6"/>
<path d="M965.076 134.35C965.076 134.35 989.6 134.35 989.6 111.425C989.6 88.5 974.139 82.103 977.338 65.256C980.537 48.409 967.738 31.882 950.148 42.011C932.558 52.14 946.203 86.901 940.019 97.457C933.834 108.119 932.022 135.949 965.076 134.35Z" fill="#2980B9"/>
<path d="M965.076 179.133V98.8428" stroke="#723D39" stroke-width="1.5" stroke-miterlimit="10" stroke-linecap="round"/>
<path d="M965.076 74.1054C960.065 61.3054 945.883 63.4424 953.347 44.2504C953.88 42.8644 954.413 41.4784 954.84 39.9854C953.209 40.5376 951.637 41.2522 950.148 42.1184C932.555 52.2484 946.203 87.0084 940.019 97.5644C934.901 106.307 932.768 126.886 951.001 132.751C951.293 132.239 951.543 131.704 951.747 131.151C957.078 117.823 943.537 109.826 954.733 102.895C965.929 95.9643 970.62 88.5004 965.076 74.1054Z" fill="#1D6898"/>
<path d="M926.689 144.479C926.689 144.479 944.282 142.346 949.614 129.018C954.946 115.69 941.404 107.693 952.6 100.762C963.796 93.8313 968.487 86.3673 962.943 71.9733C957.932 59.1733 943.75 61.3103 951.214 42.1183C958.678 22.9263 950.681 -0.105652 924.024 0.00134799C902.166 0.108348 894.702 7.46535 893.102 30.9233C891.502 54.3813 883.502 50.1163 878.174 59.1793C872.846 68.2423 873.374 79.4383 890.436 88.5013C907.498 97.5643 902.165 101.829 893.636 107.161C885.107 112.493 893.209 144.479 926.689 144.479Z" fill="#60A5D3"/>
<path d="M925.624 179.133V18.6602" stroke="#723D39" stroke-width="1.5" stroke-miterlimit="10" stroke-linecap="round"/>
<path d="M936.824 25.0586C936.824 26.6586 925.624 49.5826 925.624 49.5826" stroke="#723D39" stroke-width="1.5" stroke-miterlimit="10" stroke-linecap="round"/>
<path d="M911.762 37.3203L925.623 59.1783" stroke="#723D39" stroke-width="1.5" stroke-miterlimit="10" stroke-linecap="round"/>
<path d="M936.82 54.9131L925.624 75.7051" stroke="#723D39" stroke-width="1.5" stroke-miterlimit="10" stroke-linecap="round"/>
<path d="M914.428 69.3086L925.624 84.7696" stroke="#723D39" stroke-width="1.5" stroke-miterlimit="10" stroke-linecap="round"/>
<path d="M944.284 84.7686L925.624 116.757" stroke="#723D39" stroke-width="1.5" stroke-miterlimit="10" stroke-linecap="round"/>
<path d="M911.762 100.763L925.623 122.088" stroke="#723D39" stroke-width="1.5" stroke-miterlimit="10" stroke-linecap="round"/>
<path d="M827.314 114.197C827.314 114.197 825.928 161.432 821.769 182.225C818.075 182.025 814.374 182.025 810.68 182.225C810.68 182.225 809.294 140.641 809.934 126.779C806.629 155.568 802.577 182.225 802.577 182.225C799.05 182.845 795.441 182.845 791.914 182.225C790.528 169.963 789.781 124.225 791.914 113.238C794.58 106.738 804.069 104.068 804.069 104.068L823.902 106.307L827.314 114.197Z" fill="#2E2044"/>
<path d="M804.283 59.818C804.283 59.818 794.683 61.631 791.275 67.069C787.867 72.507 781.675 94.792 781.359 100.123C781.043 105.454 792.875 114.198 794.901 115.051C797.353 113.771 799.701 111.106 799.486 109.4C804.286 108.867 821.878 108.654 821.878 108.654C823.016 111.097 824.98 113.061 827.423 114.199C832.008 111.533 837.339 102.79 836.273 96.073C835.207 89.356 828.489 66.218 825.61 63.552C822.731 60.886 815.91 59.5 815.91 59.5C815.91 59.5 809.721 62.484 804.283 59.818Z" fill="#56ABE5"/>
<path d="M801.298 44.4642C801.298 44.4642 800.232 48.7292 802.791 50.5422C805.35 52.4612 807.056 52.8882 807.056 53.5282C807.056 51.1822 807.589 43.5052 807.269 43.7182C807.056 43.9312 801.298 44.4642 801.298 44.4642Z" fill="#2E2044"/>
<path d="M818.464 44.8906C818.464 44.8906 821.45 53.6336 812.919 54.2736C813.075 55.691 813.075 57.1212 812.919 58.5386C812.919 58.5386 807.908 61.2046 807.055 57.2586V50.5416C807.055 50.5416 802.044 48.4086 806.309 44.8906H818.464Z" fill="#DE8370"/>
<path d="M817.718 40.8383C817.718 40.8383 818.358 33.6943 809.508 33.6943C801.085 33.6943 800.658 42.3313 801.298 44.4633C803.165 44.7712 805.056 44.9141 806.949 44.8903C806.949 44.8903 813.453 40.9453 817.718 40.8383Z" fill="#256996"/>
<path d="M806.416 44.8898C806.416 44.8898 823.156 46.2758 824.542 43.8238C825.928 41.3718 819.742 40.9448 817.825 40.8378C815.908 40.7308 808.016 41.5848 806.416 44.8898Z" fill="#256996"/>
<path opacity="0.6" d="M812.919 54.3801C812.919 54.3801 809.934 53.8471 808.441 52.2471C808.974 53.8471 812.919 55.5521 812.919 55.5521V54.3801Z" fill="#DE8370"/>
<path d="M807.055 57.3649C807.055 57.3649 805.029 57.2579 804.176 59.8169C804.709 61.6299 807.376 62.5889 810.04 62.4829C813.772 62.4829 815.478 60.7769 815.798 59.3909C816.011 58.5379 813.772 56.9389 812.919 57.8979C812.919 58.6449 808.761 60.0309 807.055 57.3649Z" fill="#2E2044"/>
<path opacity="0.6" d="M799.485 109.399C799.485 109.399 796.073 100.656 795.966 98.5232C795.753 96.3902 798.845 79.1172 798.845 79.1172C798.845 79.1172 797.032 97.2432 797.779 99.3762C798.526 101.509 801.191 109.186 801.191 109.186L799.485 109.399Z" fill="#053E63"/>
<path opacity="0.6" d="M821.876 108.759C821.876 108.759 827.421 104.814 826.141 98.4163C824.861 92.0183 822.622 84.3443 823.156 77.9443C822.41 83.5953 821.876 86.3673 823.156 91.9123C824.328 97.5633 826.994 100.544 821.876 108.759Z" fill="#053E63"/>
<path opacity="0.6" d="M810.041 125.82L809.934 130.938L814.945 118.676L810.041 125.82Z" fill="#2E2044"/>
<path opacity="0.6" d="M817.718 62.4834C817.718 62.4834 813.666 65.7884 809.401 65.2554C812.813 66.6414 815.692 65.8954 817.718 62.4834Z" fill="#256996"/>
<path opacity="0.6" d="M817.718 84.7686C817.718 84.7686 812.387 95.3246 804.603 98.8436C809.614 98.8436 817.078 92.5526 817.718 84.7686Z" fill="#053E63"/>
<path d="M818.997 60.3516C818.997 60.3516 821.023 60.3516 821.876 61.4176C819.957 66.4286 817.184 87.4346 798.525 106.734C797.927 105.582 797.461 104.366 797.139 103.109C797.139 103.109 813.026 84.9826 818.997 60.3516Z" fill="#2E2044"/>
<path d="M787.329 109.399C785.642 110.633 784.256 112.234 783.277 114.081C782.298 115.928 781.752 117.973 781.678 120.062C781.358 127.313 782.744 126.779 782.744 126.779C782.744 126.779 780.931 135.842 783.064 137.979C785.197 140.116 789.564 139.792 790.954 136.699C792.34 133.713 792.98 113.881 792.98 113.881C792.98 113.881 788.715 110.679 787.329 109.399Z" fill="#2E2044"/>
<path opacity="0.6" d="M782.744 126.886C782.744 126.886 787.755 126.566 789.675 116.97C789.888 121.022 788.395 127.313 782.744 128.379V126.886Z" fill="#053E63"/>
<path d="M799.485 182.651V188.835L794.367 190.541V182.651C794.474 182.651 797.992 182.758 799.485 182.651Z" fill="#DE8370"/>
<path d="M799.485 188.835C799.485 188.835 795.433 189.368 794.367 190.541C794.075 190.883 793.915 191.318 793.915 191.767C793.915 192.216 794.075 192.651 794.367 192.993C794.367 192.993 804.283 193.953 805.136 192.993C805.989 192.033 802.577 189.475 799.485 188.835Z" fill="#2E2044"/>
<path d="M819.104 182.222V188.833L813.986 190.542V182.222C813.986 182.222 816.865 182.122 819.104 182.222Z" fill="#DE8370"/>
<path d="M819.105 188.835C819.105 188.835 815.053 189.368 813.987 190.541C813.695 190.883 813.535 191.318 813.535 191.767C813.535 192.216 813.695 192.651 813.987 192.993C813.987 192.993 823.903 193.953 824.756 192.993C825.609 192.033 822.09 189.475 819.105 188.835Z" fill="#2E2044"/>
</g>
<defs>
<clipPath id="clip0_3008_54338">
<rect width="944.654" height="316.321" fill="white" transform="translate(248)"/>
</clipPath>
</defs>
</svg>
