<svg width="257" height="257" viewBox="0 0 257 257" fill="none" xmlns="http://www.w3.org/2000/svg">
<path d="M210.74 37.0439C181.869 37.0439 181.823 78.0971 210.74 78.0971C239.658 78.0971 239.673 37.0439 210.74 37.0439Z" fill="#EBEBEB"/>
<path d="M228.308 61.418C226.766 68.4804 220.917 74.6072 210.75 74.6072C186.757 74.6072 186.793 40.5342 210.75 40.5342C210.91 40.5342 211.064 40.5342 211.223 40.5342C188.674 40.9454 188.787 73.2143 211.665 73.2143C221.02 73.2246 226.561 67.8481 228.308 61.418Z" fill="#DBDBDB"/>
<path d="M210.925 45.0263C211.114 45.0206 211.298 45.0888 211.438 45.2163C211.578 45.3439 211.663 45.5209 211.675 45.71V46.8562C213.68 46.9891 215.606 47.6818 217.237 48.8556C217.514 49.0561 217.673 49.2257 217.673 49.5136C217.659 49.7154 217.566 49.9034 217.414 50.0371C217.262 50.1708 217.063 50.2393 216.861 50.228C216.654 50.2348 216.452 50.1632 216.296 50.0276C214.936 48.9896 213.315 48.3474 211.613 48.172V56.1699C216.363 57.0848 218.362 58.7399 218.362 61.5155C218.362 64.5481 215.581 66.6863 211.68 66.8045V69.0301C211.665 69.2178 211.579 69.3927 211.441 69.5202C211.302 69.6477 211.121 69.7185 210.932 69.7185C210.744 69.7185 210.563 69.6477 210.424 69.5202C210.286 69.3927 210.2 69.2178 210.184 69.0301V66.7737C207.609 66.6086 205.149 65.6396 203.153 64.0032C203.051 63.939 202.966 63.8506 202.905 63.7457C202.845 63.6408 202.812 63.5227 202.809 63.4018C202.827 63.2069 202.917 63.0256 203.061 62.8934C203.205 62.7613 203.394 62.6878 203.59 62.6874C203.797 62.6806 203.999 62.7522 204.155 62.8878C205.846 64.385 207.975 65.2971 210.226 65.4887V57.3418C205.538 56.4012 203.6 54.8283 203.6 51.9705C203.6 49.1126 206.35 46.8819 210.164 46.7996V45.71C210.175 45.5186 210.261 45.3392 210.403 45.2111C210.546 45.083 210.733 45.0165 210.925 45.0263ZM210.226 55.8872V48.0846C207.193 48.1412 205.194 49.8014 205.194 51.8574C205.209 53.8003 206.211 54.9979 210.226 55.8872ZM211.598 57.6296V65.5195C214.723 65.4578 216.738 63.8028 216.738 61.6285C216.769 59.6599 215.674 58.4572 211.613 57.6296H211.598Z" fill="#DBDBDB"/>
<path d="M59.851 69.0815C38.263 69.0815 38.227 99.7776 59.851 99.7776C81.475 99.7776 81.4698 69.0815 59.851 69.0815Z" fill="#EBEBEB"/>
<path d="M72.9877 87.3078C71.8261 92.5865 67.4468 97.1457 59.8447 97.1457C41.9061 97.1457 41.9318 71.6719 59.8447 71.6719H60.1994C43.3402 71.9803 43.4224 96.1074 60.5283 96.1074C67.5085 96.1177 71.6667 92.0931 72.9877 87.3078Z" fill="#DBDBDB"/>
<path d="M59.9785 75.0437C60.1205 75.0395 60.2585 75.0908 60.3632 75.1868C60.4678 75.2828 60.5308 75.4159 60.5388 75.5577V76.4109C62.0372 76.5124 63.4774 77.0304 64.6971 77.9067C64.9027 78.0557 65.0209 78.1842 65.0209 78.4207C65.0053 78.5679 64.9336 78.7035 64.8206 78.7992C64.7077 78.8949 64.5622 78.9434 64.4144 78.9347C64.26 78.9405 64.1093 78.8872 63.9929 78.7856C62.9769 78.0083 61.7652 77.5279 60.4925 77.3978V83.3756C64.0391 84.0593 65.5349 85.2774 65.5349 87.3746C65.5349 89.6362 63.4789 91.2398 60.5388 91.3272V92.9926C60.5388 93.1412 60.4798 93.2837 60.3747 93.3888C60.2696 93.4938 60.1271 93.5528 59.9785 93.5528C59.83 93.5528 59.6875 93.4938 59.5824 93.3888C59.4773 93.2837 59.4183 93.1412 59.4183 92.9926V91.3067C57.4946 91.191 55.6563 90.4716 54.1652 89.2507C54.0868 89.2054 54.0217 89.1402 53.9766 89.0616C53.9314 88.9831 53.9078 88.8941 53.9082 88.8035C53.9257 88.6617 53.9945 88.5313 54.1014 88.4366C54.2084 88.342 54.3462 88.2897 54.489 88.2895C54.6429 88.2867 54.7926 88.3396 54.9105 88.4385C56.1791 89.5615 57.7763 90.2447 59.4645 90.3866V84.2597C55.9591 83.5555 54.5147 82.3785 54.5147 80.2402C54.5147 78.102 56.5707 76.4366 59.4183 76.375V75.5577C59.4263 75.4159 59.4893 75.2828 59.5939 75.1868C59.6986 75.0908 59.8366 75.0395 59.9785 75.0437ZM59.4645 83.1649V77.3361C57.1978 77.3773 55.7021 78.616 55.7021 80.158C55.7021 81.6075 56.4525 82.507 59.4645 83.17V83.1649ZM60.4925 84.4653V90.366C62.8261 90.3249 64.3475 89.081 64.3475 87.4568C64.3475 85.9919 63.5251 85.0924 60.4925 84.4705V84.4653Z" fill="#DBDBDB"/>
<path d="M40.971 138.348C14.978 143.01 21.8399 181.524 47.8791 176.847C73.9184 172.169 67.0102 133.676 40.971 138.348Z" fill="#DBDBDB"/>
<path d="M43.4127 137.906C18.6379 142.378 25.505 180.861 50.3209 176.41C75.1368 171.959 68.2286 133.455 43.4127 137.906Z" fill="#EBEBEB"/>
<path d="M62.5798 158.065C62.4462 164.927 58.4678 171.573 49.7298 173.136C29.139 176.831 23.4387 144.866 43.9987 141.18C44.1323 141.18 44.266 141.134 44.3996 141.119C25.1195 144.979 30.645 175.223 50.2798 171.702C58.2879 170.262 62.1532 164.341 62.5798 158.065Z" fill="#DBDBDB"/>
<path d="M44.9027 145.369C45.0707 145.34 45.2434 145.378 45.3843 145.474C45.5252 145.57 45.6235 145.717 45.6583 145.883L45.8536 146.958C47.621 146.785 49.3996 147.143 50.9628 147.986C51.2352 148.135 51.3997 148.268 51.4459 148.536C51.4745 148.715 51.432 148.899 51.3274 149.048C51.2228 149.196 51.0643 149.298 50.8857 149.332C50.7975 149.351 50.7065 149.352 50.6181 149.334C50.5297 149.316 50.4459 149.281 50.3717 149.23C49.0583 148.472 47.5523 148.115 46.0386 148.202L47.3648 155.742C51.595 155.865 53.5842 157.089 54.0468 159.715C54.5608 162.558 52.5048 164.994 49.1997 165.703L49.575 167.79C49.5902 167.874 49.5886 167.961 49.5703 168.045C49.5521 168.128 49.5175 168.208 49.4686 168.278C49.4196 168.349 49.3573 168.409 49.2852 168.455C49.213 168.501 49.1325 168.533 49.0481 168.548C48.9637 168.563 48.8772 168.562 48.7934 168.544C48.7097 168.525 48.6303 168.491 48.5599 168.442C48.4895 168.393 48.4295 168.331 48.3831 168.258C48.3368 168.186 48.3052 168.106 48.29 168.021L47.9096 165.904C45.6324 166.132 43.3445 165.589 41.4126 164.362C41.2778 164.303 41.1654 164.203 41.0922 164.075C41.0189 163.948 40.9887 163.8 41.006 163.654C41.0233 163.508 41.0872 163.372 41.1883 163.265C41.2893 163.158 41.4221 163.087 41.5668 163.061C41.6551 163.044 41.7459 163.044 41.8341 163.061C41.9223 163.079 42.0061 163.114 42.0808 163.164C43.7394 164.294 45.7342 164.824 47.7348 164.665L46.383 157.027C42.2042 156.862 40.2818 155.685 39.7987 153.007C39.3155 150.329 41.2996 147.811 44.5583 147.148L44.3733 146.12C44.3476 145.951 44.3884 145.778 44.487 145.638C44.5857 145.498 44.7347 145.402 44.9027 145.369ZM46.1414 155.649L44.8256 148.34C42.2556 148.854 40.801 150.725 41.1454 152.653C41.4743 154.477 42.5332 155.449 46.1414 155.66V155.649ZM47.6115 157.073L48.9376 164.48C51.6104 163.966 53.0753 162.08 52.7104 160.039C52.3763 158.194 51.2352 157.232 47.6115 157.083V157.073Z" fill="#DBDBDB"/>
<path d="M208.046 132.345C188.612 135.835 193.747 164.624 213.212 161.129C232.677 157.634 227.517 128.85 208.046 132.345Z" fill="#DBDBDB"/>
<path d="M209.871 132.016C191.367 135.341 196.507 164.135 215.037 160.8C233.566 157.464 228.426 128.69 209.871 132.016Z" fill="#EBEBEB"/>
<path d="M224.201 147.086C224.104 152.226 221.117 157.186 214.595 158.358C199.2 161.118 194.939 137.222 210.308 134.467L210.611 134.416C196.219 137.305 200.331 159.916 215.006 157.284C221.02 156.21 223.883 151.779 224.201 147.086Z" fill="#DBDBDB"/>
<path d="M213.572 137.582C213.698 137.604 213.812 137.671 213.891 137.772C213.97 137.873 214.008 138 213.999 138.127L213.901 138.934C215.204 139.189 216.401 139.83 217.335 140.774C217.414 140.833 217.478 140.911 217.518 141.001C217.559 141.091 217.575 141.19 217.566 141.288C217.557 141.356 217.535 141.421 217.5 141.48C217.466 141.54 217.42 141.591 217.366 141.632C217.311 141.673 217.249 141.703 217.183 141.72C217.116 141.737 217.048 141.74 216.98 141.73C216.912 141.724 216.847 141.705 216.787 141.673C216.727 141.641 216.674 141.598 216.63 141.545C215.856 140.718 214.855 140.137 213.752 139.875L213.089 145.529C216.086 146.557 217.242 147.847 217.011 149.826C216.759 151.969 214.78 153.275 212.241 153.059L212.056 154.637C212.034 154.762 211.968 154.875 211.868 154.954C211.768 155.033 211.643 155.072 211.516 155.063C211.389 155.043 211.274 154.976 211.194 154.875C211.114 154.774 211.075 154.647 211.084 154.519L211.275 152.925C209.597 152.597 208.077 151.718 206.957 150.427C206.893 150.372 206.843 150.302 206.813 150.223C206.782 150.144 206.772 150.059 206.782 149.975C206.8 149.842 206.869 149.721 206.975 149.639C207.081 149.556 207.214 149.518 207.348 149.533C207.483 149.544 207.609 149.609 207.697 149.713C208.639 150.885 209.954 151.7 211.424 152.021L212.102 146.254C209.147 145.226 208.021 143.971 208.262 141.951C208.504 139.931 210.462 138.559 212.935 138.79L213.027 138.019C213.046 137.891 213.113 137.775 213.214 137.694C213.315 137.613 213.443 137.573 213.572 137.582ZM212.22 145.215L212.873 139.695C210.904 139.505 209.47 140.522 209.301 141.982C209.141 143.355 209.712 144.28 212.22 145.215ZM212.966 146.552L212.308 152.144C214.338 152.339 215.787 151.322 215.967 149.785C216.132 148.381 215.525 147.446 212.966 146.552Z" fill="#DBDBDB"/>
<path d="M24.1738 202.012L49.9972 201.889L75.8205 201.843L127.472 201.755L179.124 201.843L204.948 201.889L230.771 202.012L204.948 202.141L179.124 202.187L127.472 202.269L75.8205 202.182L49.9972 202.141L24.1738 202.012Z" fill="#263238"/>
<path d="M128.5 241.729C184.983 241.729 230.771 235.465 230.771 227.738C230.771 220.011 184.983 213.747 128.5 213.747C72.0176 213.747 26.2295 220.011 26.2295 227.738C26.2295 235.465 72.0176 241.729 128.5 241.729Z" fill="#EBEBEB"/>
<path d="M195.757 52.937H110.269V220.753H195.757V52.937Z" fill="#37474F"/>
<path d="M207.065 64.7744H195.757V197.345H207.065V64.7744Z" fill="#455A64"/>
<path d="M198.779 64.7744H195.757V197.345H198.779V64.7744Z" fill="#263238"/>
<path d="M139.464 155.454H121.155V163.611H139.464V155.454Z" fill="#EBEBEB"/>
<path d="M162.167 155.454H143.858V163.611H162.167V155.454Z" fill="#EBEBEB"/>
<path d="M184.875 155.454H166.566V163.611H184.875V155.454Z" fill="#EBEBEB"/>
<path d="M139.464 167.04H121.155V175.197H139.464V167.04Z" fill="#EBEBEB"/>
<path d="M162.167 167.04H143.858V175.197H162.167V167.04Z" fill="#EBEBEB"/>
<path d="M184.875 167.04H166.566V175.197H184.875V167.04Z" fill="#EBEBEB"/>
<path d="M139.464 178.625H121.155V186.783H139.464V178.625Z" fill="#EBEBEB"/>
<path d="M162.167 178.625H143.858V186.783H162.167V178.625Z" fill="#EBEBEB"/>
<path d="M184.875 178.625H166.566V186.783H184.875V178.625Z" fill="#EBEBEB"/>
<path d="M139.464 190.211H121.155V198.368H139.464V190.211Z" fill="#EBEBEB"/>
<path d="M162.167 190.211H143.858V198.368H162.167V190.211Z" fill="#EBEBEB"/>
<path d="M184.875 190.211H166.566V198.368H184.875V190.211Z" fill="#EBEBEB"/>
<path d="M139.464 201.796H121.155V209.954H139.464V201.796Z" fill="#263238"/>
<path d="M162.167 201.796H143.858V209.954H162.167V201.796Z" fill="#6FBD44"/>
<path d="M184.875 201.796H166.566V209.954H184.875V201.796Z" fill="#A6A6A6"/>
<path d="M191.152 43.4692H114.874V150.643H191.152V43.4692Z" fill="#263238"/>
<path d="M186.356 76.0518H119.675V127.904H186.356V76.0518Z" fill="white"/>
<path d="M178.759 23.6235H127.271V62.41H178.759V23.6235Z" fill="#EBEBEB"/>
<path d="M163.581 28.6455H142.45V29.4422H163.581V28.6455Z" fill="#C7C7C7"/>
<path d="M158.44 30.9224H147.59V31.7191H158.44V30.9224Z" fill="#C7C7C7"/>
<path d="M153.3 37.7583H132.17V38.555H153.3V37.7583Z" fill="#C7C7C7"/>
<path d="M158.44 40.0356H132.17V40.8323H158.44V40.0356Z" fill="#C7C7C7"/>
<path d="M145.842 42.3179H132.17V43.1146H145.842V42.3179Z" fill="#C7C7C7"/>
<path d="M155.588 44.5947H132.17V45.3914H155.588V44.5947Z" fill="#C7C7C7"/>
<path d="M157.978 46.877H132.17V47.6737H157.978V46.877Z" fill="#C7C7C7"/>
<path d="M155.814 49.1538H132.17V49.9505H155.814V49.1538Z" fill="#C7C7C7"/>
<path d="M158.44 51.4307H132.17V52.2274H158.44V51.4307Z" fill="#C7C7C7"/>
<path d="M156.441 53.7129H132.17V54.5096H156.441V53.7129Z" fill="#C7C7C7"/>
<path d="M151.995 55.9902H132.17V56.7869H151.995V55.9902Z" fill="#C7C7C7"/>
<path d="M158.204 58.272H132.17V59.0687H158.204V58.272Z" fill="#C7C7C7"/>
<path d="M156.724 60.5493H132.17V61.346H156.724V60.5493Z" fill="#C7C7C7"/>
<path d="M173.86 40.0356H165.898V40.8323H173.86V40.0356Z" fill="#C7C7C7"/>
<path d="M173.86 42.3179H165.898V43.1146H173.86V42.3179Z" fill="#C7C7C7"/>
<path d="M173.86 44.5947H165.898V45.3914H173.86V44.5947Z" fill="#C7C7C7"/>
<path d="M173.86 46.877H165.898V47.6737H173.86V46.877Z" fill="#C7C7C7"/>
<path d="M173.86 49.1538H165.898V49.9505H173.86V49.1538Z" fill="#C7C7C7"/>
<path d="M173.86 51.4307H165.898V52.2274H173.86V51.4307Z" fill="#C7C7C7"/>
<path d="M173.86 53.7129H165.898V54.5096H173.86V53.7129Z" fill="#C7C7C7"/>
<path d="M173.86 55.9902H165.898V56.7869H173.86V55.9902Z" fill="#C7C7C7"/>
<path d="M173.86 58.272H165.898V59.0687H173.86V58.272Z" fill="#C7C7C7"/>
<path d="M173.86 60.5493H165.898V61.346H173.86V60.5493Z" fill="#C7C7C7"/>
<path d="M152.618 146.552C156.654 146.552 159.927 143.279 159.927 139.243C159.927 135.206 156.654 131.934 152.618 131.934C148.581 131.934 145.309 135.206 145.309 139.243C145.309 143.279 148.581 146.552 152.618 146.552Z" fill="#A6A6A6"/>
<path d="M138.523 131.939H121.484V137.583H138.523V131.939Z" fill="#A6A6A6"/>
<path d="M138.523 140.908H121.484V146.552H138.523V140.908Z" fill="#A6A6A6"/>
<path d="M184.875 131.939H167.836V137.583H184.875V131.939Z" fill="#A6A6A6"/>
<path d="M184.875 140.908H167.836V146.552H184.875V140.908Z" fill="#A6A6A6"/>
<path d="M153.013 116.678C161.132 116.678 167.713 110.097 167.713 101.978C167.713 93.8589 161.132 87.2773 153.013 87.2773C144.894 87.2773 138.312 93.8589 138.312 101.978C138.312 110.097 144.894 116.678 153.013 116.678Z" fill="#6FBD44"/>
<path d="M150.864 112.525L143.205 104.769L145.775 102.225L150.252 106.758L159.55 92.1812L162.598 94.1241L150.864 112.525Z" fill="#263238"/>
<path d="M118.538 233.515C117.433 233.885 85.8789 233.793 84.6761 233.027C84.2238 232.744 83.9668 228.144 83.8177 222.582C83.7818 221.38 83.7561 220.141 83.7406 218.877C83.7406 217.386 83.6944 215.875 83.6841 214.405C83.6481 207.815 83.7406 202.012 83.7406 202.012H104.301V214.405V218.877L104.193 222.582C104.193 222.582 116.256 228.021 117.485 229.002C118.713 229.984 119.638 233.155 118.538 233.515Z" fill="#F5B6AE"/>
<path d="M118.539 233.515C117.434 233.885 85.8794 233.793 84.6766 233.027C84.2243 232.744 83.9673 228.144 83.8182 222.583C83.7822 221.38 83.7565 220.141 83.7411 218.877C83.7411 217.386 83.6949 215.875 83.6846 214.405H104.27V218.877L104.162 222.583C104.162 222.583 116.226 228.021 117.454 229.002C118.683 229.984 119.639 233.155 118.539 233.515Z" fill="white"/>
<path d="M118.637 233.567C117.917 233.803 104.476 233.849 94.6895 233.644C92.4227 233.597 90.3513 233.536 88.6808 233.464C86.3781 233.356 84.8361 233.233 84.5688 233.073C84.0137 232.713 83.7464 225.965 83.623 218.846H104.265L104.157 222.567C104.157 222.567 116.293 228.036 117.521 229.023C118.75 230.01 119.762 233.191 118.637 233.567Z" fill="#6FBD44"/>
<path d="M118.185 232.292C112.865 232.148 91.4002 232.061 86.1265 232.323C86.0854 232.323 86.0854 232.354 86.1265 232.354C91.395 232.616 112.855 232.529 118.185 232.38C118.298 232.38 118.298 232.297 118.185 232.292Z" fill="#263238"/>
<path d="M104.929 221.385C102.837 220.989 100.303 221.302 98.6734 222.793C98.6117 222.85 98.6734 222.937 98.7608 222.916C100.765 222.274 102.833 221.85 104.929 221.652C104.964 221.652 104.998 221.638 105.023 221.613C105.048 221.588 105.062 221.554 105.062 221.518C105.062 221.483 105.048 221.449 105.023 221.424C104.998 221.399 104.964 221.385 104.929 221.385Z" fill="#263238"/>
<path d="M106.44 222.3C104.348 221.904 101.783 222.217 100.179 223.708C100.117 223.765 100.179 223.852 100.272 223.831C102.276 223.189 104.344 222.765 106.44 222.567C106.475 222.567 106.509 222.553 106.534 222.528C106.559 222.503 106.573 222.469 106.573 222.433C106.573 222.398 106.559 222.364 106.534 222.339C106.509 222.314 106.475 222.3 106.44 222.3Z" fill="#263238"/>
<path d="M107.94 223.215C105.848 222.819 103.314 223.133 101.685 224.623C101.623 224.68 101.685 224.767 101.772 224.746C103.777 224.104 105.845 223.68 107.94 223.482C107.976 223.482 108.01 223.468 108.035 223.443C108.06 223.418 108.074 223.384 108.074 223.348C108.074 223.313 108.06 223.279 108.035 223.254C108.01 223.229 107.976 223.215 107.94 223.215Z" fill="#263238"/>
<path d="M109.483 224.13C107.391 223.734 104.826 224.048 103.222 225.538C103.16 225.595 103.222 225.682 103.315 225.662C105.319 225.019 107.387 224.595 109.483 224.397C109.518 224.397 109.552 224.383 109.577 224.358C109.602 224.333 109.616 224.299 109.616 224.263C109.616 224.228 109.602 224.194 109.577 224.169C109.552 224.144 109.518 224.13 109.483 224.13Z" fill="#263238"/>
<path d="M108.809 216.559C107.992 215.423 106.455 215.926 105.581 216.661C104.1 217.944 102.983 219.595 102.343 221.447C102.343 221.488 102.343 221.514 102.394 221.519C102.394 221.678 102.543 221.848 102.718 221.781C104.45 221.149 106.378 220.681 107.858 219.535C108.732 218.866 109.585 217.633 108.809 216.559ZM105.149 220.285C104.301 220.614 103.448 220.907 102.62 221.272C103.223 220.321 103.873 219.402 104.568 218.517C104.915 218.095 105.287 217.695 105.684 217.319C106.306 216.759 108.768 215.556 108.403 217.833C108.192 219.118 106.152 219.884 105.149 220.285Z" fill="#263238"/>
<path d="M97.0226 220.881C98.7497 221.622 100.734 221.591 102.564 221.776C102.605 221.776 102.645 221.766 102.682 221.748C102.719 221.73 102.751 221.703 102.775 221.67C102.8 221.637 102.816 221.599 102.823 221.558C102.83 221.517 102.828 221.476 102.815 221.436C102.824 221.435 102.832 221.431 102.839 221.425C102.846 221.42 102.851 221.412 102.854 221.404C102.857 221.396 102.858 221.387 102.857 221.378C102.855 221.369 102.852 221.361 102.846 221.354C101.764 219.722 100.271 218.404 98.5184 217.53C97.4904 217.016 95.8764 216.934 95.3624 218.234C94.8484 219.535 96.0203 220.45 97.0226 220.881ZM96.082 219.386C95.1465 217.258 97.8399 217.803 98.5852 218.193C99.0621 218.455 99.5206 218.748 99.9576 219.072C100.883 219.73 101.69 220.511 102.528 221.251C101.633 221.108 100.734 221.041 99.8291 220.928C98.7702 220.794 96.6011 220.563 96.082 219.386Z" fill="#263238"/>
<path d="M76.8848 114.468C76.8848 114.468 82.4411 169.384 82.5696 170.077C82.5696 170.17 82.6261 171.224 82.6827 172.951C82.9808 182.403 83.7107 211.881 83.7107 211.881H106.399C106.399 211.881 104.918 176.965 104.07 168.823C102.991 158.43 96.1701 114.468 96.1701 114.468H76.8848Z" fill="#455A64"/>
<path d="M85.2729 172.015C84.5876 160.114 83.5373 148.243 82.1221 136.4C81.3254 129.718 80.3694 123.082 79.4133 116.431C79.4133 116.375 79.3157 116.375 79.326 116.431C81.0787 128.253 82.3226 140.198 83.3917 152.118C84.4608 164.038 85.2061 175.947 85.6893 187.887C85.9668 194.652 86.1776 201.421 86.3934 208.19C86.3993 208.219 86.4151 208.246 86.4381 208.264C86.461 208.283 86.4897 208.293 86.5194 208.293C86.549 208.293 86.5777 208.283 86.6007 208.264C86.6236 208.246 86.6394 208.219 86.6453 208.19C86.3523 196.122 85.9771 184.058 85.2729 172.015Z" fill="#263238"/>
<path d="M104.943 208.226C104.347 208.149 103.705 208.175 103.103 208.154C102.42 208.129 101.741 208.124 101.047 208.098C99.7315 208.046 98.4208 208.016 97.1101 207.995C94.4647 207.947 91.8193 207.966 89.1739 208.052C88.444 208.052 87.7141 208.098 86.9894 208.129C86.2647 208.16 85.4474 208.226 84.661 208.221C84.6514 208.221 84.6423 208.225 84.6355 208.232C84.6288 208.239 84.625 208.248 84.625 208.257C84.625 208.267 84.6288 208.276 84.6355 208.283C84.6423 208.289 84.6514 208.293 84.661 208.293C85.9974 208.293 87.3441 208.406 88.6753 208.458C90.0066 208.509 91.2967 208.524 92.6126 208.545C95.2545 208.581 97.9068 208.545 100.549 208.463C101.273 208.432 102.003 208.422 102.728 208.401C103.119 208.401 103.504 208.365 103.895 208.355C104.286 208.345 104.584 208.355 104.923 208.319C104.929 208.32 104.935 208.32 104.941 208.319C104.947 208.318 104.953 208.316 104.959 208.313C104.964 208.309 104.968 208.305 104.972 208.3C104.976 208.295 104.978 208.289 104.979 208.283C104.981 208.277 104.981 208.271 104.98 208.264C104.979 208.258 104.976 208.252 104.973 208.247C104.97 208.242 104.965 208.237 104.96 208.234C104.955 208.23 104.949 208.228 104.943 208.226Z" fill="#263238"/>
<path d="M76.8848 114.468C76.8848 114.468 82.4411 169.384 82.5696 170.077C82.5696 170.17 82.6261 171.224 82.6827 172.951L93.3585 114.468H76.8848Z" fill="#263238"/>
<path d="M61.6388 230.221C60.4926 230.01 32.8548 214.801 32.1609 213.552C31.8936 213.084 33.8776 208.926 36.4168 203.976L45.7459 185.636L64.6405 195.962L58.5959 206.289L56.1184 210.529L54.2526 213.726C54.2526 213.726 62.2299 224.289 62.8415 225.733C63.4532 227.178 62.7799 230.426 61.6388 230.221Z" fill="#F5B6AE"/>
<path d="M61.6388 230.221C60.4926 230.01 32.8548 214.801 32.1609 213.552C31.8936 213.084 33.8776 208.926 36.4168 203.976C36.9616 202.902 39.326 197.983 40.1279 196.682C45.5403 199.607 53.7489 203.724 58.6319 206.289L56.1544 210.529L54.2886 213.726C54.2886 213.726 62.2659 224.289 62.8775 225.733C63.4892 227.178 62.7799 230.426 61.6388 230.221Z" fill="white"/>
<path d="M61.6803 230.303C60.5341 230.092 32.7318 214.8 32.0379 213.546C31.7192 212.965 34.7261 206.916 38.0311 200.604L56.1445 210.503L54.2684 213.721C54.2684 213.721 62.2919 224.335 62.9036 225.795C63.5153 227.255 62.8522 230.513 61.6803 230.303Z" fill="#6FBD44"/>
<path d="M61.9165 228.972C57.3162 226.294 38.5244 215.926 33.775 213.624C33.7339 213.624 33.7236 213.624 33.775 213.654C38.2725 216.409 57.1518 226.628 61.8908 229.049C61.9731 229.1 62.0142 229.028 61.9165 228.972Z" fill="#263238"/>
<path d="M55.5117 213.048C53.8618 211.696 51.4666 210.74 49.3437 211.28C49.2615 211.28 49.2923 211.413 49.3437 211.429C51.407 211.827 53.4215 212.445 55.3524 213.274C55.3824 213.295 55.4195 213.304 55.4557 213.297C55.4918 213.291 55.524 213.271 55.5451 213.241C55.5663 213.211 55.5746 213.173 55.5684 213.137C55.5621 213.101 55.5417 213.069 55.5117 213.048Z" fill="#263238"/>
<path d="M56.4014 214.575C54.7566 213.223 52.3562 212.267 50.2334 212.807C50.1511 212.807 50.182 212.94 50.2334 212.956C52.2981 213.354 54.3142 213.973 56.2472 214.801C56.262 214.811 56.2787 214.818 56.2963 214.822C56.3139 214.825 56.3321 214.826 56.3497 214.822C56.3674 214.819 56.3842 214.812 56.3992 214.802C56.4143 214.792 56.4272 214.78 56.4374 214.765C56.4475 214.75 56.4546 214.733 56.4583 214.716C56.4619 214.698 56.4621 214.68 56.4588 214.662C56.4554 214.645 56.4486 214.628 56.4388 214.613C56.4289 214.598 56.4162 214.585 56.4014 214.575Z" fill="#263238"/>
<path d="M57.2852 216.096C55.6404 214.749 53.24 213.793 51.1172 214.328C51.0349 214.328 51.0658 214.466 51.1172 214.482C53.1819 214.881 55.198 215.499 57.131 216.327C57.1616 216.347 57.1992 216.355 57.2353 216.348C57.2715 216.34 57.3033 216.319 57.3237 216.288C57.3442 216.258 57.3516 216.22 57.3444 216.184C57.3371 216.148 57.3158 216.116 57.2852 216.096Z" fill="#263238"/>
<path d="M58.1699 217.623C56.5251 216.271 54.1248 215.32 52.0019 215.854C51.9197 215.854 51.9505 215.993 52.0019 216.009C54.0674 216.404 56.0838 217.023 58.0157 217.854C58.0464 217.874 58.084 217.882 58.1201 217.875C58.1562 217.867 58.188 217.846 58.2085 217.815C58.2289 217.785 58.2364 217.747 58.2291 217.711C58.2219 217.675 58.2006 217.643 58.1699 217.623Z" fill="#263238"/>
<path d="M61.2382 210.668C61.0635 209.28 59.4752 208.987 58.3547 209.208C56.439 209.625 54.6664 210.537 53.2147 211.855C53.1787 211.886 53.2147 211.922 53.2147 211.948C53.1932 211.983 53.1805 212.022 53.1775 212.063C53.1744 212.104 53.1813 212.145 53.1974 212.183C53.2135 212.221 53.2384 212.254 53.27 212.28C53.3016 212.306 53.3391 212.324 53.3792 212.333C55.1987 212.606 57.1159 213.125 58.9663 212.847C60.056 212.657 61.4027 211.984 61.2382 210.668ZM56.237 212.179C55.3375 212.071 54.4483 211.912 53.5436 211.835C54.5286 211.29 55.5408 210.796 56.5762 210.354C57.0779 210.148 57.5931 209.976 58.1182 209.84C58.9406 209.645 61.6803 209.773 60.2513 211.608C59.4649 212.621 57.3061 212.313 56.237 212.179Z" fill="#263238"/>
<path d="M48.8298 208.812C49.9863 210.288 51.7442 211.213 53.2656 212.251C53.3011 212.272 53.341 212.283 53.3819 212.285C53.4228 212.287 53.4636 212.279 53.5008 212.262C53.538 212.245 53.5706 212.219 53.5959 212.187C53.6211 212.154 53.6383 212.117 53.646 212.076C53.682 212.076 53.7179 212.076 53.7128 212.02C53.5458 210.066 52.8687 208.191 51.7493 206.582C51.076 205.662 49.6933 204.793 48.6653 205.692C47.6373 206.592 48.1462 207.954 48.8298 208.812ZM48.7219 207.049C48.9223 204.731 51.0194 206.499 51.4872 207.204C51.7814 207.662 52.0441 208.139 52.2736 208.633C52.7324 209.66 53.1389 210.71 53.4918 211.778C52.7722 211.223 52.0166 210.75 51.2816 210.205C50.3718 209.573 48.6036 208.329 48.7116 207.049H48.7219Z" fill="#263238"/>
<path d="M96.1433 114.468C96.1433 114.468 94.7504 122.774 89.4048 127.056C89.4048 127.056 81.5201 160.05 79.793 166.182C77.1922 175.434 61.2479 204.218 61.2479 204.218L41.3047 193.963C41.3047 193.963 57.655 162.918 59.4129 160.492C60.5797 158.878 65.4318 131.893 65.2776 131.045C63.4581 120.97 68.007 114.453 68.007 114.453L96.1433 114.468Z" fill="#455A64"/>
<path d="M77.6144 116.231C77.2328 117.846 76.3296 119.292 75.0444 120.343C73.6185 121.459 71.8989 122.138 70.0946 122.296C69.7914 122.337 69.7914 122.81 70.0946 122.81C73.7851 122.661 77.4037 120.137 77.7686 116.282C77.7481 116.164 77.6144 116.164 77.6144 116.231Z" fill="#263238"/>
<path d="M92.8337 124.388C91.52 124.99 90.2727 125.727 89.1124 126.588C87.8839 127.426 86.7531 128.403 85.5709 129.302C85.5247 129.338 85.5709 129.41 85.6172 129.379C86.8662 128.582 88.1872 127.883 89.4054 127.061C90.6417 126.311 91.808 125.45 92.8903 124.491C92.9314 124.445 92.8851 124.388 92.8337 124.388Z" fill="#263238"/>
<path d="M92.9985 116.678C92.8443 117.536 92.6336 118.379 92.4485 119.248C92.2635 120.117 92.1504 120.857 91.9345 121.643C91.7613 122.406 91.3744 123.103 90.8191 123.653C90.5056 123.946 90.1612 124.203 89.8271 124.47C89.6472 124.614 89.4519 124.748 89.2669 124.897C89.2669 124.784 89.3131 124.666 89.3337 124.553C89.3902 124.229 89.4416 123.905 89.4982 123.581C89.6164 122.861 89.7346 122.137 89.8425 121.417C90.0584 119.999 90.2589 118.57 90.557 117.166C90.557 117.11 90.4799 117.084 90.4696 117.166C90.115 118.559 89.7243 119.937 89.4159 121.335C89.2669 122.024 88.7272 125.447 88.7066 125.663C88.686 125.879 88.6603 126.177 88.6501 126.408C88.6166 126.661 88.6166 126.916 88.6501 127.169C88.6549 127.18 88.6628 127.189 88.6728 127.196C88.6828 127.202 88.6946 127.206 88.7066 127.206C88.7186 127.206 88.7304 127.202 88.7404 127.196C88.7504 127.189 88.7583 127.18 88.7631 127.169C88.866 126.934 88.9385 126.687 88.979 126.434C89.0407 126.192 89.0972 125.945 89.1384 125.699C89.1384 125.611 89.1692 125.519 89.1795 125.426C89.5136 125.226 89.8271 124.959 90.1407 124.727C90.4542 124.496 90.8191 124.249 91.1378 123.982C91.7274 123.484 92.1522 122.819 92.356 122.075C92.5615 121.275 92.6957 120.458 92.7569 119.634C92.8649 118.667 92.942 117.701 93.0807 116.74C93.0962 116.637 93.0345 116.611 92.9985 116.678Z" fill="#263238"/>
<path d="M62.1937 199.689C61.6797 199.345 61.1195 199.067 60.5952 198.774C60.0709 198.481 59.3976 198.121 58.8065 197.787C57.6654 197.135 56.514 196.502 55.3627 195.88C53.0343 194.626 50.675 193.418 48.29 192.282L46.3163 191.347C45.6121 191.013 44.8925 190.72 44.2037 190.36C44.1523 190.329 44.1215 190.396 44.1729 190.422C45.3602 191.028 46.5013 191.758 47.663 192.411C48.8246 193.064 49.9554 193.686 51.1119 194.302C53.4455 195.551 55.8099 196.754 58.2 197.9C58.8579 198.209 59.5055 198.538 60.1634 198.851C60.513 199.021 60.8676 199.175 61.1914 199.365C61.5153 199.555 61.8031 199.689 62.1269 199.807C62.1426 199.816 62.1611 199.818 62.1785 199.814C62.1959 199.809 62.2106 199.797 62.2194 199.782C62.2283 199.766 62.2306 199.747 62.2258 199.73C62.2209 199.713 62.2094 199.698 62.1937 199.689Z" fill="#263238"/>
<path d="M71.9608 112.849C69.0286 116.47 67.3993 120.973 67.3348 125.632C67.3175 126.859 67.4035 128.085 67.5918 129.297C67.8348 130.63 67.9553 131.982 67.9516 133.337C67.8661 134.742 67.6771 136.139 67.3862 137.516C67.1292 138.904 66.862 140.288 66.5844 141.669C66.0361 144.41 65.4519 147.141 64.8317 149.862C64.22 152.561 63.6238 155.275 62.8785 157.937C62.2213 160.501 61.1594 162.944 59.7328 165.174C58.3501 167.482 57.0086 169.8 55.7955 172.201C54.5277 174.719 53.2701 177.246 52.0228 179.782C51.406 181.031 50.7995 182.285 50.1878 183.539C49.5761 184.794 48.9079 186.068 48.3168 187.379C48.029 188.032 47.7257 188.669 47.4122 189.312C47.3814 189.373 47.479 189.43 47.5099 189.363C48.1575 188.099 48.8514 186.865 49.5093 185.606C50.1672 184.346 50.7892 183.133 51.4317 181.895C52.7218 179.397 54.0017 176.883 55.2558 174.37C56.51 171.856 57.723 169.466 59.1365 167.112C60.4781 164.886 61.8248 162.697 62.6677 160.224C63.5107 157.752 64.1069 155.023 64.7237 152.406C65.3679 149.692 65.9727 146.967 66.5381 144.229C67.1138 141.484 67.6946 138.729 68.1418 135.958C68.3796 134.652 68.459 133.321 68.3783 131.995C68.2703 130.638 67.9773 129.307 67.8643 127.955C67.4102 123.201 68.5455 118.431 71.0922 114.391C71.4057 113.877 71.7244 113.399 72.0688 112.921C72.0996 112.864 72.0071 112.798 71.9608 112.849Z" fill="#263238"/>
<path d="M86.4092 83.9211C93.5345 83.9211 99.3106 77.9217 99.3106 70.5211C99.3106 63.1205 93.5345 57.1211 86.4092 57.1211C79.284 57.1211 73.5078 63.1205 73.5078 70.5211C73.5078 77.9217 79.284 83.9211 86.4092 83.9211Z" fill="#263238"/>
<path d="M80.2307 80.1842C80.2307 80.5362 80.1263 80.8802 79.9306 81.1728C79.735 81.4654 79.4569 81.6933 79.1317 81.8278C78.8064 81.9622 78.4485 81.9971 78.1034 81.9281C77.7583 81.8591 77.4414 81.6892 77.1929 81.4399C76.9444 81.1907 76.7754 80.8733 76.7074 80.528C76.6393 80.1827 76.6753 79.8249 76.8107 79.5001C76.9461 79.1752 77.1748 78.8978 77.468 78.703C77.7611 78.5082 78.1054 78.4048 78.4574 78.4058C78.6909 78.4051 78.9222 78.4507 79.138 78.5399C79.3538 78.6291 79.5498 78.7601 79.7147 78.9255C79.8795 79.0908 80.01 79.2872 80.0986 79.5032C80.1872 79.7193 80.2321 79.9507 80.2307 80.1842Z" fill="#263238"/>
<path d="M99.0842 77.5008C99.0852 77.8528 98.9818 78.1971 98.787 78.4903C98.5922 78.7834 98.3148 79.0122 97.9899 79.1476C97.665 79.283 97.3073 79.3189 96.962 79.2509C96.6167 79.1828 96.2993 79.0139 96.0501 78.7653C95.8008 78.5168 95.6309 78.2 95.5619 77.8548C95.4929 77.5097 95.5278 77.1519 95.6622 76.8266C95.7967 76.5013 96.0246 76.2233 96.3172 76.0276C96.6098 75.832 96.9538 75.7275 97.3058 75.7275C97.7766 75.7275 98.2281 75.9142 98.5615 76.2466C98.8949 76.579 99.0829 77.0301 99.0842 77.5008Z" fill="#263238"/>
<path d="M100.863 69.2101C100.863 69.5618 100.758 69.9057 100.563 70.1981C100.367 70.4906 100.09 70.7185 99.7647 70.8531C99.4397 70.9878 99.0821 71.023 98.7371 70.9544C98.3922 70.8857 98.0753 70.7164 97.8266 70.4676C97.5778 70.2189 97.4085 69.902 97.3398 69.557C97.2712 69.2121 97.3064 68.8545 97.441 68.5295C97.5756 68.2045 97.8036 67.9268 98.0961 67.7314C98.3885 67.536 98.7324 67.4316 99.0841 67.4316C99.3178 67.431 99.5494 67.4765 99.7655 67.5656C99.9816 67.6548 100.178 67.7857 100.343 67.951C100.508 68.1163 100.639 68.3126 100.729 68.5287C100.818 68.7448 100.863 68.9763 100.863 69.2101Z" fill="#263238"/>
<path d="M76.1702 67.5912C76.1712 67.9431 76.0677 68.2875 75.8729 68.5806C75.6781 68.8738 75.4007 69.1025 75.0759 69.2379C74.751 69.3733 74.3932 69.4092 74.0479 69.3412C73.7026 69.2732 73.3852 69.1042 73.136 68.8557C72.8868 68.6072 72.7169 68.2903 72.6478 67.9452C72.5788 67.6 72.6137 67.2422 72.7482 66.9169C72.8826 66.5917 73.1106 66.3136 73.4031 66.118C73.6957 65.9223 74.0397 65.8179 74.3917 65.8179C74.8625 65.8179 75.3141 66.0045 75.6474 66.3369C75.9808 66.6694 76.1688 67.1204 76.1702 67.5912Z" fill="#263238"/>
<path d="M78.4573 62.8058C78.4573 63.1575 78.353 63.5014 78.1575 63.7938C77.9621 64.0863 77.6844 64.3142 77.3594 64.4488C77.0344 64.5835 76.6769 64.6187 76.3319 64.5501C75.9869 64.4814 75.67 64.312 75.4213 64.0633C75.1726 63.8146 75.0032 63.4977 74.9346 63.1527C74.8659 62.8078 74.9012 62.4502 75.0358 62.1252C75.1704 61.8002 75.3983 61.5225 75.6908 61.3271C75.9832 61.1316 76.3271 61.0273 76.6788 61.0273C77.1505 61.0273 77.6029 61.2147 77.9364 61.5482C78.2699 61.8818 78.4573 62.3341 78.4573 62.8058Z" fill="#263238"/>
<path d="M80.6155 60.7958C80.6165 61.1477 80.513 61.4921 80.3183 61.7852C80.1235 62.0783 79.8461 62.3071 79.5212 62.4425C79.1963 62.5779 78.8386 62.6138 78.4932 62.5458C78.1479 62.4778 77.8305 62.3088 77.5813 62.0603C77.3321 61.8118 77.1622 61.4949 77.0931 61.1498C77.0241 60.8046 77.059 60.4468 77.1935 60.1215C77.3279 59.7962 77.5559 59.5182 77.8485 59.3225C78.141 59.1269 78.4851 59.0225 78.837 59.0225C79.3078 59.0225 79.7594 59.2091 80.0928 59.5415C80.4261 59.8739 80.6141 60.325 80.6155 60.7958Z" fill="#263238"/>
<path d="M82.7541 58.5958C82.7541 58.9476 82.6498 59.2914 82.4544 59.5839C82.259 59.8763 81.9813 60.1043 81.6563 60.2389C81.3313 60.3735 80.9737 60.4087 80.6287 60.3401C80.2838 60.2715 79.9669 60.1021 79.7182 59.8534C79.4694 59.6046 79.3001 59.2878 79.2314 58.9428C79.1628 58.5978 79.198 58.2402 79.3326 57.9152C79.4672 57.5903 79.6952 57.3125 79.9877 57.1171C80.2801 56.9217 80.624 56.8174 80.9757 56.8174C81.4474 56.8174 81.8997 57.0048 82.2332 57.3383C82.5668 57.6718 82.7541 58.1241 82.7541 58.5958Z" fill="#263238"/>
<path d="M85.5657 58.267C85.5667 58.6191 85.4631 58.9637 85.2681 59.2569C85.0731 59.5502 84.7954 59.7789 84.4702 59.9142C84.145 60.0494 83.787 60.0851 83.4415 60.0166C83.0961 59.9482 82.7787 59.7787 82.5297 59.5296C82.2807 59.2806 82.1112 58.9633 82.0427 58.6178C81.9743 58.2723 82.0099 57.9143 82.1451 57.5891C82.2804 57.264 82.5091 56.9863 82.8024 56.7912C83.0956 56.5962 83.4402 56.4926 83.7924 56.4937C84.2627 56.4937 84.7137 56.6805 85.0463 57.013C85.3788 57.3456 85.5657 57.7967 85.5657 58.267Z" fill="#263238"/>
<path d="M93.8049 58.267C93.8059 58.6189 93.7025 58.9633 93.5077 59.2564C93.3129 59.5495 93.0355 59.7783 92.7106 59.9137C92.3857 60.0491 92.028 60.085 91.6827 60.017C91.3374 59.9489 91.02 59.78 90.7708 59.5315C90.5215 59.2829 90.3516 58.9661 90.2826 58.6209C90.2136 58.2758 90.2485 57.918 90.3829 57.5927C90.5174 57.2674 90.7453 56.9894 91.0379 56.7937C91.3305 56.5981 91.6745 56.4937 92.0265 56.4937C92.4973 56.4937 92.9488 56.6803 93.2822 57.0127C93.6156 57.3451 93.8035 57.7962 93.8049 58.267Z" fill="#263238"/>
<path d="M95.964 63.5354C96.9462 63.5354 97.7424 62.7392 97.7424 61.757C97.7424 60.7747 96.9462 59.9785 95.964 59.9785C94.9818 59.9785 94.1855 60.7747 94.1855 61.757C94.1855 62.7392 94.9818 63.5354 95.964 63.5354Z" fill="#263238"/>
<path d="M77.0647 75.4039C77.0647 75.7557 76.9604 76.0995 76.765 76.392C76.5696 76.6844 76.2918 76.9124 75.9668 77.047C75.6419 77.1816 75.2843 77.2168 74.9393 77.1482C74.5943 77.0796 74.2774 76.9102 74.0287 76.6615C73.78 76.4128 73.6106 76.0959 73.542 75.7509C73.4734 75.4059 73.5086 75.0483 73.6432 74.7233C73.7778 74.3984 74.0057 74.1206 74.2982 73.9252C74.5907 73.7298 74.9345 73.6255 75.2863 73.6255C75.5198 73.6255 75.7511 73.6715 75.9668 73.7609C76.1826 73.8502 76.3787 73.9812 76.5438 74.1464C76.7089 74.3115 76.8399 74.5076 76.9293 74.7233C77.0187 74.9391 77.0647 75.1704 77.0647 75.4039Z" fill="#263238"/>
<path d="M84.9182 82.5433C84.9192 82.8953 84.8158 83.2396 84.621 83.5328C84.4262 83.8259 84.1488 84.0546 83.8239 84.19C83.499 84.3254 83.1413 84.3614 82.796 84.2933C82.4506 84.2253 82.1333 84.0563 81.884 83.8078C81.6348 83.5593 81.4649 83.2424 81.3959 82.8973C81.3268 82.5522 81.3618 82.1943 81.4962 81.8691C81.6307 81.5438 81.8586 81.2657 82.1512 81.0701C82.4438 80.8745 82.7878 80.77 83.1398 80.77C83.6105 80.77 84.0621 80.9567 84.3955 81.2891C84.7289 81.6215 84.9168 82.0725 84.9182 82.5433Z" fill="#263238"/>
<path d="M87.4417 82.569C87.4417 82.9207 87.3374 83.2646 87.1419 83.557C86.9465 83.8495 86.6688 84.0774 86.3438 84.212C86.0188 84.3466 85.6612 84.3819 85.3163 84.3132C84.9713 84.2446 84.6544 84.0752 84.4057 83.8265C84.1569 83.5778 83.9876 83.2609 83.9189 82.9159C83.8503 82.5709 83.8855 82.2134 84.0201 81.8884C84.1548 81.5634 84.3827 81.2857 84.6752 81.0903C84.9676 80.8948 85.3115 80.7905 85.6632 80.7905C86.1349 80.7905 86.5872 80.9779 86.9208 81.3114C87.2543 81.6449 87.4417 82.0973 87.4417 82.569Z" fill="#263238"/>
<path d="M76.1702 72.798C76.1702 73.1497 76.0659 73.4936 75.8704 73.786C75.675 74.0785 75.3973 74.3064 75.0723 74.4411C74.7473 74.5757 74.3897 74.6109 74.0448 74.5422C73.6998 74.4736 73.3829 74.3042 73.1342 74.0555C72.8855 73.8068 72.7161 73.4899 72.6475 73.1449C72.5788 72.7999 72.614 72.4424 72.7487 72.1174C72.8833 71.7924 73.1112 71.5147 73.4037 71.3193C73.6961 71.1238 74.04 71.0195 74.3917 71.0195C74.8634 71.0195 75.3157 71.2069 75.6493 71.5404C75.9828 71.874 76.1702 72.3263 76.1702 72.798Z" fill="#263238"/>
<path d="M78.1283 78.01C78.1283 78.3292 78.0336 78.6412 77.8563 78.9066C77.679 79.172 77.4269 79.3789 77.132 79.5011C76.8371 79.6232 76.5126 79.6552 76.1995 79.5929C75.8864 79.5306 75.5988 79.3769 75.3731 79.1512C75.1474 78.9255 74.9937 78.6379 74.9314 78.3248C74.8691 78.0117 74.9011 77.6872 75.0232 77.3923C75.1454 77.0974 75.3523 76.8453 75.6177 76.668C75.8831 76.4906 76.1951 76.396 76.5143 76.396C76.942 76.3974 77.3517 76.5678 77.6541 76.8702C77.9565 77.1726 78.1269 77.5823 78.1283 78.01Z" fill="#263238"/>
<path d="M88.1869 57.4035C88.1869 57.7227 88.0922 58.0348 87.9149 58.3002C87.7376 58.5656 87.4855 58.7725 87.1906 58.8946C86.8957 59.0168 86.5711 59.0487 86.2581 58.9865C85.945 58.9242 85.6574 58.7705 85.4317 58.5448C85.206 58.319 85.0523 58.0315 84.99 57.7184C84.9277 57.4053 84.9597 57.0808 85.0818 56.7859C85.204 56.491 85.4109 56.2389 85.6763 56.0616C85.9417 55.8842 86.2537 55.7896 86.5729 55.7896C87.0006 55.7909 87.4103 55.9614 87.7127 56.2638C88.0151 56.5662 88.1855 56.9759 88.1869 57.4035Z" fill="#263238"/>
<path d="M76.0053 70.2072C76.0053 70.5264 75.9106 70.8385 75.7333 71.1039C75.5559 71.3693 75.3038 71.5762 75.0089 71.6983C74.714 71.8205 74.3895 71.8524 74.0764 71.7902C73.7634 71.7279 73.4758 71.5742 73.2501 71.3485C73.0243 71.1228 72.8706 70.8352 72.8084 70.5221C72.7461 70.209 72.778 69.8845 72.9002 69.5896C73.0224 69.2947 73.2292 69.0426 73.4946 68.8653C73.76 68.6879 74.0721 68.5933 74.3913 68.5933C74.8189 68.5946 75.2287 68.7651 75.531 69.0675C75.8334 69.3699 76.0039 69.7796 76.0053 70.2072Z" fill="#263238"/>
<path d="M76.8998 65.1496C76.8998 65.4688 76.8051 65.7809 76.6278 66.0463C76.4505 66.3117 76.1984 66.5186 75.9035 66.6407C75.6086 66.7629 75.2841 66.7948 74.971 66.7326C74.6579 66.6703 74.3703 66.5166 74.1446 66.2908C73.9189 66.0651 73.7652 65.7776 73.7029 65.4645C73.6406 65.1514 73.6726 64.8269 73.7947 64.532C73.9169 64.2371 74.1238 63.985 74.3892 63.8076C74.6546 63.6303 74.9666 63.5356 75.2858 63.5356C75.7135 63.537 76.1232 63.7075 76.4256 64.0099C76.728 64.3122 76.8984 64.722 76.8998 65.1496Z" fill="#263238"/>
<path d="M90.8036 57.5988C90.8046 57.9193 90.7105 58.2328 90.5333 58.4997C90.356 58.7667 90.1035 58.975 89.8077 59.0983C89.5119 59.2217 89.1862 59.2545 88.8718 59.1926C88.5574 59.1307 88.2684 58.9769 88.0415 58.7507C87.8145 58.5244 87.6598 58.236 87.5969 57.9217C87.534 57.6075 87.5658 57.2817 87.6882 56.9856C87.8106 56.6894 88.0181 56.4362 88.2845 56.2581C88.5508 56.08 88.8641 55.9849 89.1845 55.9849C89.613 55.9849 90.0241 56.1547 90.3276 56.4573C90.6311 56.7598 90.8023 57.1703 90.8036 57.5988Z" fill="#263238"/>
<path d="M82.431 81.5563C82.431 81.8756 82.3364 82.1876 82.159 82.453C81.9817 82.7184 81.7296 82.9253 81.4347 83.0475C81.1398 83.1696 80.8153 83.2016 80.5022 83.1393C80.1891 83.077 79.9016 82.9233 79.6758 82.6976C79.4501 82.4719 79.2964 82.1843 79.2341 81.8712C79.1719 81.5581 79.2038 81.2336 79.326 80.9387C79.4481 80.6438 79.655 80.3917 79.9204 80.2144C80.1858 80.037 80.4979 79.9424 80.8171 79.9424C81.2451 79.9424 81.6556 80.1124 81.9583 80.4151C82.261 80.7178 82.431 81.1283 82.431 81.5563Z" fill="#263238"/>
<path d="M89.8012 83.1706C89.8012 83.4898 89.7065 83.8019 89.5292 84.0673C89.3518 84.3327 89.0997 84.5396 88.8048 84.6617C88.5099 84.7839 88.1854 84.8158 87.8723 84.7536C87.5593 84.6913 87.2717 84.5376 87.046 84.3119C86.8202 84.0861 86.6665 83.7985 86.6043 83.4855C86.542 83.1724 86.5739 82.8479 86.6961 82.553C86.8183 82.2581 87.0251 82.006 87.2905 81.8286C87.5559 81.6513 87.868 81.5566 88.1872 81.5566C88.6148 81.558 89.0246 81.7285 89.3269 82.0309C89.6293 82.3332 89.7998 82.743 89.8012 83.1706Z" fill="#263238"/>
<path d="M92.685 82.569C92.685 82.8882 92.5903 83.2003 92.413 83.4657C92.2356 83.7311 91.9835 83.938 91.6886 84.0601C91.3937 84.1823 91.0692 84.2143 90.7561 84.152C90.443 84.0897 90.1555 83.936 89.9297 83.7103C89.704 83.4846 89.5503 83.197 89.488 82.8839C89.4258 82.5708 89.4577 82.2463 89.5799 81.9514C89.702 81.6565 89.9089 81.4044 90.1743 81.2271C90.4397 81.0497 90.7518 80.9551 91.071 80.9551C91.499 80.9551 91.9096 81.1251 92.2122 81.4278C92.5149 81.7305 92.685 82.141 92.685 82.569Z" fill="#263238"/>
<path d="M94.9623 80.9553C94.9623 81.2745 94.8676 81.5865 94.6903 81.8519C94.5129 82.1174 94.2609 82.3242 93.966 82.4464C93.6711 82.5685 93.3465 82.6005 93.0335 82.5382C92.7204 82.4759 92.4328 82.3222 92.2071 82.0965C91.9814 81.8708 91.8277 81.5832 91.7654 81.2701C91.7031 80.9571 91.7351 80.6325 91.8572 80.3376C91.9794 80.0427 92.1863 79.7907 92.4517 79.6133C92.7171 79.436 93.0291 79.3413 93.3483 79.3413C93.776 79.3427 94.1857 79.5131 94.4881 79.8155C94.7905 80.1179 94.9609 80.5276 94.9623 80.9553Z" fill="#263238"/>
<path d="M97.5775 79.8342C97.5775 80.1534 97.4829 80.4654 97.3055 80.7308C97.1282 80.9962 96.8761 81.2031 96.5812 81.3253C96.2863 81.4474 95.9618 81.4794 95.6487 81.4171C95.3356 81.3548 95.048 81.2011 94.8223 80.9754C94.5966 80.7497 94.4429 80.4621 94.3806 80.149C94.3183 79.836 94.3503 79.5115 94.4725 79.2165C94.5946 78.9216 94.8015 78.6696 95.0669 78.4922C95.3323 78.3149 95.6444 78.2202 95.9636 78.2202C96.3912 78.2216 96.8009 78.3921 97.1033 78.6944C97.4057 78.9968 97.5762 79.4065 97.5775 79.8342Z" fill="#263238"/>
<path d="M100.441 75.2238C100.441 75.543 100.346 75.8551 100.169 76.1205C99.9915 76.3859 99.7394 76.5928 99.4445 76.7149C99.1496 76.8371 98.8251 76.869 98.512 76.8068C98.1989 76.7445 97.9113 76.5908 97.6856 76.3651C97.4599 76.1393 97.3062 75.8518 97.2439 75.5387C97.1816 75.2256 97.2136 74.9011 97.3357 74.6062C97.4579 74.3113 97.6648 74.0592 97.9302 73.8819C98.1956 73.7045 98.5076 73.6099 98.8269 73.6099C99.039 73.6092 99.2492 73.6505 99.4453 73.7313C99.6414 73.8122 99.8196 73.9311 99.9696 74.0811C100.12 74.2311 100.238 74.4093 100.319 74.6054C100.4 74.8015 100.441 75.0117 100.441 75.2238Z" fill="#263238"/>
<path d="M100.441 72.2477C100.441 72.567 100.346 72.879 100.169 73.1444C99.9915 73.4098 99.7394 73.6167 99.4445 73.7388C99.1496 73.861 98.8251 73.893 98.512 73.8307C98.1989 73.7684 97.9113 73.6147 97.6856 73.389C97.4599 73.1633 97.3062 72.8757 97.2439 72.5626C97.1816 72.2495 97.2136 71.925 97.3357 71.6301C97.4579 71.3352 97.6648 71.0831 97.9302 70.9058C98.1956 70.7284 98.5076 70.6338 98.8269 70.6338C99.2549 70.6338 99.6654 70.8038 99.9681 71.1065C100.271 71.4092 100.441 71.8197 100.441 72.2477Z" fill="#263238"/>
<path d="M94.3503 61.0272C95.2417 61.0272 95.9642 60.3046 95.9642 59.4133C95.9642 58.5219 95.2417 57.7993 94.3503 57.7993C93.4589 57.7993 92.7363 58.5219 92.7363 59.4133C92.7363 60.3046 93.4589 61.0272 94.3503 61.0272Z" fill="#263238"/>
<path d="M98.0925 65.4374C98.9838 65.4374 99.7064 64.7148 99.7064 63.8234C99.7064 62.9321 98.9838 62.2095 98.0925 62.2095C97.2011 62.2095 96.4785 62.9321 96.4785 63.8234C96.4785 64.7148 97.2011 65.4374 98.0925 65.4374Z" fill="#263238"/>
<path d="M100.06 66.3781C100.06 66.6973 99.9653 67.0094 99.788 67.2748C99.6106 67.5402 99.3585 67.7471 99.0636 67.8692C98.7687 67.9914 98.4442 68.0233 98.1311 67.9611C97.8181 67.8988 97.5305 67.7451 97.3047 67.5194C97.079 67.2936 96.9253 67.0061 96.863 66.693C96.8008 66.3799 96.8327 66.0554 96.9549 65.7605C97.077 65.4656 97.2839 65.2135 97.5493 65.0362C97.8147 64.8588 98.1268 64.7642 98.446 64.7642C98.874 64.7642 99.2846 64.9342 99.5872 65.2369C99.8899 65.5396 100.06 65.9501 100.06 66.3781Z" fill="#263238"/>
<path d="M88.3622 87.4106C89.8682 90.7311 100.611 101.505 109.585 104.974C112.875 106.249 127.282 103.16 130.711 101.808C134.72 100.225 132.319 90.2582 129.78 90.2068C126.614 90.14 112.957 93.0698 110.053 92.931C106.522 92.7614 98.4623 87.1588 91.549 84.2855C88.0075 82.8103 87.2005 84.8509 88.3622 87.4106Z" fill="#F5B6AE"/>
<path d="M130.71 101.808C131.995 101.371 137.726 98.8575 139.161 97.7987C140.595 96.7399 144.516 93.404 143.817 92.2218C143.118 91.0396 141.895 91.9237 141.895 91.9237C141.895 91.9237 143.329 90.2532 142.517 89.1224C141.705 87.9916 139.844 89.4359 139.844 89.4359C139.844 89.4359 141.191 87.6112 140.302 86.5473C139.412 85.4833 137.783 87.2463 137.783 87.2463C137.783 87.2463 139.094 85.6323 137.989 85.0618C136.663 84.3782 134.591 87.6318 132.915 88.6598C132.535 88.9014 124.866 92.9311 124.866 92.9311L130.71 101.808Z" fill="#F5B6AE"/>
<path d="M137.927 87.0971C136.385 89.4769 135.316 90.2531 132.787 91.4301C132.736 91.4558 132.762 91.5329 132.787 91.5124C135.357 90.582 136.864 89.8059 138.015 87.1639C138.102 87.0354 137.999 86.984 137.927 87.0971Z" fill="#263238"/>
<path d="M139.963 89.2456C138.159 91.5792 136.997 92.4324 134.443 93.8716C134.407 93.8716 134.443 93.9539 134.474 93.9385C137.095 92.746 138.586 91.9339 140.071 89.369C140.138 89.2405 140.045 89.1428 139.963 89.2456Z" fill="#263238"/>
<path d="M141.766 92.0062C139.854 94.1393 138.615 95.1314 135.958 96.2005C135.945 96.2053 135.934 96.215 135.929 96.2275C135.923 96.24 135.922 96.2543 135.927 96.2673C135.932 96.2803 135.942 96.2908 135.954 96.2966C135.967 96.3023 135.981 96.3029 135.994 96.2981C138.416 95.7091 140.509 94.1917 141.823 92.0731C141.92 91.9086 141.864 91.8572 141.766 92.0062Z" fill="#263238"/>
<path d="M122.522 93.1059C122.522 93.1059 124.815 90.4022 126.084 89.441C127.354 88.4798 133.414 86.6192 133.887 87.899C134.499 89.5592 131.214 91.3223 129.492 91.9699C129.492 91.9699 130.911 95.8095 128.829 97.5828C126.748 99.3561 122.522 93.1059 122.522 93.1059Z" fill="#F5B6AE"/>
<path d="M133.907 88.4082C133.393 90.3254 131.06 91.0347 129.435 91.7903C129.41 91.7997 129.388 91.8152 129.371 91.8354C129.353 91.8556 129.341 91.8798 129.335 91.9059C129.33 91.932 129.331 91.9591 129.338 91.9847C129.346 92.0103 129.36 92.0336 129.379 92.0525C129.862 93.7024 130.073 96.1645 128.937 97.5882C128.929 97.5964 128.925 97.6072 128.926 97.6183C128.926 97.6294 128.931 97.6398 128.939 97.6473C128.948 97.6548 128.958 97.6588 128.969 97.6583C128.981 97.6578 128.991 97.653 128.998 97.6448C130.422 96.2878 130.417 93.8463 129.764 92.073C131.44 91.3277 133.732 90.531 133.928 88.4133L133.907 88.4082Z" fill="#263238"/>
<path d="M98.1738 99.6439L104.373 90.1606C104.373 90.1606 96.8734 85.915 92.6586 84.265C88.4438 82.6151 85.0206 83.9052 89.0606 89.5284C92.4581 94.3034 98.1738 99.6439 98.1738 99.6439Z" fill="#263238"/>
<path d="M97.2545 106.979L97.4087 120.343C97.4087 120.343 70.5625 117.413 64.8828 116.025C64.8828 116.025 74.9675 93.9488 83.4742 84.8613C87.2983 81.6745 90.9118 83.4786 93.1734 86.0332C93.7336 86.6706 99.6087 97.0225 99.7423 100.677C99.8554 103.895 97.2545 106.979 97.2545 106.979Z" fill="#6FBD44"/>
<path d="M86.6864 84.2958C86.8149 84.8098 89.2564 88.0378 91.5848 87.8938C92.3352 87.8476 92.253 83.7304 92.253 83.7304L92.3198 83.4272L93.2039 79.1558L88.1513 76.0718L87.4214 75.6606C87.4214 75.6606 87.2569 76.8428 87.0667 78.318C87.0667 78.39 87.0667 78.4568 87.0667 78.5288C87.0667 78.6007 87.041 78.6932 87.0308 78.7703C86.9999 78.9914 86.9691 79.2175 86.9434 79.4385C86.9177 79.6596 86.9023 79.7778 86.8868 79.9525C86.8714 80.1273 86.8509 80.3072 86.8303 80.4922C86.6947 81.7553 86.6466 83.0262 86.6864 84.2958Z" fill="#F5B6AE"/>
<path d="M87.0664 78.2923C87.5162 79.4792 88.2191 80.5538 89.1263 81.4415C90.0335 82.3291 91.1231 83.0085 92.3195 83.4323L93.2036 79.161L88.1509 76.0718L87.4211 75.6606C87.4211 75.6606 87.2566 76.8171 87.0664 78.2923Z" fill="#263238"/>
<path d="M98.8886 72.2784C99.7059 79.8907 95.2392 81.2425 93.5944 81.4122C92.1038 81.5715 87.0101 81.9262 85.4116 74.432C83.813 66.9379 87.0975 64.152 90.4899 63.638C93.8823 63.124 98.0765 64.666 98.8886 72.2784Z" fill="#F5B6AE"/>
<path d="M97.3622 71.2712C97.1823 71.2712 97.0178 71.2147 96.8482 71.1839C96.6603 71.1761 96.4799 71.1076 96.3342 70.9885C96.2979 70.9404 96.2783 70.8818 96.2783 70.8215C96.2783 70.7612 96.2979 70.7026 96.3342 70.6544C96.4187 70.5682 96.5247 70.506 96.6413 70.4744C96.7579 70.4427 96.8808 70.4428 96.9973 70.4745C97.2419 70.5006 97.4677 70.6181 97.6295 70.8035C97.6668 70.8486 97.6895 70.904 97.6945 70.9623C97.6996 71.0206 97.6867 71.079 97.6577 71.1298C97.6286 71.1806 97.5848 71.2214 97.532 71.2467C97.4792 71.2719 97.42 71.2805 97.3622 71.2712Z" fill="#263238"/>
<path d="M92.0725 71.6309C92.2524 71.6001 92.4117 71.5487 92.5865 71.5025C92.7789 71.485 92.9598 71.4036 93.1005 71.2712C93.1368 71.223 93.1564 71.1644 93.1564 71.1041C93.1564 71.0438 93.1368 70.9852 93.1005 70.9371C93.0108 70.8578 92.9017 70.8037 92.7844 70.7803C92.667 70.7568 92.5455 70.7648 92.4323 70.8034C92.1889 70.8483 91.9709 70.982 91.8206 71.1786C91.7916 71.2233 91.7754 71.275 91.7736 71.3282C91.7718 71.3814 91.7846 71.4341 91.8104 71.4806C91.8363 71.5271 91.8744 71.5656 91.9206 71.5921C91.9667 71.6186 92.0192 71.632 92.0725 71.6309Z" fill="#263238"/>
<path d="M93.1628 73.502C93.1628 73.502 93.1269 73.5277 93.1269 73.5482C93.1731 74.0622 93.1269 74.6739 92.6797 74.8743C92.6797 74.8743 92.6797 74.9052 92.6797 74.8743C93.2554 74.8075 93.2913 74.016 93.1628 73.502Z" fill="#263238"/>
<path d="M92.664 72.9878C91.8262 72.9878 91.8621 74.6532 92.6383 74.6686C93.4144 74.684 93.3682 73.0186 92.664 72.9878Z" fill="#263238"/>
<path d="M92.3351 73.1011C92.1911 73.1988 92.0524 73.3735 91.8776 73.3941C91.7028 73.4147 91.5127 73.245 91.3636 73.0806H91.3379C91.3379 73.3992 91.4715 73.7282 91.8159 73.7693C92.1603 73.8105 92.3299 73.5175 92.4276 73.1885C92.4481 73.1525 92.3967 73.0652 92.3351 73.1011Z" fill="#263238"/>
<path d="M96.421 73.2144C96.421 73.2144 96.4622 73.2401 96.4622 73.2606C96.4622 73.7746 96.529 74.3811 97.007 74.5507C97.007 74.5507 97.007 74.5816 97.007 74.5764C96.4262 74.5302 96.3285 73.7078 96.421 73.2144Z" fill="#263238"/>
<path d="M96.8842 72.6644C97.722 72.5924 97.8094 74.2732 97.0333 74.34C96.2571 74.4068 96.18 72.726 96.8842 72.6644Z" fill="#263238"/>
<path d="M97.2389 72.7569C97.3777 72.8392 97.5164 72.9934 97.6758 72.9985C97.8351 73.0036 97.9842 72.8083 98.0921 72.6284C98.0921 72.6284 98.0921 72.6284 98.123 72.6284C98.123 72.9471 98.0561 73.2863 97.7529 73.3634C97.4496 73.4405 97.2389 73.1733 97.1618 72.8494C97.1464 72.8186 97.1823 72.7261 97.2389 72.7569Z" fill="#263238"/>
<path d="M93.5024 77.5166C93.6257 77.6399 93.7491 77.8095 93.9341 77.8301C94.1283 77.8314 94.3208 77.7929 94.4995 77.717C94.4995 77.717 94.5304 77.717 94.4995 77.7427C94.4221 77.8428 94.3193 77.9204 94.2019 77.9674C94.0844 78.0144 93.9564 78.0291 93.8313 78.01C93.7257 77.9797 93.6315 77.9185 93.5609 77.8342C93.4904 77.75 93.4467 77.6465 93.4355 77.5371C93.4458 77.5063 93.487 77.496 93.5024 77.5166Z" fill="#263238"/>
<path d="M95.6045 75.5581C95.6045 75.5581 95.7381 76.3291 95.7535 76.6992C95.7535 76.73 95.6661 76.7506 95.5376 76.7609C95.2243 76.8297 94.8981 76.8104 94.5951 76.7051C94.2921 76.5999 94.0241 76.4128 93.8209 76.1646C93.7901 76.1338 93.8209 76.0927 93.8723 76.1132C94.3505 76.4192 94.915 76.5617 95.4811 76.5193C95.4811 76.4165 95.2087 75.1983 95.2652 75.1932C95.5522 75.2075 95.8358 75.2612 96.1082 75.3525C95.8769 73.7334 95.3886 72.1606 95.183 70.5415C95.183 70.4849 95.2601 70.4644 95.2755 70.5158C95.8524 72.1841 96.2605 73.906 96.4937 75.6558C96.5348 75.8716 95.7689 75.6198 95.6045 75.5581Z" fill="#263238"/>
<path d="M86.2493 74.9051C87.5702 75.4551 86.9894 73.2038 86.9894 73.2038C86.9894 73.2038 88.1356 72.5202 87.5445 70.9165C87.5445 70.9165 89.1277 71.3842 89.2973 69.138C89.4918 69.1183 89.6801 69.0588 89.8506 68.9631C90.0211 68.8675 90.17 68.7377 90.2882 68.5819C90.4063 68.4262 90.4911 68.2478 90.5373 68.0578C90.5835 67.8679 90.59 67.6704 90.5566 67.4778C90.5566 67.4778 92.4224 68.5058 93.1831 66.7736C93.1831 66.7736 94.5349 68.2745 95.6092 66.7736C95.758 67.0576 96.0008 67.2811 96.2962 67.4058C96.5915 67.5305 96.921 67.5487 97.2283 67.4573C97.2774 67.7521 97.3902 68.0327 97.5589 68.2795C97.7276 68.5263 97.948 68.7333 98.2049 68.8862C98.2049 68.8862 95.9536 61.0734 88.8912 63.813C82.3686 66.3624 84.7124 74.2729 86.2493 74.9051Z" fill="#263238"/>
<path d="M86.7426 75.1157C86.7426 75.1157 85.0259 72.7616 83.9516 73.3784C82.8773 73.9952 84.2035 77.4339 85.4936 77.8811C85.6542 77.9493 85.827 77.9845 86.0015 77.9845C86.176 77.9846 86.3487 77.9495 86.5094 77.8814C86.6701 77.8133 86.8154 77.7135 86.9367 77.5881C87.058 77.4626 87.1528 77.3141 87.2155 77.1512L86.7426 75.1157Z" fill="#F5B6AE"/>
<path d="M84.3581 74.355C84.3581 74.355 84.3324 74.3807 84.3581 74.3858C85.2576 74.7302 85.7408 75.5475 86.0903 76.4007C86.0362 76.3128 85.9637 76.2375 85.8779 76.1801C85.7922 76.1227 85.695 76.0843 85.5931 76.0678C85.4912 76.0512 85.3869 76.0567 85.2873 76.084C85.1878 76.1113 85.0952 76.1597 85.016 76.2259C85.016 76.2259 85.016 76.2773 85.0417 76.2722C85.1974 76.22 85.3654 76.2172 85.5227 76.2641C85.68 76.311 85.819 76.4054 85.9207 76.5343C86.0913 76.7507 86.2378 76.9851 86.3576 77.2334C86.3987 77.3105 86.5426 77.2693 86.5118 77.1768C86.4964 76.0152 85.5814 74.4424 84.3581 74.355Z" fill="#263238"/>
<path d="M177.705 77.2026L177.818 120.132C177.82 120.702 177.709 121.267 177.492 121.795C177.275 122.322 176.956 122.802 176.554 123.206C176.151 123.61 175.673 123.931 175.147 124.151C174.62 124.37 174.056 124.484 173.485 124.485L105.406 124.665C104.835 124.667 104.27 124.556 103.742 124.338C103.214 124.121 102.734 123.802 102.33 123.399C101.926 122.996 101.605 122.517 101.386 121.99C101.166 121.463 101.053 120.898 101.053 120.327L100.939 77.4031C100.938 76.3306 101.362 75.3014 102.118 74.5412C102.875 73.7809 103.902 73.3517 104.974 73.3476L173.655 73.1729C174.186 73.1715 174.711 73.2747 175.202 73.4765C175.693 73.6782 176.139 73.9747 176.515 74.3489C176.891 74.7231 177.19 75.1677 177.394 75.6574C177.598 76.147 177.704 76.6721 177.705 77.2026Z" fill="#6FBD44"/>
<path opacity="0.2" d="M177.705 77.2026L177.818 120.132C177.82 120.702 177.709 121.267 177.492 121.795C177.275 122.322 176.956 122.802 176.554 123.206C176.151 123.61 175.673 123.931 175.147 124.151C174.62 124.37 174.056 124.484 173.485 124.485L105.406 124.665C104.835 124.667 104.27 124.556 103.742 124.338C103.214 124.121 102.734 123.802 102.33 123.399C101.926 122.996 101.605 122.517 101.386 121.99C101.166 121.463 101.053 120.898 101.053 120.327L100.939 77.4031C100.938 76.3306 101.362 75.3014 102.118 74.5412C102.875 73.7809 103.902 73.3517 104.974 73.3476L173.655 73.1729C174.186 73.1715 174.711 73.2747 175.202 73.4765C175.693 73.6782 176.139 73.9747 176.515 74.3489C176.891 74.7231 177.19 75.1677 177.394 75.6574C177.598 76.147 177.704 76.6721 177.705 77.2026Z" fill="black"/>
<path d="M166.736 114.108C166.739 114.899 166.507 115.674 166.07 116.333C165.633 116.993 165.01 117.508 164.279 117.813C163.549 118.118 162.745 118.2 161.968 118.048C161.192 117.896 160.478 117.516 159.917 116.958C159.356 116.4 158.973 115.688 158.817 114.912C158.661 114.137 158.738 113.332 159.04 112.6C159.341 111.869 159.853 111.243 160.51 110.802C161.167 110.361 161.941 110.126 162.732 110.125C163.256 110.123 163.776 110.225 164.261 110.425C164.746 110.624 165.187 110.917 165.559 111.287C165.931 111.657 166.226 112.096 166.428 112.58C166.63 113.064 166.735 113.584 166.736 114.108Z" fill="#455A64"/>
<path d="M171.676 114.108C171.677 114.897 171.444 115.67 171.006 116.327C170.568 116.984 169.946 117.497 169.217 117.8C168.487 118.104 167.685 118.184 166.91 118.031C166.135 117.879 165.423 117.5 164.864 116.942C164.304 116.385 163.923 115.674 163.767 114.9C163.611 114.126 163.688 113.323 163.989 112.593C164.29 111.863 164.8 111.238 165.455 110.798C166.111 110.357 166.882 110.121 167.672 110.119C168.197 110.118 168.717 110.22 169.202 110.42C169.688 110.619 170.129 110.913 170.501 111.283C170.873 111.654 171.168 112.094 171.37 112.579C171.571 113.063 171.675 113.583 171.676 114.108Z" fill="#6FBD44"/>
<path d="M119.654 80.6828L109.559 80.7092C108.367 80.7123 107.403 81.6814 107.406 82.8736L107.421 88.5122C107.424 89.7045 108.393 90.6685 109.585 90.6653L119.68 90.6389C120.872 90.6358 121.836 89.6667 121.833 88.4745L121.819 82.8359C121.815 81.6436 120.846 80.6796 119.654 80.6828Z" fill="#6FBD44"/>
<path d="M106.912 99.7519L106.326 100.101C106.305 100.117 106.28 100.125 106.254 100.127C106.228 100.127 106.203 100.121 106.18 100.108C106.157 100.096 106.139 100.077 106.125 100.055C106.115 100.039 106.109 100.021 106.107 100.002C106.104 99.9827 106.106 99.9635 106.111 99.9452C106.116 99.9269 106.125 99.9098 106.137 99.8951C106.15 99.8805 106.165 99.8684 106.182 99.8599L106.984 99.3459C107.018 99.3292 107.057 99.3252 107.093 99.3346C107.13 99.344 107.162 99.3662 107.184 99.3973C107.194 99.4326 107.194 99.4699 107.184 99.5052V103.345C107.185 103.364 107.182 103.383 107.175 103.401C107.168 103.418 107.157 103.435 107.144 103.448C107.13 103.462 107.114 103.472 107.096 103.479C107.078 103.486 107.059 103.489 107.04 103.489C107.002 103.489 106.965 103.474 106.938 103.447C106.911 103.42 106.896 103.383 106.896 103.345L106.912 99.7519Z" fill="#F8F8F8"/>
<path d="M108.243 103.252L110.191 101.484C110.303 101.382 110.391 101.258 110.452 101.12C110.514 100.982 110.545 100.833 110.546 100.682C110.545 100.417 110.444 100.162 110.263 99.968C110.167 99.8615 110.051 99.7749 109.922 99.7134C109.792 99.6518 109.652 99.6164 109.508 99.6093C109.365 99.6021 109.222 99.6233 109.087 99.6716C108.952 99.72 108.828 99.7945 108.721 99.8909L108.516 100.081C108.503 100.095 108.487 100.105 108.47 100.113C108.453 100.12 108.434 100.124 108.415 100.124C108.397 100.124 108.378 100.12 108.361 100.113C108.344 100.105 108.328 100.095 108.315 100.081C108.301 100.068 108.289 100.052 108.282 100.035C108.274 100.017 108.27 99.9977 108.27 99.9783C108.27 99.9589 108.274 99.9398 108.282 99.9221C108.289 99.9044 108.301 99.8885 108.315 99.8755L108.516 99.6853C108.77 99.4569 109.099 99.3305 109.441 99.3307C109.63 99.3284 109.817 99.3666 109.99 99.4429C110.163 99.5191 110.318 99.6316 110.443 99.7727C110.676 100.021 110.806 100.348 110.808 100.688C110.809 100.881 110.77 101.072 110.693 101.249C110.616 101.426 110.503 101.585 110.361 101.716L108.696 103.232H110.669C110.708 103.233 110.745 103.25 110.771 103.277C110.798 103.305 110.813 103.342 110.813 103.381C110.813 103.419 110.798 103.456 110.771 103.483C110.744 103.51 110.708 103.525 110.669 103.525H108.341H108.315C108.296 103.526 108.276 103.522 108.258 103.514C108.24 103.506 108.225 103.494 108.212 103.479C108.198 103.463 108.187 103.443 108.181 103.423C108.174 103.402 108.172 103.38 108.175 103.358C108.178 103.337 108.186 103.316 108.198 103.298C108.209 103.28 108.225 103.264 108.243 103.252Z" fill="#F8F8F8"/>
<path d="M114.283 99.572L113.208 100.687C113.459 100.739 113.69 100.857 113.878 101.029C114.067 101.202 114.205 101.422 114.278 101.666C114.352 101.911 114.357 102.171 114.295 102.418C114.232 102.666 114.104 102.892 113.923 103.072C113.792 103.206 113.636 103.312 113.464 103.384C113.292 103.457 113.107 103.494 112.921 103.494C112.735 103.495 112.551 103.459 112.379 103.388C112.208 103.316 112.053 103.211 111.923 103.078C111.896 103.05 111.881 103.013 111.881 102.975C111.881 102.936 111.896 102.899 111.923 102.872C111.951 102.845 111.988 102.829 112.026 102.829C112.065 102.829 112.102 102.845 112.129 102.872C112.342 103.076 112.626 103.19 112.921 103.191C113.068 103.191 113.214 103.163 113.35 103.107C113.486 103.051 113.61 102.968 113.714 102.864C113.819 102.76 113.901 102.636 113.957 102.5C114.013 102.363 114.042 102.217 114.041 102.07C114.042 101.924 114.013 101.778 113.957 101.643C113.9 101.508 113.817 101.386 113.712 101.284C113.609 101.178 113.486 101.095 113.35 101.04C113.214 100.984 113.068 100.957 112.921 100.96C112.898 100.959 112.875 100.953 112.855 100.942C112.834 100.931 112.816 100.916 112.802 100.898C112.788 100.884 112.776 100.867 112.768 100.849C112.76 100.83 112.756 100.81 112.756 100.79C112.756 100.77 112.76 100.75 112.768 100.732C112.776 100.713 112.788 100.696 112.802 100.682L113.83 99.6132H112.232C112.212 99.6139 112.192 99.6105 112.174 99.6033C112.156 99.596 112.139 99.5851 112.125 99.5711C112.111 99.5571 112.1 99.5404 112.093 99.522C112.085 99.5036 112.082 99.4839 112.083 99.4641C112.082 99.4443 112.085 99.4246 112.093 99.4062C112.1 99.3878 112.111 99.3711 112.125 99.3571C112.139 99.3431 112.156 99.3322 112.174 99.3249C112.192 99.3177 112.212 99.3143 112.232 99.315H114.18C114.2 99.3143 114.22 99.3177 114.239 99.3249C114.257 99.3321 114.274 99.3429 114.289 99.3568C114.303 99.3707 114.314 99.3874 114.322 99.4058C114.33 99.4243 114.334 99.4441 114.334 99.4641C114.342 99.4856 114.342 99.5094 114.334 99.5309C114.329 99.5411 114.322 99.5501 114.313 99.5572C114.304 99.5643 114.294 99.5694 114.283 99.572Z" fill="#F8F8F8"/>
<path d="M117.804 102.625H115.522C115.488 102.628 115.455 102.616 115.429 102.594C115.415 102.581 115.404 102.566 115.396 102.548C115.388 102.53 115.384 102.511 115.384 102.492C115.384 102.472 115.388 102.453 115.396 102.435C115.404 102.418 115.415 102.402 115.429 102.389L117.84 99.3768C117.853 99.3626 117.868 99.3512 117.885 99.3434C117.903 99.3356 117.921 99.3315 117.94 99.3315C117.959 99.3315 117.978 99.3356 117.995 99.3434C118.012 99.3512 118.028 99.3626 118.04 99.3768C118.066 99.3768 118.076 99.423 118.092 99.4487C118.107 99.4744 118.092 99.4487 118.092 99.4487V102.337H118.375C118.413 102.337 118.449 102.353 118.476 102.38C118.503 102.407 118.518 102.443 118.518 102.481C118.518 102.52 118.503 102.556 118.476 102.583C118.449 102.61 118.413 102.625 118.375 102.625H118.092V103.345C118.085 103.379 118.067 103.41 118.041 103.432C118.014 103.454 117.98 103.466 117.945 103.466C117.911 103.466 117.877 103.454 117.85 103.432C117.823 103.41 117.805 103.379 117.799 103.345L117.804 102.625ZM117.804 102.337V99.8857L115.835 102.343L117.804 102.337Z" fill="#F8F8F8"/>
<path d="M127.015 100.194C127.154 99.9249 127.362 99.6979 127.619 99.5369C127.876 99.376 128.171 99.287 128.474 99.2793C128.512 99.2792 128.549 99.2935 128.576 99.3193C128.604 99.345 128.621 99.3804 128.623 99.4181C128.624 99.4573 128.609 99.495 128.582 99.5236C128.555 99.5523 128.519 99.5697 128.48 99.5723C128.228 99.5801 127.983 99.6547 127.77 99.7884C127.557 99.9221 127.383 100.11 127.267 100.333C127.123 100.595 127.023 100.877 126.968 101.171C127.181 100.931 127.47 100.772 127.786 100.722C128.103 100.672 128.427 100.734 128.703 100.897C128.978 101.061 129.189 101.315 129.297 101.617C129.406 101.918 129.405 102.248 129.297 102.55C129.188 102.851 128.978 103.105 128.702 103.268C128.426 103.432 128.102 103.493 127.786 103.443C127.469 103.393 127.18 103.234 126.968 102.994C126.756 102.754 126.634 102.447 126.624 102.127C126.619 102.036 126.619 101.945 126.624 101.854C126.612 101.277 126.746 100.706 127.015 100.194ZM126.917 102.101C126.912 102.128 126.912 102.156 126.917 102.183C126.922 102.197 126.922 102.211 126.917 102.225C126.936 102.515 127.067 102.787 127.282 102.982C127.497 103.178 127.78 103.282 128.071 103.273C128.362 103.263 128.638 103.141 128.84 102.932C129.043 102.723 129.156 102.444 129.156 102.153C129.156 101.862 129.043 101.582 128.84 101.373C128.638 101.164 128.362 101.042 128.071 101.033C127.78 101.023 127.497 101.127 127.282 101.323C127.067 101.519 126.936 101.79 126.917 102.081V102.101Z" fill="#F8F8F8"/>
<path d="M130.916 103.247L132.458 99.5773H130.438C130.4 99.5773 130.363 99.5621 130.336 99.5351C130.309 99.5081 130.294 99.4715 130.294 99.4333C130.294 99.3952 130.309 99.3586 130.336 99.3316C130.363 99.3046 130.4 99.2894 130.438 99.2894H132.648C132.677 99.2818 132.707 99.2818 132.735 99.2894C132.754 99.2978 132.77 99.3099 132.783 99.325C132.797 99.34 132.807 99.3577 132.813 99.3768C132.813 99.3768 132.813 99.4076 132.813 99.4231C132.812 99.4524 132.803 99.4809 132.787 99.5053L131.178 103.355C131.166 103.38 131.148 103.401 131.126 103.416C131.103 103.432 131.077 103.441 131.05 103.443C131.029 103.448 131.008 103.448 130.988 103.443C130.954 103.425 130.927 103.395 130.914 103.359C130.901 103.323 130.901 103.283 130.916 103.247Z" fill="#F8F8F8"/>
<path d="M135.033 99.2588C135.21 99.2657 135.38 99.3262 135.521 99.4322C135.662 99.5382 135.768 99.6847 135.824 99.8521C135.879 100.02 135.883 100.2 135.834 100.37C135.784 100.539 135.684 100.689 135.547 100.801C135.796 100.903 136.009 101.077 136.159 101.3C136.309 101.523 136.389 101.786 136.39 102.055C136.369 102.4 136.217 102.723 135.966 102.96C135.714 103.197 135.381 103.328 135.036 103.328C134.691 103.328 134.358 103.197 134.106 102.96C133.855 102.723 133.703 102.4 133.682 102.055C133.682 101.787 133.761 101.525 133.909 101.302C134.057 101.079 134.268 100.905 134.514 100.801C134.406 100.718 134.318 100.612 134.257 100.49C134.196 100.368 134.165 100.233 134.165 100.097C134.172 99.8712 134.266 99.6573 134.428 99.5008C134.591 99.3442 134.808 99.2574 135.033 99.2588ZM135.033 103.15C135.174 103.15 135.313 103.123 135.443 103.07C135.572 103.016 135.69 102.937 135.789 102.838C135.888 102.738 135.966 102.62 136.019 102.49C136.072 102.36 136.099 102.221 136.097 102.081C136.097 101.869 136.035 101.662 135.917 101.486C135.799 101.31 135.632 101.173 135.436 101.092C135.241 101.012 135.025 100.991 134.818 101.032C134.61 101.074 134.42 101.176 134.271 101.327C134.121 101.477 134.02 101.668 133.979 101.875C133.938 102.083 133.96 102.298 134.042 102.493C134.124 102.689 134.262 102.855 134.438 102.972C134.615 103.089 134.822 103.151 135.033 103.15ZM135.033 100.713C135.11 100.713 135.186 100.697 135.257 100.667C135.328 100.637 135.392 100.593 135.446 100.538C135.5 100.483 135.543 100.418 135.572 100.347C135.6 100.276 135.615 100.199 135.614 100.122C135.614 99.9683 135.553 99.8205 135.444 99.7116C135.335 99.6027 135.188 99.5415 135.033 99.5415C134.879 99.5415 134.732 99.6027 134.623 99.7116C134.514 99.8205 134.453 99.9683 134.453 100.122C134.452 100.2 134.467 100.276 134.496 100.348C134.525 100.42 134.568 100.485 134.622 100.54C134.677 100.595 134.742 100.639 134.813 100.668C134.885 100.698 134.961 100.713 135.039 100.713H135.033Z" fill="#F8F8F8"/>
<path d="M142.465 99.2379C142.803 99.2356 143.13 99.3581 143.384 99.5819C143.637 99.8058 143.798 100.115 143.838 100.451C143.839 100.461 143.839 100.471 143.838 100.482C143.838 100.595 143.838 100.713 143.838 100.842C143.851 101.421 143.715 101.995 143.442 102.507C143.301 102.774 143.091 103 142.835 103.161C142.579 103.321 142.285 103.411 141.982 103.422C141.963 103.422 141.944 103.419 141.927 103.413C141.909 103.406 141.893 103.396 141.879 103.383C141.865 103.37 141.854 103.355 141.846 103.338C141.838 103.321 141.834 103.302 141.833 103.283C141.832 103.263 141.836 103.244 141.842 103.226C141.849 103.207 141.86 103.19 141.873 103.176C141.887 103.162 141.903 103.15 141.92 103.142C141.938 103.134 141.957 103.129 141.977 103.129C142.228 103.12 142.473 103.045 142.686 102.911C142.899 102.778 143.073 102.59 143.19 102.368C143.337 102.108 143.438 101.825 143.488 101.53C143.336 101.705 143.142 101.838 142.924 101.918C142.706 101.998 142.472 102.022 142.243 101.988C142.013 101.954 141.796 101.862 141.612 101.722C141.427 101.582 141.28 101.398 141.185 101.186C141.091 100.975 141.05 100.743 141.069 100.511C141.087 100.28 141.163 100.057 141.29 99.8634C141.417 99.6694 141.591 99.5104 141.795 99.4011C142 99.2918 142.228 99.2357 142.46 99.2379H142.465ZM143.56 100.61C143.56 100.395 143.496 100.184 143.377 100.005C143.257 99.8256 143.087 99.686 142.888 99.6035C142.688 99.521 142.469 99.4994 142.258 99.5415C142.047 99.5835 141.852 99.6873 141.7 99.8397C141.548 99.9921 141.444 100.186 141.402 100.398C141.36 100.609 141.381 100.828 141.464 101.027C141.546 101.226 141.686 101.397 141.865 101.516C142.044 101.636 142.255 101.7 142.47 101.7C142.614 101.701 142.756 101.673 142.888 101.618C143.021 101.564 143.141 101.484 143.243 101.382C143.344 101.281 143.424 101.161 143.479 101.028C143.533 100.896 143.561 100.754 143.56 100.61Z" fill="#F8F8F8"/>
<path d="M144.913 101.325C144.901 100.808 145.04 100.299 145.314 99.8602C145.42 99.6784 145.569 99.5256 145.749 99.4154C145.928 99.3051 146.132 99.2407 146.342 99.228C146.551 99.2424 146.753 99.3068 146.932 99.416C147.111 99.5251 147.261 99.6757 147.37 99.8551C147.644 100.292 147.787 100.799 147.781 101.315C147.787 101.829 147.648 102.335 147.38 102.775C147.273 102.956 147.123 103.108 146.944 103.218C146.765 103.328 146.562 103.393 146.352 103.407C146.142 103.395 145.939 103.331 145.76 103.222C145.58 103.112 145.431 102.961 145.324 102.78C145.049 102.345 144.906 101.84 144.913 101.325ZM145.206 101.325C145.2 101.782 145.324 102.232 145.566 102.62C145.645 102.767 145.76 102.891 145.9 102.981C146.04 103.071 146.201 103.124 146.367 103.134C146.532 103.119 146.69 103.064 146.829 102.975C146.967 102.885 147.082 102.764 147.164 102.62C147.394 102.231 147.515 101.787 147.515 101.335C147.515 100.883 147.394 100.44 147.164 100.05C147.09 99.9009 146.976 99.7749 146.834 99.6869C146.693 99.5989 146.529 99.5522 146.362 99.5522C146.195 99.5522 146.032 99.5989 145.89 99.6869C145.749 99.7749 145.634 99.9009 145.56 100.05C145.326 100.432 145.204 100.872 145.206 101.32V101.325Z" fill="#F8F8F8"/>
<path d="M149.739 99.6441L149.148 99.9936C149.125 99.9995 149.1 99.9995 149.076 99.9936C149.051 99.9945 149.026 99.9883 149.004 99.9755C148.982 99.9628 148.965 99.9441 148.953 99.9217C148.942 99.9059 148.935 99.8879 148.932 99.869C148.928 99.8502 148.929 99.8308 148.934 99.8123C148.939 99.7938 148.948 99.7765 148.96 99.7617C148.972 99.7469 148.987 99.7348 149.004 99.7264L149.811 99.2124C149.845 99.1953 149.884 99.1917 149.92 99.2022C149.956 99.2127 149.987 99.2365 150.007 99.2689C150.019 99.3039 150.019 99.3419 150.007 99.3768V103.216C150.007 103.255 149.992 103.291 149.965 103.318C149.938 103.345 149.901 103.36 149.863 103.36C149.825 103.359 149.789 103.343 149.762 103.317C149.736 103.29 149.72 103.254 149.719 103.216L149.739 99.6441Z" fill="#F8F8F8"/>
<path d="M151.059 103.139L153.007 101.371C153.166 101.225 153.278 101.035 153.327 100.824C153.376 100.614 153.361 100.394 153.283 100.193C153.206 99.9914 153.069 99.8181 152.892 99.6954C152.714 99.5728 152.504 99.5065 152.288 99.5051C152.019 99.5053 151.759 99.604 151.558 99.7827L151.357 99.9677C151.344 99.9821 151.329 99.9935 151.311 100.001C151.293 100.009 151.274 100.013 151.255 100.013C151.235 100.013 151.216 100.009 151.198 100.001C151.181 99.9935 151.165 99.9821 151.152 99.9677C151.138 99.9543 151.127 99.9383 151.12 99.9207C151.112 99.903 151.109 99.8841 151.109 99.8649C151.109 99.8458 151.112 99.8268 151.12 99.8092C151.127 99.7915 151.138 99.7755 151.152 99.7621L151.357 99.5719C151.613 99.3456 151.941 99.2195 152.283 99.2173C152.642 99.22 152.986 99.3636 153.241 99.6174C153.496 99.8711 153.641 100.215 153.645 100.574C153.647 100.767 153.609 100.958 153.533 101.135C153.457 101.312 153.344 101.471 153.203 101.602L151.532 103.144H153.511C153.549 103.147 153.585 103.163 153.612 103.191C153.638 103.219 153.654 103.255 153.655 103.293C153.654 103.331 153.638 103.367 153.611 103.394C153.585 103.42 153.549 103.436 153.511 103.437H151.157C151.137 103.439 151.117 103.436 151.098 103.429C151.08 103.422 151.063 103.411 151.049 103.396C151.03 103.38 151.016 103.36 151.006 103.337C150.996 103.314 150.991 103.29 150.992 103.265C150.993 103.24 151 103.216 151.011 103.194C151.023 103.173 151.039 103.154 151.059 103.139Z" fill="#F8F8F8"/>
<path d="M160.688 99.4536L159.608 100.569C159.88 100.62 160.129 100.753 160.323 100.949C160.464 101.079 160.577 101.235 160.656 101.409C160.735 101.583 160.778 101.771 160.782 101.962C160.786 102.154 160.752 102.344 160.681 102.521C160.61 102.699 160.504 102.86 160.369 102.995C160.235 103.131 160.074 103.238 159.897 103.31C159.72 103.381 159.53 103.417 159.339 103.413C159.148 103.41 158.959 103.368 158.785 103.29C158.61 103.212 158.453 103.099 158.323 102.959C158.309 102.946 158.297 102.929 158.289 102.911C158.281 102.893 158.277 102.874 158.277 102.854C158.277 102.834 158.281 102.814 158.289 102.796C158.297 102.778 158.309 102.762 158.323 102.748C158.352 102.722 158.389 102.707 158.429 102.707C158.468 102.707 158.505 102.722 158.534 102.748C158.743 102.956 159.026 103.072 159.32 103.072C159.617 103.069 159.901 102.951 160.112 102.743C160.216 102.64 160.299 102.516 160.356 102.38C160.412 102.245 160.441 102.099 160.441 101.952C160.442 101.805 160.414 101.66 160.357 101.525C160.301 101.389 160.217 101.267 160.112 101.165C160.009 101.06 159.885 100.977 159.75 100.921C159.614 100.864 159.468 100.835 159.32 100.836C159.275 100.833 159.233 100.813 159.202 100.78C159.188 100.766 159.176 100.749 159.168 100.731C159.16 100.712 159.156 100.692 159.156 100.672C159.156 100.652 159.16 100.632 159.168 100.613C159.176 100.595 159.188 100.578 159.202 100.564L160.23 99.4896H158.632C158.592 99.4896 158.554 99.4739 158.526 99.446C158.498 99.418 158.483 99.3801 158.483 99.3406C158.482 99.3208 158.485 99.3011 158.492 99.2827C158.5 99.2643 158.511 99.2476 158.525 99.2336C158.539 99.2196 158.555 99.2086 158.574 99.2014C158.592 99.1941 158.612 99.1908 158.632 99.1915H160.585C160.624 99.1915 160.662 99.2072 160.69 99.2352C160.718 99.2631 160.734 99.301 160.734 99.3406C160.741 99.3622 160.741 99.3857 160.734 99.4074C160.723 99.4264 160.707 99.4423 160.688 99.4536Z" fill="#F8F8F8"/>
<path d="M164.203 102.502H161.91C161.877 102.504 161.843 102.493 161.818 102.471C161.803 102.458 161.792 102.443 161.784 102.426C161.777 102.408 161.772 102.39 161.772 102.371C161.772 102.352 161.777 102.333 161.784 102.316C161.792 102.298 161.803 102.283 161.818 102.27L164.228 99.2532C164.242 99.2395 164.258 99.2286 164.275 99.2212C164.293 99.2138 164.312 99.21 164.331 99.21C164.35 99.21 164.369 99.2138 164.387 99.2212C164.405 99.2286 164.421 99.2395 164.434 99.2532C164.453 99.2747 164.469 99.2989 164.48 99.3251C164.479 99.3337 164.479 99.3423 164.48 99.3508V102.234H164.763C164.802 102.234 164.839 102.249 164.867 102.276C164.894 102.303 164.911 102.34 164.912 102.378C164.912 102.398 164.908 102.417 164.901 102.435C164.893 102.452 164.882 102.468 164.868 102.482C164.854 102.495 164.838 102.506 164.82 102.513C164.802 102.52 164.782 102.523 164.763 102.522H164.48V103.237C164.48 103.256 164.476 103.275 164.469 103.293C164.461 103.311 164.45 103.327 164.436 103.34C164.422 103.354 164.406 103.364 164.388 103.371C164.37 103.378 164.35 103.381 164.331 103.381C164.294 103.381 164.258 103.366 164.231 103.34C164.204 103.314 164.189 103.279 164.187 103.242L164.203 102.502ZM164.203 102.214V99.7672L162.234 102.219L164.203 102.214Z" fill="#F8F8F8"/>
<path d="M169.831 100.081C169.972 99.8124 170.182 99.5865 170.439 99.4265C170.697 99.2666 170.993 99.1784 171.296 99.171C171.333 99.1696 171.369 99.1827 171.397 99.2077C171.425 99.2326 171.442 99.2674 171.445 99.3046C171.445 99.3444 171.43 99.3827 171.404 99.4122C171.377 99.4417 171.34 99.4601 171.301 99.464C171.048 99.4714 170.802 99.5463 170.587 99.681C170.373 99.8157 170.199 100.005 170.083 100.23C169.939 100.491 169.84 100.774 169.79 101.068C170.001 100.829 170.29 100.671 170.605 100.622C170.92 100.573 171.243 100.635 171.517 100.797C171.791 100.96 172.001 101.214 172.108 101.514C172.216 101.814 172.216 102.143 172.108 102.443C172 102.743 171.791 102.996 171.516 103.159C171.241 103.321 170.919 103.383 170.604 103.333C170.288 103.284 170 103.126 169.789 102.887C169.577 102.648 169.456 102.343 169.445 102.024C169.437 101.931 169.437 101.838 169.445 101.746C169.434 101.168 169.566 100.595 169.831 100.081ZM169.738 101.993C169.735 102.018 169.735 102.044 169.738 102.07C169.741 102.084 169.741 102.098 169.738 102.111C169.757 102.401 169.888 102.673 170.103 102.869C170.319 103.064 170.602 103.168 170.892 103.159C171.183 103.15 171.459 103.028 171.661 102.819C171.864 102.61 171.977 102.33 171.977 102.039C171.977 101.748 171.864 101.469 171.661 101.26C171.459 101.051 171.183 100.929 170.892 100.919C170.602 100.91 170.319 101.014 170.103 101.21C169.888 101.405 169.757 101.677 169.738 101.967V101.993Z" fill="#F8F8F8"/>
<path d="M143.931 110.585L107.479 110.681L107.483 112.475L143.936 112.379L143.931 110.585Z" fill="#37474F"/>
<path d="M132.997 114.94H107.189V116.734H132.997V114.94Z" fill="#37474F"/>
<path d="M157.083 80.5847L138.903 80.6323L138.908 82.4262L157.088 82.3786L157.083 80.5847Z" fill="#37474F"/>
<path d="M170.382 88.2435L170.043 87.9043C169.976 87.8375 169.909 87.7758 169.848 87.709C170.284 87.2786 170.631 86.7656 170.868 86.2C171.105 85.6344 171.226 85.0274 171.226 84.4142C171.226 83.8011 171.105 83.1941 170.868 82.6284C170.631 82.0628 170.284 81.5499 169.848 81.1195L170.038 80.9345L170.377 80.5952V80.6209C170.506 80.7648 170.639 80.9036 170.763 81.0527C171.013 81.3701 171.227 81.715 171.4 82.0807C171.607 82.4985 171.756 82.9431 171.842 83.4016C171.883 83.6227 171.904 83.8437 171.929 84.0647C171.929 84.1418 171.929 84.6301 171.929 84.6455C171.929 84.7946 171.929 84.9488 171.899 85.0979C171.85 85.5126 171.752 85.9199 171.606 86.3109C171.503 86.5966 171.374 86.872 171.22 87.1333C171.063 87.4128 170.879 87.6762 170.67 87.9197C170.567 88.0431 170.454 88.1613 170.346 88.2795L170.382 88.2435Z" fill="white"/>
<path d="M168.773 82.2038L169.287 81.6641C169.65 82.0246 169.937 82.4532 170.133 82.9251C170.329 83.397 170.43 83.9029 170.43 84.414C170.43 84.925 170.329 85.431 170.133 85.9029C169.937 86.3748 169.65 86.8033 169.287 87.1639L168.773 86.6242C169.064 86.334 169.294 85.9894 169.451 85.6102C169.608 85.2309 169.689 84.8245 169.689 84.414C169.689 84.0035 169.608 83.597 169.451 83.2178C169.294 82.8385 169.064 82.494 168.773 82.2038Z" fill="white"/>
<path d="M168.233 86.0847L167.693 85.5707C167.844 85.4235 167.963 85.2475 168.044 85.0533C168.126 84.859 168.167 84.6505 168.166 84.4399C168.165 84.0152 167.994 83.6086 167.693 83.3091L168.207 82.7694C168.648 83.2069 168.898 83.8008 168.903 84.4218C168.908 85.0427 168.667 85.6404 168.233 86.0847Z" fill="white"/>
<path d="M82.3117 90.793C81.7977 98.503 81.7977 114.314 85.3957 118.775C90.0731 124.635 102.769 127.827 106.526 128.783C108.161 129.199 111.574 118.503 110.571 116.961C109.569 115.419 96.4672 112.669 95.4135 111.821C94.3598 110.973 90.4329 96.6475 88.6441 90.3561C86.3517 82.4508 82.7537 84.2961 82.3117 90.793Z" fill="#F5B6AE"/>
<path d="M102.395 127.369C106.784 129.528 112.114 132.478 117.619 132.067C118.233 132.036 118.818 131.798 119.279 131.394C121.752 131.255 122.425 130.047 122.425 130.047C124.687 129.209 125.206 127.878 125.206 127.878C125.206 127.878 128.105 127.677 128.29 125.904C128.485 123.92 124.378 124.588 121.896 123.57C116.206 121.247 108.763 116.374 107.19 115.516L102.395 127.369Z" fill="#F5B6AE"/>
<path d="M114.201 125.329C115.86 126.025 117.563 126.611 119.3 127.081C121.232 127.474 123.19 127.723 125.159 127.827C125.17 127.83 125.178 127.837 125.185 127.845C125.191 127.854 125.195 127.865 125.195 127.875C125.195 127.886 125.191 127.897 125.185 127.906C125.178 127.914 125.17 127.921 125.159 127.924C121.335 128.104 117.534 127.233 114.17 125.406C114.108 125.359 114.108 125.293 114.201 125.329Z" fill="#263238"/>
<path d="M112.299 128.557C113.979 129.102 116.925 130.037 122.424 129.986V130.016C118.977 130.511 115.459 130.034 112.268 128.639C112.17 128.598 112.185 128.5 112.299 128.557Z" fill="#263238"/>
<path d="M111.307 130.314C114.196 131.126 116.123 131.276 119.269 131.384V131.414C115.671 131.666 114.35 131.353 111.266 130.386C111.163 130.376 111.199 130.284 111.307 130.314Z" fill="#263238"/>
<path d="M115.197 120.338C114.575 119.741 114.884 119.412 116.41 119.561C117.937 119.71 123.833 121.617 124.321 119.489C124.809 117.361 116.441 114.827 113.882 114.771C111.322 114.714 107.174 115.516 107.174 115.516C108.7 116.339 112.221 118.688 115.197 120.338Z" fill="#F5B6AE"/>
<path d="M81.3617 102.882L92.4333 100.487C92.4333 100.487 90.0894 92.196 88.2493 88.0583C86.4092 83.9206 83.0631 82.4352 81.9734 89.2662C81.0482 95.059 81.3617 102.882 81.3617 102.882Z" fill="#263238"/>
<path d="M180.799 229.347H225.589L219.056 183.724H187.327L180.799 229.347Z" fill="#6FBD44"/>
<path opacity="0.1" d="M187.327 183.724L192.302 229.347H180.799L187.327 183.724Z" fill="#263238"/>
<path d="M209.885 186.921C209.885 186.88 209.068 183.056 208.205 179.211C207.48 175.988 204.283 174.508 201.61 174.945C200.664 175.099 197.616 175.901 198.012 179.843C198.464 184.372 198.814 186.561 198.819 186.582L196.938 186.89C196.938 186.798 196.573 184.629 196.11 180.034C195.745 176.369 197.786 173.629 201.307 173.064C204.828 172.498 209.094 174.477 210.045 178.795C210.913 182.665 211.72 186.505 211.731 186.541L209.885 186.921Z" fill="#263238"/>
<path d="M191.721 228.997C190.693 228.53 189.696 228.005 188.698 227.481C187.701 226.957 186.725 226.396 185.753 225.826H186.01C185.244 226.386 184.468 226.936 183.687 227.46C182.906 227.985 182.114 228.519 181.297 229.002C182.006 228.37 182.741 227.769 183.481 227.178C184.222 226.587 184.972 226.011 185.733 225.446L185.856 225.353L185.99 225.43C186.966 225.985 187.934 226.559 188.894 227.152C189.824 227.743 190.775 228.345 191.721 228.997Z" fill="white"/>
<path d="M185.852 225.646C185.852 222.727 185.903 219.812 185.965 216.908C186.026 214.004 186.129 211.084 186.206 208.17C186.283 205.256 186.422 202.346 186.561 199.432L186.777 195.063C186.864 193.608 186.936 192.154 187.039 190.699C187.039 192.159 187.039 193.614 187.008 195.073L186.926 199.442C186.864 202.357 186.761 205.271 186.684 208.18C186.607 211.09 186.468 214.009 186.33 216.918C186.191 219.828 186.067 222.716 185.852 225.646Z" fill="white"/>
<path d="M208.92 186.721C208.92 187.097 209.032 187.465 209.241 187.778C209.45 188.091 209.747 188.334 210.095 188.478C210.443 188.622 210.826 188.659 211.195 188.586C211.564 188.512 211.903 188.33 212.168 188.064C212.434 187.797 212.615 187.458 212.688 187.089C212.76 186.719 212.722 186.337 212.577 185.989C212.433 185.642 212.188 185.345 211.875 185.137C211.561 184.929 211.193 184.818 210.817 184.819C210.313 184.82 209.831 185.021 209.475 185.378C209.12 185.734 208.92 186.217 208.92 186.721Z" fill="#263238"/>
<path d="M196.121 186.721C196.121 187.097 196.233 187.464 196.442 187.777C196.651 188.09 196.948 188.334 197.295 188.478C197.643 188.622 198.025 188.659 198.394 188.586C198.763 188.513 199.102 188.331 199.368 188.065C199.634 187.799 199.815 187.461 199.888 187.092C199.962 186.723 199.924 186.34 199.78 185.993C199.636 185.645 199.392 185.348 199.079 185.139C198.767 184.93 198.399 184.819 198.023 184.819C197.519 184.819 197.035 185.019 196.678 185.376C196.321 185.733 196.121 186.216 196.121 186.721Z" fill="#263238"/>
<path d="M212.421 124.126L209.82 121.505L208.33 120.019C215.156 112.982 218.795 104.599 218.8 94.8023C218.805 85.0054 215.171 76.6118 208.299 69.5237C208.787 69.0611 209.291 68.5934 209.779 68.1102L212.375 65.5402C212.393 65.5146 212.409 65.487 212.421 65.458H212.483C212.539 65.5248 212.586 65.5917 212.642 65.6533C213.619 66.7533 214.636 67.8275 215.572 68.9635C219.747 74.1355 222.595 80.2496 223.868 86.7736C224.176 88.4492 224.33 90.1557 224.541 91.8468C224.613 92.4224 224.623 96.1695 224.613 96.2877C224.531 97.4391 224.48 98.5956 224.356 99.7418C223.995 102.925 223.247 106.053 222.131 109.055C221.33 111.236 220.344 113.344 219.185 115.357C217.968 117.487 216.557 119.5 214.971 121.371C214.169 122.312 213.315 123.216 212.483 124.136L212.421 124.126Z" fill="#6FBD44"/>
<path d="M200.095 77.8354C201.472 76.4528 202.819 75.0958 204.207 73.6978C208.833 78.4111 211.778 83.9778 212.662 90.5364C213.988 100.328 211.012 108.737 204.268 115.866L200.156 111.708C204.7 107.026 207.157 101.387 207.152 94.7769C207.147 88.1669 204.664 82.554 200.095 77.8354Z" fill="#6FBD44"/>
<path d="M195.967 107.57L191.855 103.458C192.999 102.321 193.907 100.969 194.526 99.4803C195.146 97.9913 195.465 96.3944 195.465 94.7817C195.465 93.169 195.146 91.5722 194.526 90.0832C193.907 88.5942 192.999 87.2423 191.855 86.1054L195.967 81.9934C202.804 88.5366 203.348 100.323 195.967 107.57Z" fill="#6FBD44"/>
</svg>
