<svg width="533" height="150" viewBox="0 0 533 150" fill="none" xmlns="http://www.w3.org/2000/svg">
<path d="M74.5846 29.071C70.6902 27.8222 66.5001 27.1729 62.1621 27.1729C61.5705 27.1729 60.979 27.1729 60.3874 27.2228C60.1409 27.2228 59.8945 27.2228 59.5987 27.2728C59.155 27.2728 58.7114 27.3227 58.317 27.3727C58.2184 27.3727 58.1198 27.3727 57.9719 27.4226C57.3804 27.4726 56.7888 27.5225 56.1973 27.6224C55.5564 27.7223 54.9156 27.8222 54.2748 27.9721C53.8311 28.022 53.4367 28.1219 53.0424 28.2218C52.648 28.3217 52.2043 28.4216 51.81 28.5215C51.5142 28.5715 51.1691 28.6714 50.8733 28.7713C50.3804 28.9211 49.8381 29.071 49.3452 29.2208C32.5353 34.7153 20.3593 50.7493 20.3593 69.5305C20.3593 72.3776 20.655 75.1249 21.148 77.7722C21.6409 80.4196 22.4297 82.9671 23.3663 85.4146C23.7114 86.2638 24.0564 87.063 24.4508 87.9121C25.1902 89.4606 26.0283 91.009 26.9649 92.4576C28.148 94.3057 29.4297 96.004 30.8593 97.6524C30.9578 97.7523 31.0564 97.9021 31.2043 98.002C31.648 98.5015 32.0916 99.001 32.5846 99.5005C37.2184 104.196 42.9367 107.842 49.3452 109.89C49.8381 110.04 50.3311 110.19 50.824 110.34C51.1198 110.44 51.4649 110.539 51.7607 110.589C52.0071 110.639 52.2536 110.689 52.4508 110.739C52.8452 110.839 53.2888 110.939 53.7325 111.039C53.979 111.089 54.2748 111.139 54.5212 111.189H54.5705C54.9156 111.239 55.2114 111.289 55.5564 111.339C55.7536 111.389 56.0001 111.389 56.1973 111.439C56.7888 111.538 57.3804 111.588 57.9719 111.638C58.0705 111.638 58.1691 111.688 58.2677 111.688C58.7114 111.738 59.155 111.788 59.5494 111.788C59.7959 111.788 60.0424 111.838 60.3381 111.838C60.486 111.838 60.6832 111.838 60.8311 111.838C61.2255 111.838 61.6691 111.838 62.1128 111.838C66.4508 111.838 70.5917 111.189 74.5353 109.94C81.0917 107.892 86.9579 104.196 91.6902 99.4006C92.2818 98.8012 92.8733 98.2018 93.4156 97.5525C94.8452 95.9041 96.1269 94.2058 97.31 92.3577C98.0987 91.1589 98.7888 89.9101 99.4297 88.6114C99.9719 87.5625 100.465 86.4136 100.909 85.3147C101.944 82.7673 102.733 80.1199 103.225 77.3726C103.718 74.8252 103.965 72.1778 103.965 69.4805C103.965 50.5495 91.5917 34.4156 74.5846 29.071ZM91.7395 71.3786C91.4931 75.4246 90.4579 79.2708 88.7818 82.7173C88.7325 82.8672 88.6339 83.017 88.5846 83.1669C87.9931 84.3157 87.3522 85.4146 86.6621 86.4636C85.2818 88.5115 83.655 90.4096 81.8311 92.058C80.2043 93.5065 78.479 94.7553 76.5564 95.8542V81.4186L77.6903 79.5205L77.7395 79.4706L79.4156 76.7233L83.0142 70.8791L64.4297 42.6074V62.9371C65.1198 63.5365 65.5635 64.3856 65.6621 65.3846C65.6621 65.4346 65.6621 65.5345 65.6621 65.5844C65.6621 67.4825 64.1339 69.0809 62.2114 69.0809C60.3381 69.0809 58.7607 67.5325 58.7607 65.5844C58.7607 65.5345 58.7607 65.4845 58.7607 65.4845C58.7607 65.2847 58.7607 65.0849 58.81 64.8851C58.81 64.7852 58.8593 64.6853 58.8593 64.5355C58.8593 64.4855 58.8593 64.4855 58.8593 64.4356C58.9086 64.2857 58.9578 64.1858 59.0071 64.036C59.0564 63.9361 59.1057 63.7862 59.2043 63.6863C59.2536 63.5864 59.3522 63.4865 59.4508 63.3866C59.5001 63.2867 59.5987 63.2368 59.648 63.1369C59.7466 63.037 59.7959 62.987 59.8945 62.8871V42.5575L54.1762 51.1988L49.2959 58.7413L47.4226 61.5884L43.1339 68.1319L41.3593 70.8292L44.9578 76.6733L46.486 79.2208L46.5846 79.4206L47.7677 81.3686V95.7543C45.8945 94.7053 44.1198 93.4066 42.4931 91.9581C42.0987 91.6084 41.7536 91.2588 41.3593 90.9091C41.1128 90.7093 40.9156 90.4596 40.7184 90.2098C40.5212 90.01 40.3733 89.8602 40.1762 89.6604C40.0283 89.5105 39.8804 89.3607 39.7325 89.1609L39.6832 89.1109C39.3874 88.7613 39.0917 88.4116 38.8452 88.062C38.7959 88.012 38.7466 87.9121 38.648 87.8622C38.3029 87.4126 38.0071 86.9631 37.6621 86.5135C37.6621 86.5135 37.6128 86.4636 37.6128 86.4136C36.824 85.2148 36.0846 83.9661 35.4931 82.6674V82.6174C33.9156 79.3207 32.8804 75.6743 32.5846 71.8781C32.5846 71.6783 32.5846 71.5285 32.5846 71.3287C32.5353 70.7293 32.5353 70.1299 32.5353 69.5305C32.5353 57.6424 39.3874 47.3027 49.3452 42.4576C49.9367 42.1579 50.5776 41.8582 51.2184 41.6084C51.5142 41.4586 51.8593 41.3587 52.155 41.2588C52.5494 41.1089 52.9438 40.9591 53.3874 40.8592C53.6339 40.7593 53.9297 40.6594 54.2255 40.6094C54.2748 40.6094 54.324 40.6094 54.324 40.5595C54.817 40.4096 55.2607 40.3097 55.7536 40.2098C55.9508 40.1599 56.0987 40.1099 56.2959 40.1099C56.8381 40.01 57.3804 39.9101 57.9226 39.8102C58.2184 39.7603 58.4649 39.7603 58.7607 39.7103C59.0071 39.7103 59.2536 39.6604 59.5494 39.6604C59.9438 39.6104 60.3381 39.6104 60.7325 39.5605C60.9297 39.5605 61.0776 39.5605 61.2748 39.5605C61.5705 39.5605 61.8663 39.5605 62.1621 39.5605C66.5987 39.5605 70.7888 40.5595 74.5846 42.3577C84.7395 47.1029 91.8381 57.5425 91.8381 69.6304C91.7888 70.1299 91.7888 70.7293 91.7395 71.3786Z" fill="#147CC1"/>
<path d="M32.4875 69.5321C32.4875 70.1315 32.4875 70.731 32.5368 71.3304C32.5368 71.5302 32.5368 71.68 32.5368 71.8798C32.8326 75.7259 33.8185 79.3224 35.4452 82.6191V82.669C36.0861 83.9677 36.7762 85.2165 37.5649 86.4153C37.5649 86.4153 37.6142 86.4652 37.6142 86.5152C37.91 86.9647 38.2551 87.4143 38.6002 87.8638C38.6495 87.9138 38.6988 88.0137 38.7973 88.0636C39.0438 88.4133 39.3396 88.7629 39.6354 89.1126L39.6847 89.1625C39.8326 89.3124 39.9804 89.5122 40.1283 89.662C40.2762 89.8618 40.4734 90.0616 40.6706 90.2115C40.8678 90.4612 41.065 90.661 41.3114 90.9108C41.6565 91.2604 42.0509 91.6101 42.4452 91.9597C44.072 93.4083 45.7973 94.707 47.7199 95.7559V81.4203L46.5368 79.4722L46.4382 79.2724L44.91 76.725L41.3114 70.8808L43.0861 68.1835L47.3748 61.64L49.2481 58.7929L54.2269 51.2504L59.9452 42.6091V62.9387C59.8466 62.9887 59.7481 63.0886 59.6988 63.1885C59.6002 63.2384 59.5509 63.3383 59.5016 63.4382C59.403 63.5381 59.3537 63.638 59.2551 63.7379C59.2058 63.8378 59.1072 63.9877 59.0579 64.0876C59.0086 64.2374 58.9593 64.3373 58.91 64.4872C58.91 64.4872 58.91 64.5371 58.91 64.5871C58.8607 64.687 58.8607 64.7869 58.8607 64.9367C58.8114 65.1365 58.8114 65.3363 58.8114 65.5361C58.8114 65.5861 58.8114 65.636 58.8114 65.636C58.8114 67.5341 60.3396 69.1325 62.2621 69.1325V111.89C61.8185 111.89 61.4241 111.89 60.9804 111.89C60.8326 111.89 60.6354 111.89 60.4875 111.89C60.241 111.89 59.9945 111.89 59.6988 111.84C59.2551 111.84 58.8114 111.79 58.4171 111.74C58.3185 111.74 58.2199 111.74 58.1213 111.69C57.5297 111.64 56.9382 111.59 56.3466 111.49C56.1495 111.49 55.903 111.44 55.7058 111.39C55.3607 111.34 55.065 111.29 54.7199 111.24H54.6706C54.4241 111.19 54.1283 111.141 53.8819 111.091C53.6354 111.041 53.3396 110.991 53.0931 110.941C52.9452 110.891 52.7973 110.891 52.6002 110.841C52.3537 110.791 52.1072 110.741 51.91 110.691C51.565 110.641 51.2692 110.541 50.9734 110.441C50.4804 110.291 49.9875 110.142 49.4945 109.992C43.0861 107.894 37.3678 104.297 32.734 99.6021C32.241 99.1026 31.7973 98.653 31.3537 98.1036C31.2551 98.0037 31.1565 97.8538 31.0086 97.7539C29.579 96.1056 28.2973 94.4073 27.1142 92.5591C26.1776 91.1106 25.3396 89.6121 24.6002 88.0137C24.2058 87.2145 23.8607 86.3653 23.5157 85.5162C22.5297 83.0686 21.7903 80.5212 21.2973 77.8738C20.7551 75.2264 20.5086 72.4292 20.5086 69.632C20.5086 50.8009 32.6847 34.8169 49.4945 29.3224C49.9875 29.1725 50.4804 29.0227 51.0227 28.8728C51.3185 28.7729 51.6143 28.723 51.9593 28.6231C52.3537 28.5232 52.7973 28.4233 53.1917 28.3234C53.5861 28.2235 54.0297 28.1236 54.4241 28.0736C55.065 27.9737 55.7058 27.8239 56.3466 27.724C56.9382 27.6241 57.5297 27.5741 58.1213 27.5242C58.2199 27.5242 58.3185 27.4742 58.4664 27.4742C58.91 27.4243 59.3044 27.3743 59.7481 27.3743C59.9945 27.3743 60.241 27.3244 60.5368 27.3244C61.1283 27.2744 61.7199 27.2744 62.3114 27.2744V39.4622C62.0157 39.4622 61.7199 39.4622 61.4241 39.4622C61.2269 39.4622 61.079 39.4622 60.8819 39.4622C60.4875 39.4622 60.0931 39.5122 59.6988 39.5621C59.4523 39.5621 59.1565 39.6121 58.91 39.6121C58.6143 39.6121 58.3678 39.662 58.072 39.712C57.5297 39.7619 56.9875 39.8618 56.4452 40.0117C56.2481 40.0616 56.1002 40.0616 55.903 40.1116C55.41 40.2115 54.9171 40.3114 54.4734 40.4612C54.4241 40.4612 54.3748 40.4612 54.3748 40.5112C54.079 40.5611 53.8326 40.661 53.5368 40.7609C53.1424 40.8608 52.6988 41.0107 52.3044 41.1605C52.0086 41.2604 51.6635 41.4103 51.3678 41.5102C50.7269 41.7599 50.1354 42.0596 49.4945 42.3593C39.3889 47.3044 32.4875 57.644 32.4875 69.5321Z" fill="#72BF44"/>
<path d="M152.57 68.1318C148.232 63.4365 143.007 61.0889 136.845 61.0889C130.683 61.0889 125.458 63.4365 121.07 68.1318C116.732 72.8271 114.563 78.5214 114.563 85.1648C114.563 90.8591 116.19 95.8541 119.394 100.1C119.937 100.799 120.479 101.498 121.12 102.148C125.458 106.843 130.732 109.191 136.894 109.191C141.676 109.191 145.915 107.742 149.613 104.895V109.391H159.077V86.7132C159.127 86.1638 159.127 85.6643 159.127 85.1148C159.077 78.5214 156.908 72.8271 152.57 68.1318ZM136.648 99.95C136.303 99.8002 135.366 99.6004 133.789 99.4006C131.817 98.6513 130.141 97.7522 128.761 96.6533C125.408 94.006 123.782 90.2098 123.782 85.3146C123.782 83.7162 124.127 81.6683 124.866 79.2207C128.12 73.6763 131.62 70.929 135.366 70.929H137.437C138.669 70.929 139.606 71.1288 140.296 71.4785C146.408 74.2757 149.465 78.8711 149.465 85.3646C149.12 88.3116 148.775 90.1099 148.43 90.7093C148.232 91.2088 148.035 91.6583 147.838 92.1078C145.373 97.3526 141.577 99.95 136.648 99.95Z" fill="#147CC1"/>
<path d="M164.944 49.1006V108.491L175.149 108.541V49.1006H164.944V49.1006Z" fill="#147CC1"/>
<path d="M224.542 82.917C224.098 77.2227 221.929 72.3276 218.084 68.1318C213.746 63.4365 208.521 61.0889 202.359 61.0889C196.197 61.0889 190.972 63.4365 186.584 68.1318C182.246 72.8271 180.077 78.5214 180.077 85.1648C180.077 85.8141 180.077 86.4635 180.126 87.0629C180.521 92.9071 182.69 97.9021 186.584 102.148C190.922 106.843 196.197 109.191 202.359 109.191C207.141 109.191 211.38 107.742 215.077 104.895V109.391H224.542V86.7132C224.591 86.1638 224.591 85.6643 224.591 85.1148C224.591 84.4155 224.591 83.6663 224.542 82.917ZM213.993 90.6593C211.479 96.8531 207.535 100 202.162 100C201.817 99.8501 200.88 99.6503 199.302 99.4505C192.845 97.1029 189.542 92.6074 189.295 86.0639C189.295 85.8641 189.295 85.6143 189.295 85.3646C189.295 83.7662 189.641 81.7182 190.38 79.2707C193.633 73.7262 197.133 70.979 200.88 70.979H202.95C204.183 70.979 205.119 71.1788 205.81 71.5284C211.38 74.0759 214.436 78.1218 214.929 83.7162C214.979 84.2657 215.028 84.8151 215.028 85.4145C214.683 88.3116 214.338 90.0599 213.993 90.6593Z" fill="#147CC1"/>
<path d="M269.352 80.7195C268.465 73.6766 264.521 68.182 257.472 64.186C254.169 62.9373 251.261 62.3379 248.796 62.3379C240.169 62.3379 233.859 66.5836 229.916 75.1251C228.979 77.0232 228.338 79.5707 227.993 82.7175C227.845 84.266 227.747 86.0142 227.747 87.9123V109.191H238V84.9153C238 83.9163 238.049 82.9673 238.197 82.0682C238.937 76.7235 241.747 73.3269 246.676 71.8783C247.909 71.8783 248.549 71.7784 248.549 71.6286C253.627 71.6286 257.127 74.5757 259.049 80.4198C259.099 80.6196 259.148 80.8694 259.148 81.0692C259.444 82.5677 259.542 83.9663 259.542 85.215V109.191H269.5V83.9163C269.549 82.8174 269.5 81.7185 269.352 80.7195Z" fill="#147CC1"/>
<path d="M308.099 86.6639C306.029 84.6159 301.395 82.518 294.149 80.3702C293.902 80.3202 293.606 80.2203 293.261 80.1204C292.916 80.0205 292.522 79.9206 292.078 79.8207C288.085 78.7718 286.064 77.4231 286.064 75.8747C286.064 74.8257 286.508 74.0265 287.395 73.4771C288.283 72.9276 289.614 72.6279 291.339 72.6279C293.409 72.6279 295.973 73.1274 299.029 74.1764C302.085 75.1754 304.649 76.4241 306.67 77.7728L309.825 67.1834C306.818 65.8347 303.909 64.8357 301.05 64.1864C298.191 63.537 295.381 63.2373 292.571 63.2373C287.198 63.2373 282.909 64.4861 279.754 67.0335C276.599 69.581 275.022 72.9776 275.022 77.2233C275.022 78.4221 275.17 79.521 275.416 80.52C275.909 82.3682 276.797 83.9166 278.128 85.2653C280.198 87.3132 284.191 89.561 290.057 91.9086C290.846 92.1084 291.93 92.4081 293.212 92.7078C297.254 93.6569 299.226 95.1054 299.226 97.0535C299.226 98.2523 298.733 99.1514 297.747 99.7508C296.761 100.35 295.283 100.7 293.409 100.7C290.698 100.7 287.691 100.25 284.339 99.3512C280.987 98.4521 278.226 97.0535 276.008 95.0555L272.853 104.746C275.712 106.544 278.768 107.843 282.022 108.742C285.275 109.641 288.775 110.04 292.571 110.04C298.191 110.04 302.677 108.642 306.029 105.895C309.43 103.147 311.106 99.501 311.106 95.0555C311.205 91.559 310.17 88.7618 308.099 86.6639Z" fill="#72BF44"/>
<path d="M347.289 94.0064H347.042C343.542 97.5529 340.042 99.3511 336.542 99.3511C334.866 99.3511 332.845 98.7017 330.528 97.5029C327.817 96.0044 325.894 93.2572 324.76 89.2612V89.0114C324.218 87.5629 323.824 85.8646 323.528 84.0164C323.775 82.6678 324.12 81.419 324.563 80.2702V80.0204V79.9705C325.697 75.9745 327.62 73.2272 330.331 71.7287C332.697 70.48 334.669 69.8805 336.345 69.8805C339.894 69.8805 343.394 71.6788 346.845 75.2252H347.091C351.725 71.8786 354.141 70.1802 354.437 70.1802V69.6308C349.162 63.5868 343.099 60.5898 336.296 60.5898C326.683 60.5898 319.683 65.5349 315.296 75.5249C314.803 77.0733 314.408 78.5718 314.162 80.0204C313.866 81.7187 313.718 83.3171 313.718 84.8656C313.718 90.9095 315.69 96.2042 319.634 100.8C323.873 106.094 329.493 108.792 336.542 108.792C343.345 108.792 349.408 105.795 354.683 99.7507V99.2012C354.338 99.1013 351.873 97.403 347.289 94.0064Z" fill="#72BF44"/>
<path d="M400.479 82.4677C400.331 74.1261 396.289 67.7325 388.401 63.237C385.099 61.9882 382.19 61.3888 379.725 61.3888C374.993 61.3888 371 62.6376 367.648 65.185V38.8613H358.627V87.163H358.676V108.192H368.93V83.9662C368.93 82.8673 368.979 81.8184 369.127 80.8693C369.915 75.6745 372.725 72.3279 377.606 70.9293C378.838 70.9293 379.43 70.8294 379.43 70.6795C384.507 70.6795 388.007 73.6266 389.93 79.4707C390.077 80.3199 390.225 81.0691 390.275 81.8184C390.373 82.6675 390.423 83.4667 390.423 84.216V108.192H400.38V82.9173C400.528 82.8174 400.528 82.6176 400.479 82.4677Z" fill="#72BF44"/>
<path d="M442.38 69.0811C438.042 64.3857 432.817 62.0381 426.655 62.0381C420.493 62.0381 415.268 64.3857 410.88 69.0811C407.282 72.9772 405.162 77.5226 404.57 82.7674C404.423 83.8163 404.373 84.9652 404.373 86.0641C404.373 92.7074 406.542 98.4018 410.88 103.097C415.218 107.792 420.493 110.14 426.655 110.14C432.768 110.14 438.042 107.792 442.38 103.097C446.57 98.5516 448.739 93.107 448.887 86.7634C448.887 86.5636 448.887 86.3138 448.887 86.114C448.937 79.4207 446.768 73.7264 442.38 69.0811ZM439.324 86.2139C438.979 89.2109 438.634 90.9592 438.289 91.5586C435.775 97.7524 431.831 100.899 426.458 100.899C426.113 100.749 425.176 100.55 423.599 100.35C416.944 97.9023 413.592 93.2069 413.592 86.2639C413.592 85.4147 413.69 84.5156 413.887 83.4167C414.084 82.4177 414.331 81.3688 414.676 80.17C417.93 74.6255 421.43 71.8783 425.176 71.8783H427.246C428.479 71.8783 429.415 72.0281 430.106 72.3778C436.07 75.0751 439.127 79.4707 439.275 85.6645C439.324 85.8143 439.324 86.0141 439.324 86.2139Z" fill="#72BF44"/>
<path d="M489.606 69.0811C485.268 64.3857 480.043 62.0381 473.881 62.0381C467.719 62.0381 462.494 64.3857 458.106 69.0811C453.768 73.7764 451.599 79.4207 451.599 86.0641C451.599 86.4137 451.599 86.7134 451.599 87.0631C451.796 93.3068 453.965 98.6016 458.106 103.097C462.444 107.792 467.719 110.14 473.881 110.14C479.994 110.14 485.268 107.792 489.606 103.097C492.022 100.5 493.747 97.6026 494.832 94.4057C495.719 91.8083 496.163 89.0611 496.163 86.0641C496.163 79.4207 493.944 73.7264 489.606 69.0811ZM473.684 100.899C473.339 100.749 472.402 100.55 470.824 100.35C464.81 98.152 461.508 94.106 460.916 88.2619C460.867 87.6125 460.817 86.9632 460.817 86.2639C460.817 84.6655 461.163 82.6175 461.902 80.17C465.155 74.6255 468.655 71.8783 472.402 71.8783H474.522C475.754 71.8783 476.691 72.0281 477.381 72.3778C483.494 75.175 486.599 79.7704 486.599 86.2639C486.254 89.2609 485.909 91.0091 485.564 91.6085C485.465 91.8583 485.367 92.0581 485.268 92.3078C482.705 98.0022 478.86 100.899 473.684 100.899Z" fill="#72BF44"/>
<path d="M501.289 49.1006V108.491L511.493 108.541V49.1006H501.289V49.1006Z" fill="#72BF44"/>
<path d="M159.028 90.0596V109.39H149.564V104.895C145.866 107.742 141.627 109.19 136.845 109.19C130.683 109.19 125.458 106.843 121.071 102.147C120.479 101.498 119.888 100.799 119.345 100.1C121.958 98.9007 125.064 97.7519 128.712 96.653C130.092 97.7519 131.768 98.651 133.74 99.4002C135.317 99.65 136.254 99.7998 136.599 99.9497C141.578 99.9497 145.324 97.3023 147.838 92.0076C151.388 91.3583 155.134 90.659 159.028 90.0596Z" fill="#52A3CC"/>
<path d="M164.944 89.1107C168.198 88.6112 171.649 88.1616 175.149 87.6621V108.541L164.944 108.491V89.1107Z" fill="#52A3CC"/>
<path d="M224.592 85.1649C224.592 85.7143 224.592 86.2138 224.542 86.7633V109.391H215.078V104.895C211.381 107.742 207.141 109.191 202.359 109.191C196.197 109.191 190.972 106.843 186.585 102.148C182.69 97.9022 180.521 92.9072 180.127 87.063C183.085 86.7133 186.141 86.3637 189.296 86.014C189.493 92.5575 192.845 97.053 199.303 99.4007C200.881 99.6504 201.817 99.8003 202.162 99.9501C207.535 99.9501 211.528 96.8532 213.993 90.6094C214.338 90.01 214.683 88.2618 215.028 85.2648C215.028 84.6654 215.028 84.1159 214.93 83.5665C218.085 83.3167 221.289 83.1169 224.493 82.8672C224.592 83.6664 224.592 84.4156 224.592 85.1649Z" fill="#52A3CC"/>
<path d="M227.993 82.6678C231.345 82.468 234.747 82.2682 238.197 82.0684C238.099 82.9675 238 83.9165 238 84.9155V109.141H227.747V87.8626C227.796 86.0144 227.845 84.2662 227.993 82.6678Z" fill="#52A3CC"/>
<path d="M269.352 80.7197C269.5 81.7687 269.549 82.8176 269.549 83.9165V109.191H259.592V85.2152C259.592 83.9665 259.444 82.6178 259.197 81.0694C262.549 80.9195 265.951 80.8196 269.352 80.7197Z" fill="#52A3CC"/>
<path d="M308.098 86.6636C310.168 88.7115 311.204 91.5087 311.204 95.0552C311.204 99.5507 309.528 103.147 306.126 105.894C302.725 108.642 298.239 110.04 292.668 110.04C288.873 110.04 285.373 109.591 282.119 108.741C278.866 107.842 275.809 106.544 272.95 104.745L276.105 95.0552C278.323 97.0032 281.084 98.4518 284.436 99.3509C287.788 100.25 290.795 100.7 293.506 100.7C295.429 100.7 296.859 100.4 297.844 99.7505C298.83 99.1011 299.323 98.202 299.323 97.0532C299.323 95.1051 297.302 93.6566 293.309 92.7075C292.028 92.4078 290.943 92.1081 290.154 91.9083C284.239 89.5607 280.295 87.3629 278.225 85.265C276.894 83.9663 276.006 82.3679 275.513 80.5197C281.33 80.3699 287.246 80.22 293.26 80.1201C293.605 80.22 293.901 80.3199 294.147 80.3699C301.394 82.5177 306.028 84.6156 308.098 86.6636Z" fill="#98CC72"/>
<path d="M347.289 94.0058C351.923 97.4024 354.338 99.1007 354.634 99.1007V99.6502C349.359 105.644 343.345 108.691 336.493 108.691C329.444 108.691 323.824 106.044 319.585 100.699C315.641 96.1037 313.669 90.809 313.669 84.7651C313.669 83.2166 313.817 81.6182 314.113 79.9199H315.986C318.796 79.9199 321.655 79.9199 324.465 79.9199V79.9699V80.2196C324.021 81.3185 323.676 82.5673 323.43 83.9659C323.726 85.814 324.12 87.4624 324.662 88.9609V89.2106C325.796 93.2066 327.719 95.9539 330.43 97.4524C332.747 98.7011 334.768 99.3005 336.444 99.3005C339.993 99.3005 343.493 97.5023 346.944 93.9559H347.289V94.0058Z" fill="#98CC72"/>
<path d="M358.676 80.5693C362.226 80.6692 365.726 80.7691 369.226 80.919C369.078 81.868 369.028 82.917 369.028 84.0159V108.242H358.775V87.2127H358.726V80.5693H358.676Z" fill="#98CC72"/>
<path d="M400.479 82.4676C400.479 82.6174 400.479 82.8172 400.479 82.9671V108.242H390.521V84.2658C390.521 83.5165 390.472 82.7173 390.373 81.8682C393.824 82.068 397.176 82.2678 400.479 82.4676Z" fill="#98CC72"/>
<path d="M448.887 86.7138C448.739 93.0574 446.57 98.5519 442.38 103.047C438.042 107.743 432.817 110.09 426.655 110.09C420.493 110.09 415.268 107.743 410.88 103.047C406.542 98.3521 404.373 92.6578 404.373 86.0145C404.373 84.8656 404.423 83.7667 404.57 82.7178C407.725 82.9176 410.831 83.1174 413.838 83.3671C413.641 84.4161 413.542 85.3651 413.542 86.2143C413.542 93.1573 416.894 97.8526 423.549 100.3C425.127 100.55 426.063 100.7 426.408 100.85C431.782 100.85 435.725 97.7527 438.239 91.509C438.584 90.9096 438.93 89.1613 439.275 86.1643C439.275 85.9645 439.275 85.7647 439.275 85.5649C442.627 86.0145 445.782 86.3142 448.887 86.7138Z" fill="#98CC72"/>
<path d="M494.832 94.3554C493.747 97.5522 492.022 100.449 489.606 103.047C485.268 107.742 480.043 110.09 473.881 110.09C467.719 110.09 462.494 107.742 458.106 103.047C453.965 98.6011 451.796 93.2565 451.599 87.0127C454.803 87.4123 457.86 87.8119 460.867 88.2115C461.458 94.0557 464.761 98.1016 470.775 100.299C472.353 100.549 473.289 100.699 473.634 100.849C478.81 100.849 482.655 98.0017 485.17 92.2075C488.67 92.9568 491.825 93.6561 494.832 94.3554Z" fill="#98CC72"/>
<path d="M511.543 99.65V108.591L501.338 108.541V96.1035C505.282 97.2024 508.683 98.4012 511.543 99.65Z" fill="#98CC72"/>
<path d="M62.1623 75.5244V111.888C61.5708 111.888 60.9792 111.888 60.3877 111.838C60.1412 111.838 59.8947 111.838 59.5989 111.788C59.1553 111.788 58.7116 111.738 58.3172 111.688C58.2186 111.688 58.1201 111.688 58.0215 111.638C57.4299 111.588 56.8384 111.538 56.2468 111.439C55.6553 111.389 55.113 111.289 54.5708 111.139C54.0285 111.039 53.5355 110.939 52.9933 110.839C52.5989 110.739 52.2046 110.639 51.8102 110.539C51.4651 110.489 51.1693 110.39 50.8736 110.29C50.3806 110.14 49.8877 109.99 49.3947 109.84C42.9862 107.742 37.2679 104.146 32.6341 99.4505C32.1412 98.951 31.6975 98.5014 31.2539 97.952C31.1553 97.8521 31.0567 97.7022 30.9088 97.6023C32.437 93.4065 34.7539 89.6103 37.6623 86.4135C37.6623 86.4135 37.7116 86.4635 37.7116 86.5134C38.0074 86.963 38.3524 87.4625 38.6975 87.8621C38.7468 87.912 38.7961 88.0119 38.8947 88.0619C39.1412 88.4115 39.437 88.7612 39.7327 89.1108C39.8806 89.3106 40.0285 89.4605 40.2257 89.6603C40.3736 89.8601 40.5708 90.0599 40.7679 90.2097C40.9651 90.4595 41.1623 90.6593 41.4088 90.909C41.7539 91.2587 42.1482 91.6083 42.5426 91.958C44.1693 93.4065 45.8947 94.7052 47.8172 95.7542V81.4185L46.6341 79.4705C51.2186 76.923 56.5426 75.5244 62.1623 75.5244Z" fill="#98CC72"/>
<path d="M62.1624 75.5244V111.888C62.7539 111.888 63.3455 111.888 63.937 111.838C64.1835 111.838 64.43 111.838 64.7258 111.788C65.1694 111.788 65.6131 111.738 66.0075 111.688C66.106 111.688 66.2046 111.688 66.3032 111.638C66.8948 111.588 67.4863 111.538 68.0779 111.439C68.6694 111.389 69.2117 111.289 69.7539 111.139C70.2962 111.039 70.7891 110.939 71.3314 110.839C71.7258 110.739 72.1201 110.639 72.5145 110.539C72.8596 110.489 73.1553 110.39 73.4511 110.29C73.9441 110.14 74.437 109.99 74.93 109.84C81.3384 107.742 87.0567 104.146 91.6905 99.4505C92.1835 98.951 92.6272 98.5014 93.0708 97.952C93.1694 97.8521 93.268 97.7022 93.4159 97.6023C91.8877 93.4065 89.5708 89.6103 86.6624 86.4135C86.6624 86.4135 86.6131 86.4635 86.6131 86.5134C86.3173 86.963 85.9722 87.4625 85.6272 87.8621C85.5779 87.912 85.5286 88.0119 85.43 88.0619C85.1835 88.4115 84.8877 88.7612 84.592 89.1108C84.4441 89.3106 84.2962 89.4605 84.099 89.6603C83.9511 89.8601 83.7539 90.0599 83.5567 90.2097C83.3596 90.4595 83.1624 90.6593 82.9159 90.909C82.5708 91.2587 82.1765 91.6083 81.7821 91.958C80.1553 93.4065 78.43 94.7052 76.5075 95.7542V81.4185L77.6906 79.4705C73.106 76.923 67.7821 75.5244 62.1624 75.5244Z" fill="#52A3CC"/>
</svg>
