<svg width="888" height="250" viewBox="0 0 888 250" fill="none" xmlns="http://www.w3.org/2000/svg">
<path d="M124.308 48.4516C117.817 46.3703 110.834 45.2881 103.603 45.2881C102.618 45.2881 101.632 45.2881 100.646 45.3713C100.235 45.3713 99.8242 45.3713 99.3312 45.4546C98.5918 45.4546 97.8523 45.5378 97.195 45.6211C97.0307 45.6211 96.8664 45.6211 96.6199 45.7043C95.634 45.7876 94.6481 45.8708 93.6622 46.0373C92.5941 46.2038 91.526 46.3703 90.458 46.6201C89.7185 46.7033 89.0612 46.8698 88.404 47.0363C87.7467 47.2028 87.0073 47.3693 86.35 47.5358C85.857 47.6191 85.2819 47.7856 84.7889 47.9521C83.9673 48.2018 83.0636 48.4516 82.242 48.7013C54.2256 57.8588 33.9321 84.5821 33.9321 115.884C33.9321 120.629 34.4251 125.208 35.2467 129.62C36.0683 134.033 37.3828 138.278 38.9439 142.358C39.519 143.773 40.0941 145.105 40.7514 146.52C41.9838 149.101 43.3805 151.682 44.9415 154.096C46.9134 157.176 49.0495 160.007 51.4321 162.754C51.5964 162.92 51.7608 163.17 52.0072 163.337C52.7467 164.169 53.4861 165.002 54.3077 165.834C62.0307 173.66 71.5612 179.737 82.242 183.15C83.0636 183.4 83.8852 183.65 84.7068 183.899C85.1997 184.066 85.7749 184.232 86.2678 184.316C86.6786 184.399 87.0894 184.482 87.4181 184.565C88.0753 184.732 88.8148 184.898 89.5542 185.065C89.965 185.148 90.458 185.231 90.8688 185.315H90.9509C91.526 185.398 92.019 185.481 92.5941 185.564C92.9227 185.648 93.3335 185.648 93.6622 185.731C94.6481 185.897 95.634 185.981 96.6199 186.064C96.7843 186.064 96.9486 186.147 97.1129 186.147C97.8523 186.23 98.5918 186.314 99.249 186.314C99.6598 186.314 100.071 186.397 100.564 186.397C100.81 186.397 101.139 186.397 101.385 186.397C102.042 186.397 102.782 186.397 103.521 186.397C110.751 186.397 117.653 185.315 124.226 183.233C135.153 179.82 144.93 173.66 152.817 165.668C153.803 164.669 154.789 163.67 155.693 162.587C158.075 159.84 160.211 157.01 162.183 153.929C163.498 151.931 164.648 149.85 165.716 147.686C166.62 145.937 167.442 144.023 168.181 142.191C169.906 137.945 171.221 133.533 172.042 128.954C172.864 124.709 173.275 120.296 173.275 115.801C173.275 84.2491 152.653 57.3593 124.308 48.4516ZM152.899 118.964C152.488 125.708 150.763 132.118 147.97 137.862C147.888 138.112 147.723 138.362 147.641 138.611C146.655 140.526 145.587 142.358 144.437 144.106C142.136 147.519 139.425 150.683 136.385 153.43C133.674 155.844 130.798 157.925 127.594 159.757V135.698L129.484 132.534L129.566 132.451L132.359 127.872L138.357 118.132L107.383 71.0124V104.895C108.533 105.894 109.273 107.309 109.437 108.974C109.437 109.058 109.437 109.224 109.437 109.307C109.437 112.471 106.89 115.135 103.686 115.135C100.564 115.135 97.9345 112.554 97.9345 109.307C97.9345 109.224 97.9345 109.141 97.9345 109.141C97.9345 108.808 97.9345 108.475 98.0166 108.142C98.0166 107.975 98.0988 107.809 98.0988 107.559C98.0988 107.476 98.0988 107.476 98.0988 107.393C98.181 107.143 98.2631 106.976 98.3453 106.727C98.4274 106.56 98.5096 106.31 98.6739 106.144C98.7561 105.977 98.9204 105.811 99.0847 105.644C99.1669 105.478 99.3312 105.395 99.4134 105.228C99.5777 105.062 99.6598 104.978 99.8242 104.812V70.9291L90.2936 85.3314L82.1598 97.9021L79.0378 102.647L71.8899 113.553L68.9321 118.049L74.9298 127.789L77.4767 132.035L77.6411 132.368L79.6129 135.614V159.59C76.4908 157.842 73.5331 155.678 70.8218 153.263C70.1645 152.681 69.5894 152.098 68.9321 151.515C68.5213 151.182 68.1927 150.766 67.8641 150.35C67.5354 150.017 67.2889 149.767 66.9603 149.434C66.7138 149.184 66.4673 148.934 66.2209 148.601L66.1387 148.518C65.6457 147.935 65.1528 147.353 64.742 146.77C64.6598 146.687 64.5777 146.52 64.4134 146.437C63.8382 145.688 63.3453 144.938 62.7702 144.189C62.7702 144.189 62.688 144.106 62.688 144.023C61.3734 142.025 60.1411 139.943 59.1551 137.779V137.696C56.526 132.201 54.8007 126.124 54.3077 119.797C54.3077 119.464 54.3077 119.214 54.3077 118.881C54.2256 117.882 54.2256 116.883 54.2256 115.884C54.2256 96.0706 65.6457 78.8379 82.242 70.7626C83.2279 70.2631 84.296 69.7636 85.3641 69.3474C85.857 69.0976 86.4321 68.9311 86.9251 68.7646C87.5824 68.5149 88.2396 68.2651 88.9791 68.0986C89.3899 67.9321 89.8828 67.7656 90.3758 67.6824C90.458 67.6824 90.5401 67.6824 90.5401 67.5991C91.3617 67.3494 92.1012 67.1829 92.9227 67.0164C93.2514 66.9331 93.4979 66.8499 93.8265 66.8499C94.7303 66.6834 95.634 66.5169 96.5378 66.3504C97.0307 66.2671 97.4415 66.2671 97.9345 66.1839C98.3453 66.1839 98.7561 66.1006 99.249 66.1006C99.9063 66.0174 100.564 66.0174 101.221 65.9341C101.55 65.9341 101.796 65.9341 102.125 65.9341C102.618 65.9341 103.111 65.9341 103.603 65.9341C110.998 65.9341 117.981 67.5991 124.308 70.5961C141.233 78.5049 153.064 95.9041 153.064 116.051C152.981 116.883 152.981 117.882 152.899 118.964Z" fill="#147CC1"/>
<path d="M54.1458 115.887C54.1458 116.886 54.1458 117.885 54.228 118.884C54.228 119.217 54.228 119.466 54.228 119.799C54.7209 126.21 56.3641 132.204 59.0754 137.698V137.781C60.1435 139.946 61.2937 142.027 62.6083 144.025C62.6083 144.025 62.6904 144.108 62.6904 144.192C63.1834 144.941 63.7585 145.69 64.3336 146.439C64.4158 146.523 64.4979 146.689 64.6623 146.772C65.0731 147.355 65.566 147.938 66.059 148.521L66.1411 148.604C66.3876 148.854 66.6341 149.187 66.8806 149.436C67.1271 149.769 67.4557 150.102 67.7843 150.352C68.113 150.768 68.4416 151.101 68.8524 151.518C69.4275 152.1 70.0848 152.683 70.7421 153.266C73.4533 155.68 76.3289 157.845 79.5332 159.593V135.7L77.5613 132.453L77.397 132.12L74.8501 127.875L68.8524 118.134L71.8101 113.639L78.958 102.733L82.0801 97.9878L90.3782 85.4171L99.9087 71.0148V104.898C99.7444 104.981 99.5801 105.147 99.4979 105.314C99.3336 105.397 99.2515 105.564 99.1693 105.73C99.005 105.897 98.9228 106.063 98.7585 106.23C98.6763 106.396 98.512 106.646 98.4299 106.812C98.3477 107.062 98.2656 107.229 98.1834 107.478C98.1834 107.478 98.1834 107.562 98.1834 107.645C98.1012 107.811 98.1012 107.978 98.1012 108.228C98.0191 108.561 98.0191 108.894 98.0191 109.227C98.0191 109.31 98.0191 109.393 98.0191 109.393C98.0191 112.557 100.566 115.221 103.77 115.221V186.483C103.031 186.483 102.374 186.483 101.634 186.483C101.388 186.483 101.059 186.483 100.813 186.483C100.402 186.483 99.9909 186.483 99.4979 186.399C98.7585 186.399 98.0191 186.316 97.3618 186.233C97.1975 186.233 97.0332 186.233 96.8688 186.15C95.8829 186.066 94.897 185.983 93.9111 185.817C93.5825 185.817 93.1717 185.733 92.843 185.65C92.2679 185.567 91.7749 185.484 91.1998 185.4H91.1177C90.7069 185.317 90.2139 185.234 89.8031 185.151C89.3923 185.067 88.8994 184.984 88.4886 184.901C88.2421 184.818 87.9956 184.818 87.667 184.734C87.2562 184.651 86.8454 184.568 86.5167 184.485C85.9416 184.401 85.4487 184.235 84.9557 184.068C84.1341 183.819 83.3125 183.569 82.4909 183.319C71.8101 179.823 62.2796 173.829 54.5566 166.003C53.735 165.171 52.9956 164.421 52.2562 163.506C52.0918 163.339 51.9275 163.089 51.681 162.923C49.2984 160.176 47.1623 157.345 45.1904 154.265C43.6294 151.851 42.2327 149.353 41.0003 146.689C40.343 145.357 39.7679 143.942 39.1928 142.527C37.5496 138.447 36.3172 134.202 35.4956 129.789C34.5918 125.377 34.181 120.715 34.181 116.053C34.181 84.6678 54.4745 58.0278 82.4909 48.8703C83.3125 48.6205 84.1341 48.3708 85.0379 48.121C85.5308 47.9545 86.0238 47.8713 86.5989 47.7048C87.2562 47.5383 87.9956 47.3718 88.6529 47.2053C89.3102 47.0388 90.0496 46.8723 90.7069 46.789C91.7749 46.6225 92.843 46.3728 93.9111 46.2063C94.897 46.0398 95.8829 45.9565 96.8688 45.8733C97.0332 45.8733 97.1975 45.79 97.444 45.79C98.1834 45.7068 98.8407 45.6235 99.5801 45.6235C99.9909 45.6235 100.402 45.5403 100.895 45.5403C101.881 45.457 102.866 45.457 103.852 45.457V65.77C103.359 65.77 102.866 65.77 102.374 65.77C102.045 65.77 101.798 65.77 101.47 65.77C100.813 65.77 100.155 65.8533 99.4979 65.9365C99.0871 65.9365 98.5942 66.0198 98.1834 66.0198C97.6904 66.0198 97.2796 66.103 96.7867 66.1863C95.8829 66.2695 94.9792 66.436 94.0754 66.6858C93.7468 66.769 93.5003 66.7691 93.1717 66.8523C92.3501 67.0188 91.5285 67.1853 90.789 67.435C90.7069 67.435 90.6247 67.435 90.6247 67.5183C90.1318 67.6015 89.7209 67.768 89.228 67.9345C88.5707 68.101 87.8313 68.3508 87.174 68.6006C86.681 68.7671 86.1059 69.0168 85.613 69.1833C84.5449 69.5995 83.559 70.0991 82.4909 70.5986C65.6482 78.8403 54.1458 96.0731 54.1458 115.887Z" fill="#72BF44"/>
<path d="M254.284 113.554C247.054 105.728 238.345 101.815 228.075 101.815C217.805 101.815 209.096 105.728 201.784 113.554C194.554 121.379 190.939 130.87 190.939 141.942C190.939 151.432 193.65 159.757 198.991 166.834C199.894 167.999 200.798 169.165 201.866 170.247C209.096 178.073 217.887 181.985 228.157 181.985C236.127 181.985 243.192 179.571 249.354 174.826V182.318H265.129V144.523C265.211 143.607 265.211 142.774 265.211 141.859C265.129 130.87 261.514 121.379 254.284 113.554ZM227.746 166.584C227.171 166.334 225.61 166.001 222.981 165.668C219.695 164.419 216.901 162.921 214.601 161.089C209.014 156.677 206.303 150.35 206.303 142.192C206.303 139.528 206.878 136.114 208.11 132.035C213.533 122.794 219.366 118.216 225.61 118.216H229.061C231.115 118.216 232.676 118.549 233.826 119.131C244.014 123.793 249.108 131.452 249.108 142.275C248.533 147.187 247.958 150.184 247.383 151.183C247.054 152.015 246.725 152.764 246.397 153.514C242.289 162.255 235.962 166.584 227.746 166.584Z" fill="#147CC1"/>
<path d="M274.907 81.835V180.819L291.914 180.903V81.835H274.907V81.835Z" fill="#147CC1"/>
<path d="M374.237 138.196C373.497 128.705 369.882 120.547 363.474 113.554C356.244 105.728 347.535 101.815 337.265 101.815C326.995 101.815 318.286 105.728 310.974 113.554C303.744 121.379 300.129 130.87 300.129 141.942C300.129 143.024 300.129 144.106 300.211 145.105C300.868 154.846 304.483 163.171 310.974 170.247C318.204 178.073 326.995 181.985 337.265 181.985C345.234 181.985 352.3 179.571 358.462 174.826V182.318H374.237V144.523C374.319 143.607 374.319 142.774 374.319 141.859C374.319 140.693 374.319 139.444 374.237 138.196ZM356.654 151.099C352.464 161.422 345.892 166.667 336.936 166.667C336.361 166.417 334.8 166.085 332.171 165.752C321.408 161.839 315.903 154.346 315.493 143.44C315.493 143.107 315.493 142.691 315.493 142.275C315.493 139.611 316.068 136.198 317.3 132.118C322.723 122.878 328.556 118.299 334.8 118.299H338.251C340.305 118.299 341.866 118.632 343.016 119.215C352.3 123.46 357.394 130.204 358.215 139.528C358.298 140.443 358.38 141.359 358.38 142.358C357.805 147.187 357.23 150.1 356.654 151.099Z" fill="#147CC1"/>
<path d="M448.92 134.533C447.441 122.794 440.869 113.637 429.12 106.977C423.615 104.895 418.768 103.896 414.66 103.896C400.282 103.896 389.766 110.973 383.193 125.209C381.632 128.372 380.564 132.618 379.989 137.863C379.742 140.443 379.578 143.357 379.578 146.521V181.985H396.667V141.526C396.667 139.861 396.749 138.279 396.996 136.78C398.228 127.873 402.911 122.211 411.127 119.797C413.181 119.797 414.249 119.631 414.249 119.381C422.711 119.381 428.545 124.293 431.749 134.033C431.831 134.366 431.913 134.782 431.913 135.115C432.406 137.613 432.571 139.944 432.571 142.025V181.985H449.167V139.861C449.249 138.029 449.167 136.198 448.92 134.533Z" fill="#147CC1"/>
<path d="M513.499 144.439C510.048 141.026 502.325 137.529 490.248 133.949C489.837 133.866 489.344 133.7 488.769 133.533C488.194 133.367 487.537 133.2 486.797 133.034C480.142 131.285 476.774 129.038 476.774 126.457C476.774 124.709 477.513 123.377 478.992 122.461C480.471 121.545 482.689 121.046 485.565 121.046C489.015 121.046 493.288 121.878 498.382 123.626C503.476 125.291 507.748 127.373 511.116 129.62L516.375 111.971C511.363 109.724 506.515 108.059 501.75 106.976C496.985 105.894 492.302 105.395 487.619 105.395C478.663 105.395 471.515 107.476 466.257 111.722C460.999 115.967 458.37 121.628 458.37 128.705C458.37 130.703 458.616 132.534 459.027 134.199C459.849 137.279 461.328 139.86 463.546 142.108C466.997 145.521 473.652 149.267 483.429 153.18C484.743 153.513 486.551 154.013 488.687 154.512C495.424 156.094 498.71 158.508 498.71 161.755C498.71 163.753 497.889 165.251 496.246 166.25C494.602 167.249 492.138 167.832 489.015 167.832C484.497 167.832 479.485 167.083 473.898 165.584C468.311 164.086 463.71 161.755 460.013 158.425L454.755 174.575C459.52 177.572 464.614 179.737 470.037 181.235C475.459 182.734 481.292 183.4 487.619 183.4C496.985 183.4 504.461 181.069 510.048 176.49C515.717 171.911 518.511 165.834 518.511 158.425C518.675 152.597 516.95 147.935 513.499 144.439Z" fill="#72BF44"/>
<path d="M578.814 156.677H578.404C572.57 162.587 566.737 165.584 560.904 165.584C558.11 165.584 554.742 164.502 550.88 162.504C546.361 160.007 543.157 155.428 541.267 148.768V148.352C540.364 145.937 539.706 143.107 539.213 140.027C539.624 137.779 540.199 135.698 540.939 133.783V133.367V133.283C542.829 126.623 546.033 122.045 550.552 119.547C554.495 117.466 557.782 116.467 560.575 116.467C566.49 116.467 572.324 119.464 578.075 125.375H578.486C586.209 119.797 590.235 116.966 590.728 116.966V116.051C581.936 105.977 571.831 100.982 560.493 100.982C544.472 100.982 532.805 109.224 525.493 125.874C524.671 128.455 524.014 130.952 523.603 133.367C523.11 136.197 522.864 138.861 522.864 141.442C522.864 151.515 526.15 160.34 532.723 167.999C539.789 176.823 549.155 181.319 560.904 181.319C572.242 181.319 582.347 176.324 591.138 166.25V165.335C590.563 165.168 586.455 162.338 578.814 156.677Z" fill="#72BF44"/>
<path d="M667.465 137.446C667.218 123.543 660.481 112.887 647.336 105.395C641.831 103.313 636.984 102.314 632.876 102.314C624.988 102.314 618.333 104.396 612.746 108.641V64.7686H597.711V145.271H597.793V180.32H614.883V139.943C614.883 138.112 614.965 136.364 615.211 134.782C616.526 126.124 621.209 120.546 629.343 118.215C631.397 118.215 632.383 118.049 632.383 117.799C640.845 117.799 646.678 122.711 649.883 132.451C650.129 133.866 650.376 135.115 650.458 136.364C650.622 137.779 650.704 139.111 650.704 140.36V180.32H667.3V138.195C667.547 138.029 667.547 137.696 667.465 137.446Z" fill="#72BF44"/>
<path d="M737.3 115.135C730.07 107.309 721.361 103.396 711.091 103.396C700.822 103.396 692.113 107.309 684.8 115.135C678.803 121.628 675.27 129.204 674.284 137.945C674.038 139.694 673.955 141.608 673.955 143.44C673.955 154.512 677.57 164.003 684.8 171.828C692.03 179.654 700.822 183.566 711.091 183.566C721.279 183.566 730.07 179.654 737.3 171.828C744.284 164.252 747.899 155.178 748.145 144.605C748.145 144.272 748.145 143.856 748.145 143.523C748.228 132.368 744.613 122.877 737.3 115.135ZM732.207 143.69C731.631 148.685 731.056 151.598 730.481 152.597C726.291 162.92 719.718 168.165 710.763 168.165C710.188 167.915 708.627 167.582 705.998 167.249C694.906 163.17 689.319 155.345 689.319 143.773C689.319 142.358 689.483 140.859 689.812 139.028C690.141 137.363 690.552 135.614 691.127 133.616C696.549 124.376 702.383 119.797 708.627 119.797H712.077C714.131 119.797 715.692 120.047 716.843 120.629C726.784 125.125 731.878 132.451 732.124 142.774C732.207 143.024 732.207 143.357 732.207 143.69Z" fill="#72BF44"/>
<path d="M816.01 115.135C808.78 107.309 800.071 103.396 789.801 103.396C779.531 103.396 770.823 107.309 763.51 115.135C756.28 122.96 752.665 132.368 752.665 143.44C752.665 144.023 752.665 144.522 752.665 145.105C752.994 155.511 756.609 164.336 763.51 171.828C770.74 179.654 779.531 183.566 789.801 183.566C799.989 183.566 808.78 179.654 816.01 171.828C820.036 167.499 822.912 162.671 824.719 157.343C826.198 153.014 826.938 148.435 826.938 143.44C826.938 132.368 823.24 122.877 816.01 115.135ZM789.473 168.165C788.898 167.915 787.337 167.582 784.707 167.249C774.684 163.586 769.179 156.843 768.193 147.103C768.111 146.021 768.029 144.938 768.029 143.773C768.029 141.109 768.604 137.696 769.837 133.616C775.259 124.376 781.092 119.797 787.337 119.797H790.869C792.923 119.797 794.485 120.047 795.635 120.629C805.823 125.291 810.999 132.95 810.999 143.773C810.423 148.768 809.848 151.682 809.273 152.681C809.109 153.097 808.945 153.43 808.78 153.846C804.508 163.337 798.1 168.165 789.473 168.165Z" fill="#72BF44"/>
<path d="M835.481 81.835V180.819L852.488 180.903V81.835H835.481V81.835Z" fill="#72BF44"/>
<path d="M265.047 150.1V182.317H249.273V174.825C243.111 179.57 236.045 181.984 228.075 181.984C217.806 181.984 209.097 178.072 201.784 170.246C200.798 169.164 199.813 167.998 198.909 166.833C203.263 164.835 208.439 162.92 214.519 161.089C216.82 162.92 219.613 164.419 222.899 165.667C225.529 166.084 227.09 166.333 227.665 166.583C235.963 166.583 242.207 162.171 246.397 153.346C252.313 152.264 258.557 151.099 265.047 150.1Z" fill="#52A3CC"/>
<path d="M274.907 148.518C280.33 147.685 286.081 146.936 291.914 146.104V180.902L274.907 180.819V148.518Z" fill="#52A3CC"/>
<path d="M374.32 141.942C374.32 142.858 374.32 143.69 374.237 144.606V182.318H358.463V174.826C352.301 179.571 345.235 181.985 337.266 181.985C326.996 181.985 318.287 178.072 310.975 170.247C304.484 163.171 300.869 154.846 300.212 145.105C305.141 144.523 310.235 143.94 315.493 143.357C315.822 154.263 321.409 161.755 332.172 165.668C334.801 166.084 336.362 166.334 336.937 166.584C345.892 166.584 352.547 161.422 356.655 151.016C357.23 150.017 357.806 147.103 358.381 142.108C358.381 141.109 358.381 140.194 358.216 139.278C363.475 138.862 368.815 138.529 374.155 138.112C374.32 139.444 374.32 140.693 374.32 141.942Z" fill="#52A3CC"/>
<path d="M379.989 137.779C385.575 137.446 391.244 137.113 396.996 136.78C396.831 138.279 396.667 139.861 396.667 141.526V181.902H379.578V146.437C379.66 143.357 379.742 140.443 379.989 137.779Z" fill="#52A3CC"/>
<path d="M448.92 134.532C449.167 136.28 449.249 138.029 449.249 139.86V181.985H432.653V142.025C432.653 139.943 432.406 137.696 431.995 135.115C437.582 134.865 443.251 134.699 448.92 134.532Z" fill="#52A3CC"/>
<path d="M513.497 144.439C516.947 147.852 518.673 152.514 518.673 158.425C518.673 165.917 515.879 171.911 510.21 176.49C504.541 181.069 497.065 183.4 487.781 183.4C481.454 183.4 475.621 182.651 470.198 181.235C464.776 179.737 459.682 177.572 454.917 174.575L460.175 158.425C463.872 161.672 468.473 164.086 474.06 165.584C479.647 167.083 484.659 167.832 489.177 167.832C492.382 167.832 494.764 167.333 496.407 166.25C498.051 165.168 498.872 163.67 498.872 161.755C498.872 158.508 495.504 156.094 488.849 154.512C486.713 154.013 484.905 153.513 483.59 153.18C473.731 149.267 467.159 145.604 463.708 142.108C461.49 139.943 460.011 137.279 459.189 134.199C468.884 133.949 478.743 133.7 488.767 133.533C489.342 133.7 489.835 133.866 490.245 133.949C502.323 137.529 510.046 141.026 513.497 144.439Z" fill="#98CC72"/>
<path d="M578.815 156.677C586.538 162.338 590.564 165.168 591.057 165.168V166.084C582.266 176.074 572.242 181.152 560.822 181.152C549.073 181.152 539.707 176.74 532.641 167.832C526.069 160.173 522.782 151.349 522.782 141.275C522.782 138.695 523.029 136.031 523.522 133.2H526.644C531.327 133.2 536.092 133.2 540.775 133.2V133.283V133.7C540.036 135.531 539.461 137.612 539.05 139.943C539.543 143.024 540.2 145.771 541.104 148.268V148.685C542.993 155.345 546.198 159.923 550.717 162.421C554.578 164.502 557.947 165.501 560.74 165.501C566.655 165.501 572.489 162.504 578.24 156.593H578.815V156.677Z" fill="#98CC72"/>
<path d="M597.794 134.282C603.71 134.449 609.543 134.615 615.376 134.865C615.13 136.447 615.048 138.195 615.048 140.026V180.403H597.958V145.354H597.876V134.282H597.794Z" fill="#98CC72"/>
<path d="M667.465 137.446C667.465 137.696 667.465 138.029 667.465 138.279V180.403H650.869V140.443C650.869 139.195 650.787 137.863 650.622 136.447C656.373 136.78 661.96 137.113 667.465 137.446Z" fill="#98CC72"/>
<path d="M748.145 144.522C747.899 155.095 744.284 164.253 737.3 171.745C730.07 179.571 721.361 183.483 711.091 183.483C700.822 183.483 692.113 179.571 684.8 171.745C677.57 163.92 673.955 154.429 673.955 143.357C673.955 141.442 674.038 139.611 674.284 137.862C679.542 138.195 684.718 138.528 689.73 138.945C689.401 140.693 689.237 142.275 689.237 143.69C689.237 155.262 694.824 163.087 705.915 167.166C708.545 167.583 710.106 167.832 710.681 168.082C719.636 168.082 726.209 162.921 730.399 152.514C730.974 151.515 731.549 148.602 732.124 143.607C732.124 143.274 732.124 142.941 732.124 142.608C737.711 143.357 742.969 143.856 748.145 144.522Z" fill="#98CC72"/>
<path d="M824.719 157.259C822.912 162.587 820.036 167.416 816.01 171.745C808.78 179.57 800.071 183.483 789.801 183.483C779.531 183.483 770.823 179.57 763.51 171.745C756.609 164.336 752.994 155.428 752.665 145.021C758.006 145.687 763.1 146.353 768.111 147.019C769.097 156.76 774.602 163.503 784.625 167.166C787.254 167.582 788.815 167.832 789.391 168.082C798.017 168.082 804.426 163.337 808.616 153.68C814.449 154.928 819.708 156.094 824.719 157.259Z" fill="#98CC72"/>
<path d="M852.571 166.084V180.985L835.564 180.902V160.173C842.137 162.004 847.806 164.002 852.571 166.084Z" fill="#98CC72"/>
<path d="M103.604 125.874V186.48C102.618 186.48 101.632 186.48 100.646 186.397C100.235 186.397 99.8245 186.397 99.3316 186.314C98.5921 186.314 97.8527 186.23 97.1954 186.147C97.0311 186.147 96.8668 186.147 96.7024 186.064C95.7165 185.981 94.7306 185.897 93.7447 185.731C92.7588 185.648 91.855 185.481 90.9513 185.231C90.0475 185.065 89.2259 184.898 88.3222 184.732C87.6649 184.565 87.0076 184.399 86.3503 184.232C85.7752 184.149 85.2823 183.983 84.7893 183.816C83.9677 183.566 83.1461 183.317 82.3245 183.067C71.6438 179.57 62.1132 173.576 54.3902 165.751C53.5686 164.918 52.8292 164.169 52.0898 163.253C51.9254 163.087 51.7611 162.837 51.5146 162.671C54.0616 155.678 57.9231 149.351 62.7705 144.023C62.7705 144.023 62.8527 144.106 62.8527 144.189C63.3456 144.938 63.9208 145.771 64.4959 146.437C64.578 146.52 64.6602 146.687 64.8245 146.77C65.2353 147.353 65.7283 147.935 66.2212 148.518C66.4677 148.851 66.7142 149.101 67.0428 149.434C67.2893 149.767 67.6179 150.1 67.9466 150.35C68.2752 150.766 68.6039 151.099 69.0146 151.515C69.5898 152.098 70.247 152.681 70.9043 153.263C73.6156 155.678 76.4912 157.842 79.6954 159.59V135.698L77.7236 132.451C85.3644 128.205 94.2377 125.874 103.604 125.874Z" fill="#98CC72"/>
<path d="M103.604 125.874V186.48C104.59 186.48 105.576 186.48 106.562 186.397C106.973 186.397 107.383 186.397 107.876 186.314C108.616 186.314 109.355 186.23 110.012 186.147C110.177 186.147 110.341 186.147 110.505 186.064C111.491 185.981 112.477 185.897 113.463 185.731C114.449 185.648 115.353 185.481 116.257 185.231C117.16 185.065 117.982 184.898 118.886 184.732C119.543 184.565 120.2 184.399 120.858 184.232C121.433 184.149 121.926 183.983 122.419 183.816C123.24 183.566 124.062 183.317 124.883 183.067C135.564 179.57 145.095 173.576 152.818 165.751C153.639 164.918 154.379 164.169 155.118 163.253C155.282 163.087 155.447 162.837 155.693 162.671C153.146 155.678 149.285 149.351 144.437 144.023C144.437 144.023 144.355 144.106 144.355 144.189C143.862 144.938 143.287 145.771 142.712 146.437C142.63 146.52 142.548 146.687 142.383 146.77C141.973 147.353 141.48 147.935 140.987 148.518C140.74 148.851 140.494 149.101 140.165 149.434C139.919 149.767 139.59 150.1 139.261 150.35C138.933 150.766 138.604 151.099 138.193 151.515C137.618 152.098 136.961 152.681 136.304 153.263C133.592 155.678 130.717 157.842 127.512 159.59V135.698L129.484 132.451C121.843 128.205 112.97 125.874 103.604 125.874Z" fill="#52A3CC"/>
</svg>
