<svg width="355" height="100" viewBox="0 0 355 100" fill="none" xmlns="http://www.w3.org/2000/svg">
<path d="M49.7231 19.3806C47.1269 18.5481 44.3334 18.1152 41.4414 18.1152C41.0471 18.1152 40.6527 18.1152 40.2583 18.1485C40.094 18.1485 39.9297 18.1485 39.7325 18.1818C39.4367 18.1818 39.141 18.2151 38.878 18.2484C38.8123 18.2484 38.7466 18.2484 38.648 18.2817C38.2536 18.315 37.8593 18.3483 37.4649 18.4149C37.0377 18.4815 36.6104 18.5481 36.1832 18.648C35.8874 18.6813 35.6245 18.7479 35.3616 18.8145C35.0987 18.8811 34.8029 18.9477 34.54 19.0143C34.3428 19.0476 34.1128 19.1142 33.9156 19.1808C33.587 19.2807 33.2255 19.3806 32.8968 19.4805C21.6902 23.1435 13.5729 33.8328 13.5729 46.3537C13.5729 48.2518 13.7701 50.0833 14.0987 51.8482C14.4273 53.6131 14.9532 55.3114 15.5776 56.9431C15.8076 57.5092 16.0377 58.042 16.3006 58.6081C16.7935 59.6404 17.3522 60.6727 17.9766 61.6384C18.7654 62.8705 19.6198 64.0027 20.5729 65.1016C20.6386 65.1682 20.7043 65.2681 20.8029 65.3347C21.0987 65.6677 21.3945 66.0007 21.7231 66.3337C24.8123 69.4639 28.6245 71.8948 32.8968 73.2601C33.2255 73.36 33.5541 73.4599 33.8827 73.5598C34.0799 73.6264 34.31 73.693 34.5071 73.7263C34.6715 73.7596 34.8358 73.7929 34.9672 73.8262C35.2302 73.8928 35.5259 73.9594 35.8217 74.026C35.986 74.0593 36.1832 74.0926 36.3475 74.1259H36.3804C36.6104 74.1592 36.8076 74.1925 37.0377 74.2258C37.1691 74.2591 37.3334 74.2591 37.4649 74.2924C37.8593 74.359 38.2536 74.3923 38.648 74.4256C38.7137 74.4256 38.7794 74.4589 38.8452 74.4589C39.1409 74.4922 39.4367 74.5255 39.6996 74.5255C39.864 74.5255 40.0283 74.5588 40.2255 74.5588C40.3241 74.5588 40.4555 74.5588 40.5541 74.5588C40.817 74.5588 41.1128 74.5588 41.4086 74.5588C44.3006 74.5588 47.0611 74.1259 49.6902 73.2934C54.0611 71.9281 57.9719 69.4639 61.1269 66.2671C61.5212 65.8675 61.9156 65.4679 62.2771 65.035C63.2302 63.9361 64.0846 62.8039 64.8733 61.5718C65.3992 60.7726 65.8593 59.9401 66.2865 59.0743C66.648 58.375 66.9766 57.6091 67.2724 56.8765C67.9625 55.1782 68.4884 53.4133 68.817 51.5818C69.1456 49.8835 69.31 48.1186 69.31 46.3204C69.31 33.6997 61.0611 22.9437 49.7231 19.3806ZM61.1597 47.5858C60.9954 50.2831 60.3053 52.8472 59.1879 55.1449C59.155 55.2448 59.0893 55.3447 59.0564 55.4446C58.6621 56.2105 58.2348 56.9431 57.7748 57.6424C56.8546 59.0077 55.7701 60.2731 54.5541 61.372C53.4696 62.3377 52.3194 63.1702 51.0377 63.9028V54.2791L51.7935 53.0137L51.8264 52.9804L52.9438 51.1489L55.3428 47.2528L42.9532 28.4049V41.9581C43.4132 42.3577 43.709 42.9238 43.7748 43.5898C43.7748 43.6231 43.7748 43.6897 43.7748 43.723C43.7748 44.9884 42.756 46.054 41.4743 46.054C40.2255 46.054 39.1738 45.0217 39.1738 43.723C39.1738 43.6897 39.1738 43.6564 39.1738 43.6564C39.1738 43.5232 39.1738 43.39 39.2067 43.2568C39.2067 43.1902 39.2395 43.1236 39.2395 43.0237C39.2395 42.9904 39.2395 42.9904 39.2395 42.9571C39.2724 42.8572 39.3053 42.7906 39.3381 42.6907C39.371 42.6241 39.4039 42.5242 39.4696 42.4576C39.5025 42.391 39.5682 42.3244 39.6339 42.2578C39.6668 42.1912 39.7325 42.1579 39.7654 42.0913C39.8311 42.0247 39.864 41.9914 39.9297 41.9248V28.3716L36.1175 34.1325L32.864 39.1609L31.6151 41.059L28.756 45.4213L27.5729 47.2195L29.9719 51.1156L30.9907 52.8139L31.0564 52.9471L31.8452 54.2458V63.8362C30.5964 63.1369 29.4133 62.2711 28.3287 61.3054C28.0658 61.0723 27.8358 60.8392 27.5729 60.6061C27.4086 60.4729 27.2771 60.3064 27.1456 60.1399C27.0142 60.0067 26.9156 59.9068 26.7841 59.7736C26.6856 59.6737 26.587 59.5738 26.4884 59.4406L26.4555 59.4073C26.2583 59.1742 26.0611 58.9411 25.8968 58.708C25.864 58.6747 25.8311 58.6081 25.7654 58.5748C25.5353 58.2751 25.3381 57.9754 25.1081 57.6757C25.1081 57.6757 25.0752 57.6424 25.0752 57.6091C24.5494 56.8099 24.0564 55.9774 23.6621 55.1116V55.0783C22.6104 52.8805 21.9203 50.4496 21.7231 47.9188C21.7231 47.7856 21.7231 47.6857 21.7231 47.5525C21.6902 47.1529 21.6902 46.7533 21.6902 46.3537C21.6902 38.4283 26.2583 31.5351 32.8968 28.305C33.2912 28.1052 33.7184 27.9054 34.1456 27.7389C34.3428 27.639 34.5729 27.5724 34.7701 27.5058C35.033 27.4059 35.2959 27.306 35.5917 27.2394C35.756 27.1728 35.9532 27.1062 36.1503 27.0729C36.1832 27.0729 36.2161 27.0729 36.2161 27.0396C36.5447 26.9397 36.8405 26.8731 37.1691 26.8065C37.3006 26.7732 37.3992 26.7399 37.5306 26.7399C37.8921 26.6733 38.2536 26.6067 38.6151 26.5401C38.8123 26.5068 38.9766 26.5068 39.1738 26.4735C39.3381 26.4735 39.5025 26.4402 39.6996 26.4402C39.9625 26.4069 40.2255 26.4069 40.4884 26.3736C40.6198 26.3736 40.7184 26.3736 40.8499 26.3736C41.0471 26.3736 41.2442 26.3736 41.4414 26.3736C44.3992 26.3736 47.1926 27.0396 49.7231 28.2384C56.4931 31.4019 61.2255 38.3617 61.2255 46.4203C61.1926 46.7533 61.1926 47.1529 61.1597 47.5858Z" fill="#147CC1"/>
<path d="M21.6584 46.3544C21.6584 46.754 21.6584 47.1536 21.6913 47.5532C21.6913 47.6864 21.6913 47.7863 21.6913 47.9195C21.8884 50.4836 22.5457 52.8812 23.6302 55.079V55.1123C24.0575 55.9781 24.5176 56.8106 25.0434 57.6098C25.0434 57.6098 25.0762 57.6431 25.0762 57.6764C25.2734 57.9761 25.5035 58.2758 25.7335 58.5755C25.7664 58.6088 25.7992 58.6755 25.865 58.7088C26.0293 58.9419 26.2265 59.1749 26.4237 59.408L26.4565 59.4414C26.5551 59.5413 26.6537 59.6745 26.7523 59.7744C26.8509 59.9076 26.9823 60.0408 27.1138 60.1407C27.2453 60.3072 27.3767 60.4404 27.541 60.6069C27.7711 60.84 28.034 61.0731 28.2969 61.3062C29.3814 62.2719 30.5316 63.1377 31.8133 63.837V54.2798L31.0246 52.9811L30.9589 52.8479L29.9401 51.1496L27.541 47.2535L28.7241 45.4553L31.5833 41.093L32.8321 39.1949L36.1514 34.1666L39.9636 28.4057V41.9588C39.8978 41.9921 39.8321 42.0587 39.7993 42.1253C39.7335 42.1586 39.7007 42.2252 39.6678 42.2918C39.6021 42.3584 39.5692 42.425 39.5035 42.4916C39.4706 42.5582 39.4049 42.6581 39.372 42.7247C39.3392 42.8246 39.3063 42.8912 39.2734 42.9911C39.2734 42.9911 39.2734 43.0244 39.2734 43.0577C39.2406 43.1243 39.2406 43.1909 39.2406 43.2908C39.2077 43.424 39.2077 43.5572 39.2077 43.6904C39.2077 43.7237 39.2077 43.757 39.2077 43.757C39.2077 45.0224 40.2265 46.088 41.5082 46.088V74.5929C41.2124 74.5929 40.9495 74.5929 40.6537 74.5929C40.5551 74.5929 40.4237 74.5929 40.3251 74.5929C40.1608 74.5929 39.9964 74.5929 39.7993 74.5596C39.5035 74.5596 39.2077 74.5263 38.9448 74.493C38.8791 74.493 38.8133 74.493 38.7476 74.4597C38.3532 74.4264 37.9589 74.3931 37.5645 74.3265C37.4331 74.3265 37.2687 74.2932 37.1373 74.2599C36.9072 74.2266 36.71 74.1933 36.48 74.16H36.4471C36.2828 74.1267 36.0856 74.0934 35.9213 74.0601C35.757 74.0268 35.5598 73.9935 35.3955 73.9602C35.2969 73.9269 35.1983 73.9269 35.0669 73.8936C34.9025 73.8603 34.7382 73.827 34.6068 73.7937C34.3767 73.7604 34.1795 73.6938 33.9823 73.6272C33.6537 73.5273 33.3251 73.4274 32.9964 73.3275C28.7241 71.9289 24.9119 69.5313 21.8227 66.4011C21.4941 66.0681 21.1983 65.7684 20.9025 65.4021C20.8368 65.3355 20.7711 65.2356 20.6725 65.169C19.7194 64.0701 18.865 62.9379 18.0762 61.7058C17.4518 60.7401 16.8931 59.7411 16.4002 58.6754C16.1373 58.1426 15.9072 57.5765 15.6772 57.0104C15.0199 55.3787 14.5269 53.6804 14.1983 51.9155C13.8368 50.1506 13.6725 48.2858 13.6725 46.421C13.6725 33.8669 21.7899 23.2109 32.9964 19.5479C33.3251 19.448 33.6537 19.3481 34.0152 19.2482C34.2124 19.1816 34.4096 19.1483 34.6396 19.0817C34.9025 19.0151 35.1983 18.9485 35.4612 18.8819C35.7241 18.8153 36.0199 18.7487 36.2828 18.7154C36.71 18.6488 37.1373 18.5489 37.5645 18.4823C37.9589 18.4157 38.3532 18.3824 38.7476 18.3491C38.8133 18.3491 38.8791 18.3158 38.9777 18.3158C39.2734 18.2825 39.5363 18.2492 39.8321 18.2492C39.9964 18.2492 40.1608 18.2159 40.3579 18.2159C40.7523 18.1826 41.1467 18.1826 41.541 18.1826V26.3078C41.3439 26.3078 41.1467 26.3078 40.9495 26.3078C40.818 26.3078 40.7194 26.3078 40.588 26.3078C40.3251 26.3078 40.0622 26.3411 39.7993 26.3744C39.6349 26.3744 39.4377 26.4077 39.2734 26.4077C39.0762 26.4077 38.9119 26.441 38.7147 26.4743C38.3532 26.5076 37.9917 26.5742 37.6302 26.6741C37.4988 26.7074 37.4002 26.7074 37.2687 26.7407C36.9401 26.8073 36.6115 26.8739 36.3157 26.9738C36.2828 26.9738 36.25 26.9738 36.25 27.0071C36.0528 27.0404 35.8885 27.107 35.6913 27.1736C35.4284 27.2402 35.1326 27.3401 34.8697 27.44C34.6725 27.5066 34.4424 27.6065 34.2453 27.6731C33.818 27.8396 33.4237 28.0394 32.9964 28.2392C26.2593 31.5359 21.6584 38.429 21.6584 46.3544Z" fill="#72BF44"/>
<path d="M101.714 45.4209C98.8216 42.2907 95.3381 40.7256 91.2301 40.7256C87.1221 40.7256 83.6385 42.2907 80.7136 45.4209C77.8216 48.5511 76.3756 52.3473 76.3756 56.7762C76.3756 60.5724 77.4601 63.9024 79.5963 66.7329C79.9578 67.1991 80.3193 67.6653 80.7465 68.0982C83.6385 71.2284 87.155 72.7935 91.2629 72.7935C94.4507 72.7935 97.277 71.8278 99.7418 69.9297V72.9267H106.052V57.8085C106.085 57.4422 106.085 57.1092 106.085 56.7429C106.052 52.3473 104.606 48.5511 101.714 45.4209ZM91.0986 66.633C90.8686 66.5331 90.2442 66.3999 89.1925 66.2667C87.878 65.7672 86.7606 65.1678 85.8404 64.4352C83.6057 62.6703 82.5212 60.1395 82.5212 56.8761C82.5212 55.8105 82.7512 54.4452 83.2442 52.8135C85.4132 49.1172 87.7465 47.2857 90.2442 47.2857H91.6244C92.446 47.2857 93.0704 47.4189 93.5305 47.652C97.6057 49.5168 99.6432 52.5804 99.6432 56.9094C99.4132 58.8741 99.1831 60.0729 98.9531 60.4725C98.8216 60.8055 98.6902 61.1052 98.5587 61.4049C96.9155 64.9014 94.385 66.633 91.0986 66.633Z" fill="#147CC1"/>
<path d="M109.963 32.7344V72.3281L116.766 72.3614V32.7344H109.963V32.7344Z" fill="#147CC1"/>
<path d="M149.695 55.2777C149.399 51.4815 147.953 48.2181 145.39 45.4209C142.498 42.2907 139.014 40.7256 134.906 40.7256C130.798 40.7256 127.314 42.2907 124.39 45.4209C121.498 48.5511 120.052 52.3473 120.052 56.7762C120.052 57.2091 120.052 57.642 120.084 58.0416C120.347 61.9377 121.793 65.2677 124.39 68.0982C127.282 71.2284 130.798 72.7935 134.906 72.7935C138.094 72.7935 140.92 71.8278 143.385 69.9297V72.9267H149.695V57.8085C149.728 57.4422 149.728 57.1092 149.728 56.7429C149.728 56.2767 149.728 55.7772 149.695 55.2777ZM142.662 60.4392C140.986 64.5684 138.357 66.6663 134.775 66.6663C134.544 66.5664 133.92 66.4332 132.868 66.3C128.563 64.7349 126.361 61.7379 126.197 57.3756C126.197 57.2424 126.197 57.0759 126.197 56.9094C126.197 55.8438 126.427 54.4785 126.92 52.8468C129.089 49.1505 131.422 47.319 133.92 47.319H135.3C136.122 47.319 136.746 47.4522 137.206 47.6853C140.92 49.3836 142.958 52.0809 143.286 55.8105C143.319 56.1768 143.352 56.5431 143.352 56.9427C143.122 58.8741 142.892 60.0396 142.662 60.4392Z" fill="#147CC1"/>
<path d="M179.568 53.813C178.977 49.1177 176.347 45.4547 171.648 42.7907C169.446 41.9582 167.507 41.5586 165.864 41.5586C160.113 41.5586 155.906 44.3891 153.277 50.0834C152.653 51.3488 152.225 53.0471 151.995 55.145C151.897 56.1773 151.831 57.3428 151.831 58.6082V72.794H158.667V56.6102C158.667 55.9442 158.7 55.3115 158.798 54.7121C159.291 51.149 161.164 48.8846 164.451 47.9189C165.272 47.9189 165.7 47.8523 165.7 47.7524C169.085 47.7524 171.418 49.7171 172.7 53.6132C172.732 53.7464 172.765 53.9129 172.765 54.0461C172.962 55.0451 173.028 55.9775 173.028 56.81V72.794H179.667V55.9442C179.7 55.2116 179.667 54.479 179.568 53.813Z" fill="#147CC1"/>
<path d="M205.4 57.7759C204.019 56.4106 200.93 55.012 196.099 53.5801C195.935 53.5468 195.738 53.4802 195.508 53.4136C195.278 53.347 195.015 53.2804 194.719 53.2138C192.057 52.5145 190.709 51.6154 190.709 50.5831C190.709 49.8838 191.005 49.351 191.597 48.9847C192.188 48.6184 193.076 48.4186 194.226 48.4186C195.606 48.4186 197.315 48.7516 199.353 49.4509C201.39 50.1169 203.099 50.9494 204.447 51.8485L206.55 44.7889C204.545 43.8898 202.606 43.2238 200.7 42.7909C198.794 42.358 196.921 42.1582 195.048 42.1582C191.465 42.1582 188.606 42.9907 186.503 44.689C184.4 46.3873 183.348 48.6517 183.348 51.4822C183.348 52.2814 183.447 53.014 183.611 53.68C183.94 54.9121 184.531 55.9444 185.418 56.8435C186.799 58.2088 189.461 59.7073 193.371 61.2724C193.897 61.4056 194.62 61.6054 195.475 61.8052C198.17 62.4379 199.484 63.4036 199.484 64.7023C199.484 65.5015 199.156 66.1009 198.498 66.5005C197.841 66.9001 196.855 67.1332 195.606 67.1332C193.799 67.1332 191.794 66.8335 189.559 66.2341C187.325 65.6347 185.484 64.7023 184.005 63.3703L181.902 69.8305C183.808 71.0293 185.846 71.8951 188.015 72.4945C190.184 73.0939 192.517 73.3603 195.048 73.3603C198.794 73.3603 201.785 72.4279 204.019 70.5964C206.287 68.7649 207.404 66.334 207.404 63.3703C207.47 61.0393 206.78 59.1745 205.4 57.7759Z" fill="#72BF44"/>
<path d="M231.526 62.6703H231.361C229.028 65.0346 226.695 66.2334 224.361 66.2334C223.244 66.2334 221.897 65.8005 220.352 65.0013C218.545 64.0023 217.263 62.1708 216.507 59.5068V59.3403C216.145 58.3746 215.883 57.2424 215.685 56.0103C215.85 55.1112 216.08 54.2787 216.376 53.5128V53.3463V53.313C217.131 50.649 218.413 48.8175 220.221 47.8185C221.798 46.986 223.113 46.5864 224.23 46.5864C226.596 46.5864 228.93 47.7852 231.23 50.1495H231.394C234.484 47.9184 236.094 46.7862 236.291 46.7862V46.4199C232.775 42.3906 228.732 40.3926 224.197 40.3926C217.789 40.3926 213.122 43.6893 210.197 50.3493C209.868 51.3816 209.606 52.3806 209.441 53.3463C209.244 54.4785 209.146 55.5441 209.146 56.5764C209.146 60.6057 210.46 64.1355 213.089 67.1991C215.915 70.7289 219.662 72.5271 224.361 72.5271C228.897 72.5271 232.939 70.5291 236.455 66.4998V66.1335C236.225 66.0669 234.582 64.9347 231.526 62.6703Z" fill="#72BF44"/>
<path d="M266.986 54.9782C266.887 49.4171 264.192 45.1546 258.934 42.1576C256.732 41.3251 254.793 40.9255 253.15 40.9255C249.995 40.9255 247.333 41.758 245.099 43.4563V25.9072H239.084V58.1084H239.117V72.1277H245.953V55.9772C245.953 55.2446 245.986 54.5453 246.084 53.9126C246.61 50.4493 248.484 48.2182 251.737 47.2858C252.559 47.2858 252.953 47.2192 252.953 47.1193C256.338 47.1193 258.671 49.0841 259.953 52.9802C260.052 53.5463 260.15 54.0458 260.183 54.5453C260.249 55.1114 260.282 55.6442 260.282 56.1437V72.1277H266.92V55.2779C267.019 55.2113 267.019 55.0781 266.986 54.9782Z" fill="#72BF44"/>
<path d="M294.92 46.0537C292.028 42.9235 288.545 41.3584 284.437 41.3584C280.329 41.3584 276.845 42.9235 273.92 46.0537C271.521 48.6511 270.108 51.6814 269.714 55.1779C269.615 55.8772 269.582 56.6431 269.582 57.3757C269.582 61.8046 271.028 65.6008 273.92 68.731C276.812 71.8613 280.329 73.4264 284.437 73.4264C288.512 73.4264 292.028 71.8613 294.92 68.731C297.714 65.7007 299.16 62.071 299.258 57.8419C299.258 57.7087 299.258 57.5422 299.258 57.409C299.291 52.9468 297.845 49.1506 294.92 46.0537ZM292.883 57.4756C292.653 59.4736 292.423 60.6391 292.192 61.0387C290.516 65.1679 287.887 67.2658 284.305 67.2658C284.075 67.1659 283.451 67.0327 282.399 66.8995C277.962 65.2678 275.728 62.1376 275.728 57.5089C275.728 56.9428 275.793 56.3434 275.925 55.6108C276.056 54.9448 276.221 54.2455 276.451 53.4463C278.62 49.75 280.953 47.9185 283.451 47.9185H284.831C285.653 47.9185 286.277 48.0184 286.737 48.2515C290.714 50.0497 292.751 52.9801 292.85 57.1093C292.883 57.2092 292.883 57.3424 292.883 57.4756Z" fill="#72BF44"/>
<path d="M326.404 46.0537C323.512 42.9235 320.029 41.3584 315.921 41.3584C311.813 41.3584 308.329 42.9235 305.404 46.0537C302.512 49.1839 301.066 52.9468 301.066 57.3757C301.066 57.6088 301.066 57.8086 301.066 58.0417C301.198 62.2042 302.644 65.734 305.404 68.731C308.296 71.8613 311.813 73.4264 315.921 73.4264C319.996 73.4264 323.512 71.8613 326.404 68.731C328.015 66.9994 329.165 65.068 329.888 62.9368C330.479 61.2052 330.775 59.3737 330.775 57.3757C330.775 52.9468 329.296 49.1506 326.404 46.0537ZM315.789 67.2658C315.559 67.1659 314.935 67.0327 313.883 66.8995C309.874 65.4343 307.672 62.737 307.277 58.8409C307.245 58.408 307.212 57.9751 307.212 57.5089C307.212 56.4433 307.442 55.078 307.935 53.4463C310.104 49.75 312.437 47.9185 314.935 47.9185H316.348C317.169 47.9185 317.794 48.0184 318.254 48.2515C322.329 50.1163 324.4 53.1799 324.4 57.5089C324.169 59.5069 323.939 60.6724 323.709 61.072C323.644 61.2385 323.578 61.3717 323.512 61.5382C321.803 65.3344 319.24 67.2658 315.789 67.2658Z" fill="#72BF44"/>
<path d="M334.192 32.7344V72.3281L340.995 72.3614V32.7344H334.192V32.7344Z" fill="#72BF44"/>
<path d="M106.019 60.04V72.9272H99.7091V69.9302C97.2443 71.8283 94.4181 72.794 91.2303 72.794C87.1223 72.794 83.6387 71.2289 80.7138 68.0987C80.3195 67.6658 79.9251 67.1996 79.5636 66.7334C81.3054 65.9341 83.3758 65.1682 85.8077 64.4356C86.7279 65.1682 87.8453 65.7677 89.1598 66.2672C90.2115 66.4337 90.8359 66.5336 91.0659 66.6335C94.3852 66.6335 96.8828 64.8685 98.5589 61.3387C100.925 60.9058 103.423 60.4396 106.019 60.04Z" fill="#52A3CC"/>
<path d="M109.963 59.4071C112.132 59.0741 114.432 58.7744 116.766 58.4414V72.3608L109.963 72.3275V59.4071Z" fill="#52A3CC"/>
<path d="M149.728 56.7769C149.728 57.1432 149.728 57.4762 149.695 57.8425V72.9274H143.385V69.9304C140.92 71.8285 138.094 72.7942 134.906 72.7942C130.798 72.7942 127.315 71.2291 124.39 68.0989C121.794 65.2684 120.348 61.9384 120.085 58.0423C122.057 57.8092 124.094 57.5761 126.197 57.343C126.329 61.7053 128.564 64.7023 132.869 66.2674C133.92 66.4339 134.545 66.5338 134.775 66.6337C138.357 66.6337 141.019 64.5691 142.662 60.4066C142.892 60.007 143.122 58.8415 143.352 56.8435C143.352 56.4439 143.352 56.0776 143.287 55.7113C145.39 55.5448 147.526 55.4116 149.662 55.2451C149.728 55.7779 149.728 56.2774 149.728 56.7769Z" fill="#52A3CC"/>
<path d="M151.995 55.1115C154.23 54.9783 156.498 54.8451 158.798 54.7119C158.732 55.3113 158.667 55.944 158.667 56.61V72.7605H151.831V58.5747C151.864 57.3426 151.897 56.1771 151.995 55.1115Z" fill="#52A3CC"/>
<path d="M179.568 53.8125C179.667 54.5118 179.7 55.2111 179.7 55.9437V72.7935H173.061V56.8095C173.061 55.977 172.963 55.0779 172.798 54.0456C175.033 53.9457 177.301 53.8791 179.568 53.8125Z" fill="#52A3CC"/>
<path d="M205.399 57.7754C206.779 59.1407 207.469 61.0055 207.469 63.3698C207.469 66.3668 206.352 68.7644 204.084 70.5959C201.817 72.4274 198.826 73.3598 195.112 73.3598C192.582 73.3598 190.248 73.0601 188.079 72.494C185.91 71.8946 183.873 71.0288 181.967 69.83L184.07 63.3698C185.549 64.6685 187.389 65.6342 189.624 66.2336C191.859 66.833 193.864 67.1327 195.671 67.1327C196.953 67.1327 197.906 66.9329 198.563 66.5C199.22 66.0671 199.549 65.4677 199.549 64.7018C199.549 63.4031 198.202 62.4374 195.54 61.8047C194.685 61.6049 193.962 61.4051 193.436 61.2719C189.493 59.7068 186.864 58.2416 185.483 56.843C184.596 55.9772 184.004 54.9116 183.676 53.6795C187.554 53.5796 191.497 53.4797 195.507 53.4131C195.737 53.4797 195.934 53.5463 196.098 53.5796C200.929 55.0115 204.018 56.4101 205.399 57.7754Z" fill="#98CC72"/>
<path d="M231.526 62.6709C234.615 64.9353 236.226 66.0675 236.423 66.0675V66.4338C232.906 70.4298 228.897 72.4611 224.329 72.4611C219.629 72.4611 215.883 70.6962 213.057 67.1331C210.427 64.0695 209.113 60.5397 209.113 56.5104C209.113 55.4781 209.212 54.4125 209.409 53.2803H210.658C212.531 53.2803 214.437 53.2803 216.31 53.2803V53.3136V53.4801C216.014 54.2127 215.784 55.0452 215.62 55.9776C215.817 57.2097 216.08 58.3086 216.442 59.3076V59.4741C217.197 62.1381 218.479 63.9696 220.287 64.9686C221.831 65.8011 223.179 66.2007 224.296 66.2007C226.662 66.2007 228.996 65.0019 231.296 62.6376H231.526V62.6709Z" fill="#98CC72"/>
<path d="M239.118 53.7129C241.484 53.7795 243.817 53.8461 246.151 53.946C246.052 54.5787 246.019 55.278 246.019 56.0106V72.1611H239.183V58.1418H239.151V53.7129H239.118Z" fill="#98CC72"/>
<path d="M266.986 54.9787C266.986 55.0786 266.986 55.2118 266.986 55.3117V72.1615H260.347V56.1775C260.347 55.678 260.315 55.1452 260.249 54.5791C262.549 54.7123 264.784 54.8455 266.986 54.9787Z" fill="#98CC72"/>
<path d="M299.258 57.8085C299.16 62.0376 297.714 65.7006 294.92 68.6976C292.028 71.8278 288.545 73.3929 284.437 73.3929C280.329 73.3929 276.845 71.8278 273.92 68.6976C271.028 65.5674 269.582 61.7712 269.582 57.3423C269.582 56.5764 269.615 55.8438 269.714 55.1445C271.817 55.2777 273.887 55.4109 275.892 55.5774C275.761 56.2767 275.695 56.9094 275.695 57.4755C275.695 62.1042 277.93 65.2344 282.366 66.8661C283.418 67.0326 284.042 67.1325 284.272 67.2324C287.854 67.2324 290.484 65.1678 292.16 61.0053C292.39 60.6057 292.62 59.4402 292.85 57.4422C292.85 57.309 292.85 57.1758 292.85 57.0426C295.084 57.3423 297.188 57.5421 299.258 57.8085Z" fill="#98CC72"/>
<path d="M329.888 62.9039C329.165 65.0351 328.015 66.9665 326.404 68.6981C323.512 71.8283 320.029 73.3934 315.921 73.3934C311.813 73.3934 308.329 71.8283 305.404 68.6981C302.644 65.7344 301.198 62.1713 301.066 58.0088C303.202 58.2752 305.24 58.5416 307.245 58.808C307.639 62.7041 309.841 65.4014 313.85 66.8666C314.902 67.0331 315.526 67.133 315.756 67.2329C319.207 67.2329 321.77 65.3348 323.446 61.472C325.78 61.9715 327.883 62.4377 329.888 62.9039Z" fill="#98CC72"/>
<path d="M341.028 66.4336V72.3944L334.226 72.3611V64.0693C336.855 64.8019 339.122 65.6011 341.028 66.4336Z" fill="#98CC72"/>
<path d="M41.4416 50.3496V74.592C41.0473 74.592 40.6529 74.592 40.2585 74.5587C40.0942 74.5587 39.9299 74.5587 39.7327 74.5254C39.4369 74.5254 39.1412 74.4921 38.8783 74.4588C38.8125 74.4588 38.7468 74.4588 38.6811 74.4255C38.2867 74.3922 37.8923 74.3589 37.498 74.2923C37.1036 74.259 36.7421 74.1924 36.3806 74.0925C36.0191 74.0259 35.6905 73.9593 35.329 73.8927C35.0661 73.8261 34.8031 73.7595 34.5402 73.6929C34.3102 73.6596 34.113 73.593 33.9158 73.5264C33.5872 73.4265 33.2585 73.3266 32.9299 73.2267C28.6576 71.8281 24.8454 69.4305 21.7562 66.3003C21.4276 65.9673 21.1318 65.6676 20.836 65.3013C20.7703 65.2347 20.7045 65.1348 20.606 65.0682C21.6247 62.271 23.1693 59.7402 25.1083 57.609C25.1083 57.609 25.1412 57.6423 25.1412 57.6756C25.3384 57.9753 25.5684 58.3083 25.7984 58.5747C25.8313 58.608 25.8642 58.6746 25.9299 58.7079C26.0942 58.941 26.2914 59.1741 26.4886 59.4072C26.5872 59.5404 26.6858 59.6403 26.8172 59.7735C26.9158 59.9067 27.0473 60.0399 27.1787 60.1398C27.3102 60.3063 27.4416 60.4395 27.606 60.606C27.836 60.8391 28.0989 61.0722 28.3618 61.3053C29.4463 62.271 30.5966 63.1368 31.8783 63.8361V54.279L31.0895 52.9803C34.1459 51.282 37.6952 50.3496 41.4416 50.3496Z" fill="#98CC72"/>
<path d="M41.4417 50.3496V74.592C41.836 74.592 42.2304 74.592 42.6247 74.5587C42.7891 74.5587 42.9534 74.5587 43.1506 74.5254C43.4463 74.5254 43.7421 74.4921 44.005 74.4588C44.0708 74.4588 44.1365 74.4588 44.2022 74.4255C44.5966 74.3922 44.9909 74.3589 45.3853 74.2923C45.7797 74.259 46.1412 74.1924 46.5027 74.0925C46.8642 74.0259 47.1928 73.9593 47.5543 73.8927C47.8172 73.8261 48.0801 73.7595 48.3431 73.6929C48.5731 73.6596 48.7703 73.593 48.9675 73.5264C49.2961 73.4265 49.6247 73.3266 49.9534 73.2267C54.2257 71.8281 58.0379 69.4305 61.1271 66.3003C61.4557 65.9673 61.7515 65.6676 62.0473 65.3013C62.113 65.2347 62.1787 65.1348 62.2773 65.0682C61.2585 62.271 59.7139 59.7402 57.775 57.609C57.775 57.609 57.7421 57.6423 57.7421 57.6756C57.5449 57.9753 57.3149 58.3083 57.0848 58.5747C57.052 58.608 57.0191 58.6746 56.9534 58.7079C56.7891 58.941 56.5919 59.1741 56.3947 59.4072C56.2961 59.5404 56.1975 59.6403 56.0661 59.7735C55.9675 59.9067 55.836 60.0399 55.7046 60.1398C55.5731 60.3063 55.4416 60.4395 55.2773 60.606C55.0473 60.8391 54.7844 61.0722 54.5215 61.3053C53.4369 62.271 52.2867 63.1368 51.005 63.8361V54.279L51.7938 52.9803C48.7374 51.282 45.1881 50.3496 41.4417 50.3496Z" fill="#52A3CC"/>
</svg>
